<svg width="63" height="18" viewBox="0 0 63 18" fill="none" xmlns="http://www.w3.org/2000/svg">
<g clip-path="url(#clip0_1_39)">
<path fill-rule="evenodd" clip-rule="evenodd" d="M43.2641 10.1044C43.9236 10.1044 44.4019 9.6237 44.4019 8.96929C44.4019 8.34166 43.9236 7.87437 43.2641 7.87437H41.7256V10.1044H43.2641ZM46.3283 8.96929C46.3283 10.7186 45.0354 12.0006 43.2641 12.0006H41.7256V15.3256H39.8121V5.97804H43.2641C45.0354 5.97804 46.3283 7.2333 46.3283 8.96929Z" fill="#00A3E0"/>
<path fill-rule="evenodd" clip-rule="evenodd" d="M51.2672 12.0406C51.2672 11.1325 50.569 10.4249 49.677 10.4249C48.7978 10.4249 48.0868 11.1459 48.0868 12.0406C48.0868 12.9487 48.7978 13.6563 49.677 13.6563C50.569 13.6563 51.2672 12.962 51.2672 12.0406ZM51.2672 8.76892H53.0902V15.3256H51.2672V14.3908C50.8276 15.0719 50.1424 15.4591 49.2504 15.4591C47.6084 15.4591 46.3025 13.9235 46.3025 12.0406C46.3025 10.1577 47.6084 8.63537 49.2504 8.63537C50.1424 8.63537 50.8276 9.02277 51.2672 9.70369V8.76892Z" fill="#00A3E0"/>
<path fill-rule="evenodd" clip-rule="evenodd" d="M58.3525 8.76893H60.3177L56.7882 17.5024H54.8359L56.0124 14.7915L53.5689 8.76893H55.534L56.9433 12.6014L58.3525 8.76893Z" fill="#00A3E0"/>
<path fill-rule="evenodd" clip-rule="evenodd" d="M27.9641 4.28871H33.8886V6.00337H36.8554V17.529H0.0652103V6.00337H3.03488V4.28871H8.96156L18.4626 0.0856705L27.9641 4.28871Z" fill="#012169"/>
<path fill-rule="evenodd" clip-rule="evenodd" d="M27.2364 7.35406L27.2355 9.21737L28.4032 9.21921L28.6463 7.35476L27.2364 7.35406Z" fill="white"/>
<path fill-rule="evenodd" clip-rule="evenodd" d="M33.0556 9.22826C33.0556 8.92401 33.2938 8.70081 33.5753 8.70081C33.8543 8.70081 34.0926 8.92401 34.0926 9.22826C34.0926 9.53408 33.8543 9.75754 33.5753 9.75754C33.2938 9.75754 33.0556 9.53408 33.0556 9.22826ZM33.5753 9.66983C33.8079 9.66983 33.9894 9.48289 33.9894 9.22826C33.9894 8.97801 33.8079 8.78897 33.5753 8.78897C33.3408 8.78897 33.1587 8.97801 33.1587 9.22826C33.1587 9.48289 33.3408 9.66983 33.5753 9.66983ZM33.4675 9.53408H33.3779V8.92401H33.6027C33.7413 8.92401 33.8107 8.97801 33.8107 9.09769C33.8107 9.20771 33.7456 9.25495 33.6585 9.26584L33.8256 9.53408H33.7258L33.5704 9.26979H33.4675V9.53408ZM33.5748 9.19226C33.6492 9.19226 33.7176 9.1855 33.7176 9.09093C33.7176 9.017 33.6513 9.00312 33.5896 9.00312H33.4675V9.19226H33.5748Z" fill="white"/>
<path fill-rule="evenodd" clip-rule="evenodd" d="M5.93453 13.7034V7.35409H4.25275V15.2158H8.53649V13.7034H5.93453Z" fill="white"/>
<path fill-rule="evenodd" clip-rule="evenodd" d="M22.8624 15.2158H26.8646V13.7021H24.552V12.7146H26.8646V11.2574H24.552V10.2651H26.8646V8.74491H22.8624V8.75167V15.2158Z" fill="white"/>
<path fill-rule="evenodd" clip-rule="evenodd" d="M14.0642 14.3888C14.0642 14.845 13.7057 15.2158 13.2646 15.2158H10.0162C9.57435 15.2158 9.21659 14.845 9.21659 14.3888V9.57101C9.21659 9.11443 9.57435 8.74494 10.0162 8.74494H13.2646C13.7057 8.74494 14.0642 9.11443 14.0642 9.57101V14.3888ZM12.3793 10.265H10.9005V13.6954H12.3793V10.265Z" fill="white"/>
<path fill-rule="evenodd" clip-rule="evenodd" d="M20.2159 8.74491V13.7034H19.2005V8.74491H17.7217V13.7034H16.7063V8.74491H15.0216L15.0217 14.3887C15.0217 14.8451 15.3804 15.2158 15.8216 15.2158H17.8132C18.1487 15.2158 18.461 14.9765 18.461 14.6296C18.461 14.9765 18.7742 15.2158 19.1096 15.2158H21.1002C21.543 15.2158 21.9005 14.8451 21.9005 14.3887V8.74491H20.2159Z" fill="white"/>
<path fill-rule="evenodd" clip-rule="evenodd" d="M32.7694 12.7702L32.7704 12.7709L32.7595 12.748C32.753 12.7355 32.7467 12.7212 32.7402 12.7071L32.7296 12.6867C32.4628 12.1351 31.8664 11.6726 30.9055 11.2768L30.8725 11.2635C30.6807 11.1861 30.1024 10.952 30.0387 10.5725C30.0208 10.4661 30.0622 10.2992 30.1774 10.1972C30.2983 10.0702 30.4849 10.0052 30.7286 10.0052C31.1198 10.0052 31.566 10.1705 31.7958 10.2689C32.2824 10.477 32.7081 10.6632 32.7125 10.6645L32.7552 10.6824V9.27104L32.7409 9.26174C32.7318 9.25489 31.8129 8.65746 30.8846 8.51979C30.7782 8.51048 30.6723 8.50565 30.5707 8.50565C29.717 8.50565 29.0699 8.82666 28.6473 9.45851C28.2932 9.97858 28.2547 10.7998 28.5557 11.4135C28.9425 12.1078 29.5631 12.3965 30.1638 12.6776C30.4105 12.7921 30.6673 12.9117 30.9061 13.0596L30.9089 13.0619C31.1808 13.2295 31.3181 13.4863 31.2608 13.7154C31.2023 13.9517 30.9397 14.1112 30.6077 14.1112C30.5629 14.1112 30.5163 14.1073 30.472 14.1016L30.4556 14.0993C29.8191 14.0078 28.5262 13.5108 28.5133 13.5056L28.472 13.49V15.0381L28.4926 15.046C28.5056 15.0497 29.7561 15.478 30.866 15.478H30.8675C31.4732 15.478 31.9315 15.352 32.2277 15.1037C32.2348 15.0978 32.9127 14.535 32.9425 13.5764C32.9513 13.3114 32.8925 13.0403 32.7694 12.7702Z" fill="white"/>
<path d="M52.5457 16.7094C52.5457 16.7337 52.5266 16.7533 52.5031 16.7533H47.7169V17.4973H52.5031C52.5266 17.4973 52.5457 17.517 52.5457 17.5412V17.9237L53.5376 17.1606C53.5604 17.143 53.5604 17.1076 53.5376 17.0902L52.5457 16.3269V16.7094ZM45.0371 17.4973H47.2818V16.7533H45.0371V17.4973ZM42.3573 17.4973H44.602V16.7533H42.3573V17.4973ZM39.7548 17.4973H41.9221V16.7533H39.7548V17.4973Z" fill="url(#paint0_linear_1_39)"/>
<path fill-rule="evenodd" clip-rule="evenodd" d="M62.0213 9.87743H61.7708V8.72166H62.0453L62.3597 9.46466L62.6634 8.72166H62.9405V9.87743H62.6901V9.30231L62.4529 9.87743H62.2584L62.0213 9.30231V9.87743ZM61.6509 8.72166V8.96655H61.3312V9.87743H61.0807V8.96655H60.7583V8.72166H61.6509Z" fill="#00A3E0"/>
</g>
<defs>
<linearGradient id="paint0_linear_1_39" x1="39.7548" y1="17.1253" x2="53.5547" y2="17.1253" gradientUnits="userSpaceOnUse">
<stop stop-color="#012169"/>
<stop offset="1" stop-color="#00A3E0"/>
</linearGradient>
<clipPath id="clip0_1_39">
<rect width="63" height="18" fill="white"/>
</clipPath>
</defs>
</svg>
