<svg width="70" height="18" viewBox="0 0 70 18" fill="none" xmlns="http://www.w3.org/2000/svg">
<g clip-path="url(#clip0_1_76)">
<path d="M22.2724 3.59961C22.129 3.59961 22.0073 3.70105 21.9848 3.83918L20.3255 14.0967C20.3195 14.1341 20.3219 14.1724 20.3325 14.2089C20.3431 14.2454 20.3617 14.2792 20.387 14.3081C20.4122 14.3369 20.4436 14.36 20.479 14.3759C20.5143 14.3918 20.5528 14.4 20.5917 14.4H22.5595C22.7026 14.4 22.8246 14.2984 22.847 14.1604L23.3344 11.1482C23.3566 11.0103 23.4786 10.9087 23.6219 10.9087H25.411C27.5014 10.9087 29.2759 9.42191 29.6 7.4073C29.9268 5.37565 28.2986 3.60402 25.9908 3.59961H22.2724ZM24.1853 5.88948H25.6167C26.7952 5.88948 27.1789 6.56729 27.0576 7.31688C26.9363 8.06808 26.3402 8.6214 25.2002 8.6214H23.7433L24.1853 5.88948ZM33.6023 6.58674C33.1054 6.58855 32.5337 6.68778 31.8918 6.9484C30.4194 7.54663 29.7123 8.78298 29.4121 9.68434C29.4121 9.68434 28.4563 12.4343 30.6156 13.9451C30.6156 13.9451 32.6182 15.3996 34.8725 13.8555L34.8336 14.0967C34.8276 14.1341 34.8299 14.1724 34.8405 14.2088C34.8511 14.2453 34.8696 14.2791 34.8949 14.3079C34.9201 14.3367 34.9515 14.3599 34.9868 14.3758C35.022 14.3917 35.0604 14.3999 35.0993 14.4H36.9674C37.1107 14.4 37.2325 14.2984 37.2549 14.1604L38.3912 7.13605C38.3973 7.09859 38.395 7.06028 38.3844 7.02377C38.3739 6.98725 38.3554 6.9534 38.3301 6.92454C38.3049 6.89568 38.2735 6.87249 38.2382 6.85657C38.2028 6.84065 38.1644 6.83238 38.1255 6.83233H36.2574C36.1141 6.83233 35.9921 6.93397 35.9699 7.0719L35.9088 7.45C35.9088 7.45 35.0932 6.58133 33.6023 6.58674ZM33.6634 8.80544C33.8779 8.80544 34.0741 8.83431 34.2501 8.88944C35.0561 9.14164 35.5131 9.89644 35.3809 10.7146C35.2178 11.722 34.3702 12.4638 33.2833 12.4638C33.069 12.4638 32.8728 12.4351 32.6965 12.38C31.8907 12.1278 31.4309 11.373 31.5631 10.5548C31.7262 9.54741 32.5764 8.80544 33.6634 8.80544Z" fill="#003087"/>
<path d="M49.1734 3.59961C49.0301 3.59961 48.9083 3.70105 48.8859 3.83918L47.2266 14.0967C47.2206 14.1341 47.2229 14.1724 47.2335 14.2089C47.2441 14.2454 47.2627 14.2792 47.288 14.3081C47.3133 14.3369 47.3447 14.36 47.38 14.3759C47.4154 14.3918 47.4538 14.4 47.4927 14.4H49.4605C49.6037 14.4 49.7256 14.2984 49.7481 14.1604L50.2355 11.1482C50.2577 11.0103 50.3797 10.9087 50.523 10.9087H52.3121C54.4025 10.9087 56.1768 9.42191 56.5007 7.4073C56.8277 5.37565 55.1996 3.60402 52.8919 3.59961H49.1734ZM51.0863 5.88948H52.5178C53.6962 5.88948 54.08 6.56729 53.9587 7.31688C53.8373 8.06808 53.2415 8.6214 52.1013 8.6214H50.6444L51.0863 5.88948ZM60.5031 6.58674C60.0063 6.58855 59.4345 6.68778 58.7926 6.9484C57.3203 7.54663 56.6132 8.78298 56.3129 9.68434C56.3129 9.68434 55.3576 12.4343 57.5169 13.9451C57.5169 13.9451 59.519 15.3996 61.7735 13.8555L61.7347 14.0967C61.7286 14.1341 61.731 14.1724 61.7416 14.2089C61.7522 14.2454 61.7708 14.2792 61.7961 14.3081C61.8214 14.3369 61.8528 14.36 61.8881 14.3759C61.9234 14.3918 61.9619 14.4 62.0008 14.4H63.8687C64.012 14.4 64.1338 14.2984 64.1562 14.1604L65.2929 7.13605C65.299 7.09855 65.2967 7.06021 65.2861 7.02367C65.2755 6.98713 65.257 6.95326 65.2317 6.92439C65.2064 6.89552 65.1749 6.87234 65.1396 6.85644C65.1042 6.84055 65.0657 6.83232 65.0268 6.83233H63.1587C63.0153 6.83233 62.8934 6.93397 62.8712 7.0719L62.8101 7.45C62.8101 7.45 61.994 6.58133 60.5031 6.58674ZM60.5642 8.80544C60.7787 8.80544 60.9749 8.83431 61.151 8.88944C61.957 9.14164 62.414 9.89644 62.2817 10.7146C62.1186 11.722 61.2711 12.4638 60.1842 12.4638C59.9698 12.4638 59.7736 12.4351 59.5974 12.38C58.7916 12.1278 58.3317 11.373 58.464 10.5548C58.6271 9.54741 59.4773 8.80544 60.5642 8.80544Z" fill="#0070E0"/>
<path d="M39.2776 6.83232C39.1296 6.83232 39.0242 6.97326 39.0695 7.11059L41.1175 13.3056L39.2657 16.2249C39.1758 16.3667 39.2803 16.5497 39.4512 16.5497H41.6399C41.7025 16.5497 41.764 16.5339 41.8185 16.5039C41.873 16.4739 41.9187 16.4307 41.9511 16.3785L47.6708 7.15509C47.7587 7.01336 47.6538 6.83212 47.4839 6.83212H45.2954C45.2322 6.83218 45.1701 6.84827 45.1152 6.87881C45.0603 6.90936 45.0146 6.95331 44.9824 7.00634L42.731 10.7116L41.5881 7.0338C41.5509 6.91412 41.4375 6.83212 41.3094 6.83212L39.2776 6.83232Z" fill="#003087"/>
<path d="M67.4154 3.59961C67.2722 3.59961 67.1502 3.70125 67.1278 3.83918L65.4681 14.0963C65.462 14.1338 65.4643 14.1721 65.4749 14.2087C65.4855 14.2452 65.5041 14.2791 65.5294 14.3079C65.5546 14.3368 65.5861 14.36 65.6214 14.3759C65.6568 14.3918 65.6953 14.4 65.7342 14.4H67.702C67.8452 14.4 67.9672 14.2984 67.9896 14.1604L69.6489 3.90293C69.6549 3.8655 69.6526 3.82723 69.642 3.79077C69.6314 3.75431 69.6128 3.72051 69.5876 3.69169C69.5624 3.66287 69.531 3.63972 69.4957 3.62383C69.4604 3.60793 69.422 3.59967 69.3832 3.59961H67.4154Z" fill="#0070E0"/>
<path d="M5.86724 3.59961C5.74048 3.59971 5.61791 3.64388 5.52156 3.72417C5.4252 3.80446 5.36137 3.91561 5.34155 4.03765L4.4681 9.43775C4.50882 9.18555 4.73175 8.9997 4.99377 8.9997H7.55328C10.1292 8.9997 12.3151 7.16793 12.7145 4.6856C12.7442 4.50028 12.761 4.3132 12.7649 4.12567C12.1102 3.79107 11.3412 3.59961 10.4986 3.59961H5.86724Z" fill="#001C64"/>
<path d="M12.7649 4.12586C12.761 4.3134 12.7442 4.50047 12.7145 4.6858C12.3151 7.16813 10.129 8.9999 7.55328 8.9999H4.99377C4.73196 8.9999 4.50882 9.18554 4.46809 9.43795L3.66496 14.4002L3.16191 17.5132C3.15209 17.5734 3.15577 17.6349 3.1727 17.6935C3.18964 17.7521 3.21942 17.8065 3.26 17.8528C3.30057 17.8991 3.35096 17.9363 3.4077 17.9618C3.46445 17.9872 3.52619 18.0004 3.58867 18.0004H6.3668C6.49356 18.0003 6.61612 17.9561 6.71248 17.8758C6.80883 17.7955 6.87265 17.6844 6.89247 17.5623L7.62423 13.0381C7.64406 12.916 7.70795 12.8048 7.80439 12.7245C7.90083 12.6442 8.0235 12.6001 8.15033 12.6001H9.78599C12.362 12.6001 14.5478 10.7683 14.9472 8.28599C15.2308 6.52419 14.3205 4.92096 12.7649 4.12586Z" fill="#0070E0"/>
<path d="M2.71086 0.000228882C2.44905 0.000228882 2.22591 0.185872 2.18519 0.437874L0.00512131 13.9132C-0.0362175 14.1691 0.166574 14.4004 0.432294 14.4004H3.66515L4.46787 9.43816L5.34132 4.03807C5.36114 3.91602 5.42497 3.80487 5.52133 3.72458C5.61768 3.64429 5.74025 3.60013 5.86701 3.60002H10.4984C11.3412 3.60002 12.11 3.79168 12.7646 4.12608C12.8095 1.86608 10.8964 0.000228882 8.26609 0.000228882H2.71086Z" fill="#003087"/>
</g>
<defs>
<clipPath id="clip0_1_76">
<rect width="69.6522" height="18" fill="white"/>
</clipPath>
</defs>
</svg>
