<svg width="336" height="120" viewBox="0 0 336 120" fill="none" xmlns="http://www.w3.org/2000/svg">
<path d="M142.887 17.6058H155.962V87.308H142.887V17.6058Z" fill="white"/>
<path d="M162.701 60.4792C162.701 44.9165 174.119 33.4983 189.993 33.4983C205.867 33.4983 217.285 44.9101 217.285 60.4792C217.285 76.0482 205.873 87.46 189.993 87.46C174.113 87.46 162.701 76.0482 162.701 60.4792ZM204.109 60.4792C204.109 51.1428 198.403 44.8086 189.993 44.8086C181.583 44.8086 175.877 51.1365 175.877 60.4792C175.877 69.8219 181.482 76.1498 189.993 76.1498C198.504 76.1498 204.109 69.8219 204.109 60.4792Z" fill="white"/>
<path d="M223.922 33.4987H236.997V40.3471C239.904 36.2977 245.61 33.4987 252.56 33.4987C267.608 33.4987 276.843 44.498 276.843 60.4796C276.843 76.4612 266.986 87.4605 251.627 87.4605C245.61 87.4605 240.006 85.1756 236.997 81.4436V103.404H223.922V33.4987ZM263.876 60.4796C263.876 51.0353 258.374 44.809 250.072 44.809C241.77 44.809 236.166 51.0353 236.166 60.4796C236.166 69.9239 241.668 76.1502 250.072 76.1502C258.475 76.1502 263.876 69.9239 263.876 60.4796Z" fill="white"/>
<path d="M309.228 76.4613C301.758 76.4613 296.674 71.7899 295.531 63.907H334.343C334.444 62.8661 334.552 60.5876 334.552 58.7216C334.552 46.5798 325.939 33.5051 308.301 33.5051C290.663 33.5051 282.463 46.8908 282.463 60.486C282.463 74.0812 291.698 87.4669 309.031 87.4669C318.913 87.4669 326.765 83.6841 330.954 77.0388L322.15 69.4162C319.593 73.2878 314.807 76.4676 309.234 76.4676L309.228 76.4613ZM308.295 43.4635C315.867 43.4635 319.916 48.1348 320.538 54.3612H295.842C297.296 47.3034 301.859 43.4635 308.295 43.4635Z" fill="white"/>
<path d="M112.339 44.3771C105.465 42.6127 100.032 41.2227 100.032 36.7862C100.032 32.3496 103.701 30.0647 109.851 30.0647C116.528 30.0647 121.333 32.9463 123.561 38.2142L133.557 29.6014C129.425 22.2199 120.584 17.5612 109.851 17.5612C95.8498 17.5612 85.6947 25.6473 85.6947 36.7862C85.6947 51.143 97.8237 54.7671 107.573 57.6803C115.106 59.9335 121.618 61.8756 121.618 67.7656C121.618 72.5576 117.271 75.6485 110.537 75.6485C103.803 75.6485 97.7666 71.0343 94.517 63.4624L84.7236 71.9038C88.5128 81.5829 98.3632 88.152 110.048 88.152C125.712 88.152 136.242 79.8439 136.242 67.4737C136.242 50.5019 122.989 47.1063 112.339 44.3771Z" fill="white"/>
<g clip-path="url(#clip0_8_1435)">
<path d="M60.1871 0.582153L23.1668 76.3966L0.248047 53.1245L60.1871 0.582153Z" fill="#FFFFFF"/>
<path d="M2.10205 119.467L39.115 43.6527L62.0411 66.9247L2.10205 119.467Z" fill="#FFFFFF"/>
<path d="M23.1668 76.3968L39.1525 43.66L0.248047 53.1248L23.1668 76.3968Z" fill="#F0F0F0"/>
</g>
<defs>
<clipPath id="clip0_8_1435">
<rect width="61.7938" height="118.885" fill="white" transform="translate(0.248047 0.582153)"/>
</clipPath>
</defs>
</svg>
