<?xml version="1.0" encoding="UTF-8"?>
<svg width="105px" height="16px" viewBox="0 0 105 16" version="1.1" xmlns="http://www.w3.org/2000/svg" xmlns:xlink="http://www.w3.org/1999/xlink">
    <title>global-samsung-logo</title>
    <g id="Page-1" stroke="none" stroke-width="1" fill="none" fill-rule="evenodd">
        <g id="global-samsung-logo" fill="#000000" fill-rule="nonzero">
            <path d="M6.937,11.184 C7.092,11.547 7.041,12.013 6.963,12.298 C6.833,12.79 6.497,13.308 5.513,13.308 C4.582,13.308 4.013,12.764 4.013,11.961 L4.013,10.511 L0,10.511 L0,11.651 C0,14.99 2.614,16 5.436,16 C8.128,16 10.354,15.068 10.716,12.583 C10.897,11.288 10.768,10.46 10.69,10.123 C10.07,6.99 4.4,6.058 3.96,4.323 C3.883,4.013 3.909,3.703 3.934,3.547 C4.038,3.081 4.374,2.537 5.306,2.537 C6.186,2.537 6.704,3.081 6.704,3.883 L6.704,4.816 L10.432,4.816 L10.432,3.754 C10.432,0.492 7.507,0 5.384,0 C2.718,0 0.569,0.88 0.155,3.314 C0.052,3.987 0.025,4.583 0.181,5.334 C0.854,8.362 6.161,9.243 6.937,11.184 L6.937,11.184 Z M55.471,11.159 C55.626,11.521 55.574,11.987 55.497,12.246 C55.367,12.738 55.031,13.23 54.047,13.23 C53.115,13.23 52.572,12.686 52.572,11.883 L52.572,10.46 L48.612,10.46 L48.612,11.599 C48.612,14.887 51.2,15.896 53.995,15.896 C56.662,15.896 58.862,14.99 59.225,12.505 C59.405,11.236 59.275,10.382 59.198,10.071 C58.577,6.964 52.96,6.058 52.546,4.324 C52.468,4.013 52.494,3.702 52.52,3.547 C52.624,3.081 52.934,2.563 53.866,2.563 C54.72,2.563 55.238,3.107 55.238,3.909 L55.238,4.816 L58.939,4.816 L58.939,3.78 C58.939,0.57 56.04,0.052 53.944,0.052 C51.329,0.052 49.181,0.932 48.767,3.34 C48.663,3.987 48.637,4.583 48.793,5.333 C49.466,8.363 54.72,9.243 55.471,11.159 L55.471,11.159 Z M86.455,12.479 L86.248,0.466 L89.949,0.466 L89.949,15.223 L84.617,15.223 L80.864,2.822 L81.071,15.223 L77.395,15.223 L77.395,0.466 L82.935,0.466 L86.455,12.479 L86.455,12.479 Z M19.335,1.553 L17.265,15.379 L13.227,15.379 L15.971,0.466 L22.623,0.466 L25.367,15.379 L21.355,15.379 L19.335,1.553 L19.335,1.553 Z M41.131,1.553 L38.542,15.38 L34.763,15.38 L32.201,1.553 L32.097,15.379 L28.37,15.379 L28.68,0.466 L34.763,0.466 L36.653,12.116 L38.543,0.466 L44.625,0.466 L44.962,15.379 L41.234,15.379 L41.131,1.553 L41.131,1.553 Z M67.999,13.153 C69.034,13.153 69.371,12.427 69.423,12.065 C69.449,11.909 69.449,11.676 69.449,11.495 L69.449,0.44 L73.228,0.44 L73.228,11.16 C73.228,11.444 73.202,11.988 73.202,12.143 C72.943,14.94 70.742,15.846 67.999,15.846 C65.255,15.846 63.055,14.94 62.796,12.143 C62.77,11.988 62.744,11.444 62.77,11.16 L62.77,0.44 L66.55,0.44 L66.55,11.495 C66.55,11.676 66.55,11.909 66.575,12.065 C66.653,12.453 66.964,13.152 67.999,13.152 L67.999,13.153 Z M99.164,12.997 C100.251,12.997 100.614,12.297 100.691,11.909 C100.717,11.729 100.743,11.521 100.717,11.339 L100.717,9.165 L99.19,9.165 L99.19,6.99 L104.47,6.99 L104.47,11.003 C104.47,11.288 104.47,11.495 104.419,11.987 C104.16,14.706 101.804,15.663 99.164,15.663 C96.524,15.663 94.168,14.706 93.91,11.987 C93.858,11.495 93.858,11.288 93.858,11.003 L93.858,4.712 C93.858,4.453 93.884,3.987 93.91,3.728 C94.246,0.932 96.498,0.052 99.164,0.052 C101.804,0.052 104.134,0.932 104.393,3.728 C104.445,4.194 104.419,4.712 104.419,4.712 L104.419,5.204 L100.639,5.204 L100.639,4.375 C100.639,4.375 100.639,4.013 100.588,3.805 C100.51,3.469 100.226,2.718 99.087,2.718 C97.999,2.718 97.689,3.443 97.611,3.806 C97.559,4.013 97.559,4.272 97.559,4.505 L97.559,11.34 C97.559,11.521 97.559,11.728 97.585,11.91 C97.689,12.324 98.077,12.997 99.165,12.997 L99.164,12.997 Z" id="Shape"></path>
        </g>
    </g>
</svg>