<?xml version="1.0" encoding="UTF-8"?>
<svg width="96px" height="96px" viewBox="0 0 96 96" version="1.1" xmlns="http://www.w3.org/2000/svg" xmlns:xlink="http://www.w3.org/1999/xlink">
    <title>Icon / Bold / Action / Search</title>
    <g id="Symbols" stroke="none" stroke-width="1" fill="none" fill-rule="evenodd">
        <g id="*Icon-/-Bold-/-Action-/-Search" fill="#000000" fill-rule="nonzero">
            <path d="M40.58125,4.09035 C60.70725,4.09035 77.08125,20.46435 77.08125,40.59035 C77.08125,49.1780546 74.1000299,57.0826312 69.1181787,63.3234907 L91.91875,86.27065 L86.24375,91.90965 L63.4771364,68.9966068 C57.2112207,74.0569543 49.2437772,77.09035 40.58125,77.09035 C20.45525,77.09035 4.08125,60.71635 4.08125,40.59035 C4.08125,20.46435 20.45525,4.09035 40.58125,4.09035 Z M40.58125,12.09035 C24.86625,12.09035 12.08125,24.87535 12.08125,40.59035 C12.08125,56.30535 24.86625,69.09035 40.58125,69.09035 C56.29625,69.09035 69.08125,56.30535 69.08125,40.59035 C69.08125,24.87535 56.29625,12.09035 40.58125,12.09035 Z" id="Icon-/-Bold-/-Action-/-Search"></path>
        </g>
    </g>
</svg>