<?xml version="1.0" encoding="utf-8"?>
<!-- Generator: Adobe Illustrator 22.1.0, SVG Export Plug-In . SVG Version: 6.00 Build 0)  -->
<svg version="1.1" id="Layer_1" xmlns="http://www.w3.org/2000/svg" xmlns:xlink="http://www.w3.org/1999/xlink" x="0px" y="0px"
	 viewBox="0 0 40 40" style="enable-background:new 0 0 40 40;" xml:space="preserve">
<style type="text/css">
	.st0{fill:#FFFFFF;}
</style>
<g>
	<path class="st0" d="M27,10H13.1c-1.4,0-1.8,0.5-1.8,2v8.4c2.9,1.5,5.5,1.3,6.9,1.2c0.6,0,1,0.1,1.2,0.3c0,0,0.1,0.1,0.1,0.1
		c0.3,0.2,0.5,0.5,0.8,0.6c0.1-0.7,0.4-1.1,1.5-1.1c1.4,0,4,0.3,7-1.3V12C28.8,10.6,28.3,10,27,10z M17,20.6c-1.5,0-2.7-1.1-2.7-2.5
		s1.2-2.5,2.7-2.5c1.5,0,2.7,1.1,2.7,2.5S18.5,20.6,17,20.6z M23.3,20.6c-1.5,0-2.7-1.1-2.7-2.5c0-1.4,1.2-2.5,2.7-2.5
		c1.5,0,2.7,1.1,2.7,2.5C26,19.4,24.8,20.6,23.3,20.6z"/>
	<path class="st0" d="M20,0C9,0,0,9,0,20c0,11,9,20,20,20s20-9,20-20C40,9,31,0,20,0z M30.8,20.2c-0.8,1-2.3,2.2-4.6,3.1
		c2.5,8.3-6,9.7-5.9,5.4c0,0.1,0-2.3,0-4.1c-0.2,0-0.4-0.1-0.6-0.1c0,1.8,0,4.3,0,4.2c0.1,4.3-8.3,3-5.9-5.4c-2.3-1-3.8-2.2-4.6-3.1
		c-0.4-0.6,0-1.2,0.7-0.8c0.1,0.1,0.2,0.1,0.3,0.2V11c0-1.2,0.9-2.2,2-2.2h15.6c1.1,0,2,1,2,2.2v8.6c0.1-0.1,0.2-0.1,0.3-0.2
		C30.8,19,31.2,19.6,30.8,20.2z"/>
</g>
</svg>
