<?xml version="1.0" encoding="UTF-8"?>
<svg width="96px" height="96px" viewBox="0 0 96 96" version="1.1" xmlns="http://www.w3.org/2000/svg" xmlns:xlink="http://www.w3.org/1999/xlink">
    <title>Icon / Bold / Human / User</title>
    <g id="Symbols" stroke="none" stroke-width="1" fill="none" fill-rule="evenodd">
        <g id="*Icon-/-Bold-/-Human-/-User" fill="#000000" fill-rule="nonzero">
            <path d="M48,50 C65.346,50 80,64.221 80,81.054 L80,89 C80,91.757 77.757,94 75,94 L21,94 C18.243,94 16,91.757 16,89 L16,81.054 C16,64.221 30.654,50 48,50 Z M48,58 C35.215,58 24,68.773 24,81.054 L24,86 L72,86 L72,81.054 C72,68.773 60.785,58 48,58 Z M47.9985,2 C60.1305,2 70.0005,11.87 70.0005,24.001 C70.0005,36.131 60.1305,46 47.9985,46 C35.8685,46 26.0005,36.131 26.0005,24.001 C26.0005,11.87 35.8685,2 47.9985,2 Z M47.9985,10 C40.2795,10 34.0005,16.281 34.0005,24.001 C34.0005,31.72 40.2795,38 47.9985,38 C55.7185,38 62.0005,31.72 62.0005,24.001 C62.0005,16.281 55.7185,10 47.9985,10 Z" id="Icon-/-Bold-/-Human-/-User"></path>
        </g>
    </g>
</svg>