<svg width="19" height="20" viewBox="0 0 19 20" fill="none" xmlns="http://www.w3.org/2000/svg">
<path d="M13.877 3.95964H13.0869V5.42601H11.6516V6.23318H13.0869V7.69955H13.877V6.23318H15.3123V5.42601H13.877V3.95964ZM6.79255 15.7175C5.91029 15.7175 5.18605 16.4574 5.18605 17.3587C5.18605 18.2601 5.91029 19 6.79255 19C7.67482 19 8.39906 18.2601 8.39906 17.3587C8.39906 16.4574 7.67482 15.7175 6.79255 15.7175ZM6.79255 18.1794C6.34484 18.1794 5.97613 17.8027 5.97613 17.3453C5.97613 16.8879 6.34484 16.5112 6.79255 16.5112C7.24027 16.5112 7.60898 16.8879 7.60898 17.3453C7.60898 17.8027 7.24027 18.1794 6.79255 18.1794ZM13.4424 1C10.9142 1 8.84678 3.11211 8.84678 5.69507C8.84678 8.27803 10.9142 10.3901 13.4424 10.3901C13.5478 10.3901 13.64 10.3901 13.7453 10.3767L12.9157 13.8072H5.71277L3.7639 4.84753C3.72439 4.65919 3.56637 4.52466 3.38202 4.52466H1.05127V5.33184H3.06599L5.01486 14.2915C5.05437 14.4798 5.21238 14.6143 5.39674 14.6143H13.2317C13.4161 14.6143 13.5741 14.4933 13.6136 14.3049L14.6012 10.2422C16.5764 9.71749 18.0513 7.87444 18.0513 5.69507C18.0381 3.11211 15.9839 1 13.4424 1ZM13.4424 9.58296C11.3487 9.58296 9.63686 7.83408 9.63686 5.69507C9.63686 3.55605 11.3487 1.80717 13.4424 1.80717C15.5493 1.80717 17.248 3.55605 17.248 5.69507C17.248 7.83408 15.5493 9.58296 13.4424 9.58296ZM11.5594 15.7175C10.6771 15.7175 9.9529 16.4574 9.9529 17.3587C9.9529 18.2601 10.6771 19 11.5594 19C12.4417 19 13.1659 18.2601 13.1659 17.3587C13.1659 16.4574 12.4417 15.7175 11.5594 15.7175ZM11.5594 18.1794C11.1117 18.1794 10.743 17.8027 10.743 17.3453C10.743 16.8879 11.1117 16.5112 11.5594 16.5112C12.0071 16.5112 12.3758 16.8879 12.3758 17.3453C12.3758 17.8027 12.0071 18.1794 11.5594 18.1794Z" fill="#4186AD" stroke="#4186AD" stroke-width="0.3"/>
</svg>
