<svg width="39" height="39" viewBox="0 0 39 39" fill="none" xmlns="http://www.w3.org/2000/svg">
  <path d="M19.5589 32.1742C12.5374 32.1742 6.82495 26.4882 6.82495 19.4992C6.82495 12.5102 12.5374 6.82422 19.5589 6.82422C23.2447 6.82422 26.7479 8.41248 29.1697 11.183C29.3788 11.4222 29.3534 11.7857 29.1131 11.9938C28.8727 12.202 28.5076 12.1767 28.2985 11.9375C26.0963 9.41879 22.9119 7.97315 19.56 7.97315C13.174 7.9743 7.98038 13.1439 7.98038 19.4992C7.98038 25.8545 13.174 31.0241 19.5589 31.0241C22.6935 31.0241 25.6295 29.797 27.8248 27.5693C27.8421 27.5521 27.8594 27.536 27.8791 27.521C27.901 27.5038 30.1241 25.7154 31.0449 22.7033C31.1374 22.3997 31.4609 22.2284 31.7659 22.3204C32.071 22.4124 32.2431 22.7344 32.1507 23.038C31.1697 26.2444 28.9282 28.1535 28.6266 28.3985C26.2141 30.8332 22.9963 32.1731 19.56 32.1731L19.5589 32.1742Z" fill="#343434"/>
  <path d="M19.4156 28.3379C19.3313 28.3379 19.2469 28.3195 19.1695 28.2827L11.7979 24.8279C11.5957 24.7336 11.4663 24.53 11.4663 24.3081V15.6917C11.4663 15.495 11.568 15.3122 11.7344 15.2064C11.9019 15.1006 12.111 15.0879 12.2901 15.1719L19.4098 18.5082L26.689 14.9534C26.8681 14.8659 27.0796 14.8763 27.2494 14.9821C27.4181 15.0868 27.5221 15.2719 27.5221 15.4697V24.3092C27.5221 24.5335 27.3915 24.7371 27.1859 24.8314L19.6571 28.2862C19.5809 28.3218 19.4977 28.3391 19.4156 28.3391V28.3379ZM12.6217 23.9435L19.4179 27.1281L26.3667 23.9401V16.3921L19.6698 19.6629C19.5127 19.74 19.3278 19.7411 19.1695 19.6664L12.6217 16.598V23.9435Z" fill="#343434"/>
  <path d="M18.8433 19.0772L18.6936 27.5312L19.8488 27.5515L19.9986 19.0975L18.8433 19.0772Z" fill="#343434"/>
  <path d="M12.1918 16.201L11.7412 15.151L19.3173 11.8111C19.4583 11.749 19.6177 11.7479 19.7599 11.8077L27.2632 14.983L26.8276 16.04L19.5461 12.9578L12.1907 16.1998L12.1918 16.201Z" fill="#343434"/>
  <path d="M22.9779 13.2255L15.0806 16.8594L15.5654 17.9033L23.4627 14.2694L22.9779 13.2255Z" fill="#343434"/>
  <path d="M25.7706 13.1721C25.4598 13.1721 25.2021 12.926 25.1929 12.6143C25.1836 12.2969 25.4344 12.0324 25.7533 12.0232L29.1826 11.9243L29.2126 8.56263C29.2149 8.24635 29.4737 7.99219 29.7903 7.99219H29.7961C30.115 7.99449 30.3715 8.25441 30.3692 8.57183L30.3345 12.4867C30.3322 12.7961 30.0838 13.0479 29.7741 13.056L25.7891 13.171C25.7891 13.171 25.7775 13.171 25.7717 13.171L25.7706 13.1721Z" fill="#343434"/>
  <path d="M22.9132 23.8006C22.6948 23.8006 22.4857 23.6764 22.3886 23.4659C22.2546 23.1773 22.3817 22.8357 22.6705 22.7023L24.6891 21.7753C24.9791 21.6431 25.3222 21.7684 25.4551 22.0559C25.5891 22.3446 25.462 22.6862 25.1732 22.8196L23.1547 23.7466C23.0761 23.7822 22.9941 23.7995 22.9132 23.7995V23.8006Z" fill="#343434"/>
</svg>
