<svg viewBox="0 0 17 20" fill="none" xmlns="http://www.w3.org/2000/svg">
<path d="M7.36791 11.1713C7.12244 11.1363 6.90036 11.0896 6.68996 11.0663C5.40421 10.9263 4.10677 11.8363 3.87299 13.0846C3.63922 14.3329 4.03663 15.3479 5.18212 16.0245C6.24579 16.6545 7.94065 16.3862 8.74717 15.0562C8.99263 14.6479 9.06276 14.2046 9.07445 13.7496C9.08614 12.1746 9.09783 10.6113 9.10952 9.03632C9.12121 6.32971 9.10952 3.61142 9.12121 0.904803C9.12121 0.834804 9.12121 0.753139 9.12121 0.671474C9.17965 0.659808 9.2264 0.648141 9.27316 0.648141C10.1849 0.648141 11.0966 0.648141 12.0083 0.636475C12.1486 0.636475 12.1836 0.68314 12.1953 0.823138C12.2771 1.94312 12.6512 2.94643 13.4226 3.78642C13.8902 4.28808 14.4629 4.64974 15.1058 4.8714C15.6669 5.05806 16.2396 5.19806 16.8357 5.36139C16.8357 6.34137 16.8357 7.36802 16.8357 8.418C15.1993 8.35967 13.6915 7.92801 12.3005 6.93636C12.3005 7.05303 12.3005 7.12303 12.3005 7.19302C12.3005 9.29299 12.3005 11.4046 12.2888 13.5046C12.2771 15.0679 11.7278 16.4445 10.6407 17.5528C9.07445 19.1395 7.1692 19.6878 5.00679 19.1861C3.62753 18.8711 2.50542 18.0895 1.67552 16.9578C0.857317 15.8379 0.483279 14.5779 0.5651 13.1779C0.670298 11.3346 1.4885 9.88798 2.94959 8.77966C4.02495 7.96301 5.25226 7.62468 6.59645 7.63635C6.80685 7.63635 7.01725 7.68302 7.22764 7.69468C7.37959 7.69468 7.40297 7.77635 7.40297 7.90468C7.39128 8.82633 7.37959 9.75964 7.36791 10.6813C7.36791 10.8446 7.36791 11.008 7.36791 11.1713Z" fill="black"/>
</svg>
