<svg width="21" height="20" id="Layer_1" fill="#4186AD" data-name="Layer 1" xmlns="http://www.w3.org/2000/svg" viewBox="0 0 21 20">
  <path class="cls-1" d="M12.4,15.36a.59.59,0,0,0,.65.28.57.57,0,0,0,.47-.59V9a.6.6,0,1,0-1.19,0v6.07A.78.78,0,0,0,12.4,15.36Zm5-10.21a2,2,0,0,0-2.06-1.94H13.55c-.27,0-.27,0-.31-.25a1.81,1.81,0,0,0-1.73-1.45c-.66,0-1.33,0-2,0A1.79,1.79,0,0,0,7.74,3.07c0,.12-.06.14-.17.14-.68,0-1.37,0-2.05,0A2,2,0,0,0,3.65,4.81a7.75,7.75,0,0,0,0,1.08.57.57,0,0,0,.62.58h.32v9.88A2.23,2.23,0,0,0,6.83,18.5h7.35A2.29,2.29,0,0,0,15.66,18a2.07,2.07,0,0,0,.78-1.65V6.47h.32a.58.58,0,0,0,.62-.58ZM9.53,2.64c.65,0,1.3,0,1.94,0a.6.6,0,0,1,.58.55H8.94A.61.61,0,0,1,9.53,2.64Zm5.71,4v9.6a1.09,1.09,0,0,1-1.19,1.13H7a1.09,1.09,0,0,1-1.2-1.13V6.48h9.48v.17Zm.93-1.38c-.06.17-.23.06-.35.06H5.36l-.44,0c-.08,0-.11,0-.11-.11,0-.56.33-.91,1-.91h9.48a.86.86,0,0,1,.89.55v0A.94.94,0,0,1,16.17,5.27ZM9.91,15.18a.58.58,0,0,0,.45.46.59.59,0,0,0,.6-.19A.65.65,0,0,0,11.1,15V10.78c0-.28,0-1.55,0-1.83a.6.6,0,0,0-.86-.52A.59.59,0,0,0,9.89,9c0,1.66,0,4.33,0,6A.91.91,0,0,0,9.91,15.18Zm-2.23.34a.62.62,0,0,0,.63.09.56.56,0,0,0,.36-.54V12.52c0-.84,0-2.68,0-3.53a.78.78,0,0,0-.12-.39.6.6,0,0,0-.66-.19A.56.56,0,0,0,7.47,9V15A.59.59,0,0,0,7.68,15.52Z"/>
</svg>