<svg viewBox="0 0 19 20" fill="none" xmlns="http://www.w3.org/2000/svg">
<path d="M18.5493 10.0607C18.5493 12.3359 18.5493 14.6111 18.5493 16.8863C18.5493 18.2948 17.7042 19.1507 16.3066 19.1507C11.702 19.1507 7.09742 19.1507 2.50368 19.1507C1.12773 19.1398 0.260986 18.2948 0.260986 16.9296C0.260986 12.3142 0.260986 7.688 0.260986 3.07259C0.260986 1.72914 1.12773 0.851562 2.44951 0.851562C7.08659 0.851562 11.7237 0.851562 16.3607 0.851562C17.6825 0.851562 18.5384 1.72914 18.5493 3.07259C18.5601 5.40196 18.5493 7.73133 18.5493 10.0607ZM7.55246 8.12137C7.55246 10.9708 7.55246 13.766 7.55246 16.5829C8.49504 16.5829 9.38345 16.5829 10.3044 16.5829C10.3152 16.4204 10.3369 16.2796 10.3369 16.1387C10.3369 14.6544 10.326 13.181 10.3477 11.6967C10.3585 10.8083 10.9761 10.1582 11.767 10.169C12.5904 10.1799 13.1538 10.7974 13.1538 11.7075C13.1538 12.7043 13.1538 13.6902 13.1538 14.6869C13.1538 15.3153 13.1538 15.9329 13.1538 16.5613C14.1505 16.5613 15.0715 16.5613 15.9707 16.5613C15.9707 14.5786 16.0574 12.6501 15.949 10.7216C15.8407 8.83643 13.728 7.43881 11.9837 8.02386C11.3878 8.21888 10.8786 8.65225 10.326 8.97728C10.326 8.73892 10.326 8.43556 10.326 8.12137C9.38345 8.12137 8.48421 8.12137 7.55246 8.12137ZM5.60229 16.5829C5.60229 13.7335 5.60229 10.9274 5.60229 8.12137C4.65971 8.12137 3.76046 8.12137 2.82871 8.12137C2.82871 10.9491 2.82871 13.7444 2.82871 16.5829C3.74963 16.5829 4.64887 16.5829 5.60229 16.5829ZM5.90565 4.78441C5.89481 3.80932 5.15808 3.08343 4.19383 3.09426C3.22958 3.10509 2.49285 3.85266 2.50368 4.81691C2.50368 5.78116 3.24041 6.50706 4.22633 6.49622C5.19059 6.48539 5.90565 5.75949 5.90565 4.78441Z" fill="#0066AD"/>
</svg>
