<?xml version="1.0" encoding="utf-8"?>
<!-- Generator: Adobe Illustrator 16.0.3, SVG Export Plug-In . SVG Version: 6.00 Build 0)  -->
<!DOCTYPE svg PUBLIC "-//W3C//DTD SVG 1.1//EN" "http://www.w3.org/Graphics/SVG/1.1/DTD/svg11.dtd">
<svg version="1.1" id="Ebene_1" xmlns="http://www.w3.org/2000/svg" xmlns:xlink="http://www.w3.org/1999/xlink" x="0px" y="0px"
     width="132.865px" height="49px" viewBox="-8.433 62.5 132.865 49" enable-background="new -8.433 62.5 132.865 49"
     xml:space="preserve">
<path fill="#008243" d="M105.866,109.563V88.666h4.55v16.717h10.402v4.086h-14.952V109.563z M101.872,84.581h-4.363v-8.359h-8.543
	v-4.363h8.543v-8.266h4.363v8.266h8.544v4.363h-8.544V84.581z M101.872,88.666v4.088H90.544v4.271h10.122v4.085H90.544v4.365h11.422
	v4.087H85.994V88.759h15.878V88.666z M77.449,95.911l-5.665,8.915l-5.572-8.823v13.56h-4.457V88.666h4.828l5.292,8.822l5.204-8.822
	h4.923v20.991h-4.551L77.449,95.911z M67.327,71.302v13.279h-4.55V63.686h4.272l10.309,12.816V63.686h4.55v20.896h-3.9
	L67.327,71.302z M44.202,71.302v13.279h-4.55V63.686h4.272l10.308,12.816V63.686h4.551v20.896h-3.901L44.202,71.302z M31.015,79.938
	h-9.101l-1.857,4.644h-4.644L24.422,63.5h4.271l9.008,21.081h-4.736L31.015,79.938z M26.465,69.164l-2.972,6.688h5.85L26.465,69.164
	z M19.78,101.11c0,2.323,1.485,4.552,4.271,4.552h0.373c2.878,0,4.271-2.229,4.271-4.552V88.759h4.551v12.167
	c0,2.972-1.393,9.008-8.452,9.008h-1.208c-5.943,0-8.543-4.365-8.543-9.008V88.759h4.644v12.352H19.78z M9.007,70.929l-5.943,8.915
	l-5.944-8.823v13.563h-4.458V63.688h4.922l5.572,8.822l5.387-8.822h4.922v20.989H8.914V70.931L9.007,70.929z M-2.789,97.025h9.288
	v-8.359h4.55v20.991h-4.55v-8.454h-9.288v8.454h-4.55V88.666h4.55V97.025z M47.64,97.488l5.107-8.822h4.922v20.991h-4.551V95.911
	l-5.665,8.916l-5.572-8.823v13.561h-4.55V88.668h4.922L47.64,97.488z"/>
</svg>
