<svg xmlns="http://www.w3.org/2000/svg" width="187.2" height="187.2" viewBox="0 0 187.2 187.2"><path d="M106.2 65.1H47.9v7.2h58.3v-7.2zm-58.3 62.2h33.6v-7.2H47.9v7.2zm87.4-4h-7.2v13.1H115v7.2h13.1v13.1h7.2v-13.1h13.1v-7.2h-13.1v-13.1zm-29.1-30.7H47.9v7.2h58.3v-7.2zm27.6 4.2V25.5h-28.4V19h-14V9.2h-31V19H46.5v6.5H19.3v131.8h73.3c6.8 14.6 21.6 24.7 38.8 24.7 23.5 0 42.7-19.1 42.7-42.7-.2-22.6-18-41.2-40.3-42.5zM53.7 32.7h.3v-6.5h13.7v-9.8h16.6v9.8h13.9v12.2H53.7v-5.7zM90 150.1H26.5V32.7h20v13h58.8v-13h21.2v64.2c-21.4 2.3-38 20.4-38 42.4 0 3.7.5 7.3 1.5 10.8zm41.3 24.7c-19.6 0-35.5-16-35.5-35.5s16-35.5 35.5-35.5c19.6 0 35.5 16 35.5 35.5s-16 35.5-35.5 35.5z" fill="#4187ae"/></svg>