<svg xmlns="http://www.w3.org/2000/svg" width="187.2" height="187.2" viewBox="0 0 187.2 187.2"><path d="M124.8 86c0-17.2-13.9-31.2-31.2-31.2-17.2 0-31.2 13.9-31.2 31.2 0 12 6.7 22.3 16.7 27.6-11.2 2.8-21.5 8.5-29.9 16.9l5 5c10.8-10.8 25.1-16.7 40.2-16.7 15.2 0 29.5 5.9 40.2 16.7l5-5c-8.8-8.8-19.4-14.5-31.2-17.2 9.9-5.3 16.4-15.5 16.4-27.3zm-31.1 24c-13.2 0-24-10.8-24-24s10.8-24 24-24 24 10.8 24 24-10.8 24-24 24zm-.1-94.6c-43.2 0-78.2 35-78.2 78.2s35 78.2 78.2 78.2 78.2-35 78.2-78.2-35-78.2-78.2-78.2zm0 149.2c-39.2 0-71-31.9-71-71s31.9-71 71-71c39.2 0 71 31.9 71 71s-31.8 71-71 71z" fill="#4187ae"/></svg>