<svg xmlns="http://www.w3.org/2000/svg" width="187.2" height="187.2" viewBox="0 0 187.2 187.2"><path d="M130.6 130H56.4v7.2h74.3V130zm0-26.1H56.4v7.2h74.3v-7.2zM93.4 78.3H56.2v7.2h37.2v-7.2zm0-24.3H56.2v7.2h37.2V54zm59.8-37.1H32c-.8 0-1.6.7-1.6 1.6v148.4c0 .8.7 1.6 1.6 1.6h121.3c.8 0 1.6-.7 1.6-1.6V18.4c-.1-.8-.9-1.5-1.7-1.5zm-5.7 144.2H37.6v-137h109.9v137zm-38.2-85.8l-3 4.3c3.2 2.5 7 4.2 11 4.7V89h4.1v-4.7c6-.5 10-4 10-9.1 0-5-3-7.9-10.2-9.7v-8.9c2.2.5 4.3 1.4 6.4 3l2.6-4.4c-2.6-1.9-5.4-3.1-8.9-3.6v-2.9h-4.1v2.8c-5.9.5-9.8 4-9.8 9 0 5.3 3.2 7.9 10.1 9.7v9.2c-3.1-.5-5.6-1.9-8.2-4.1zm12-4.3c3.7 1.1 4.7 2.4 4.7 4.4 0 2.3-1.7 3.8-4.7 4.1V71zM113 60.1c0-2 1.6-3.7 4.6-4v8.3c-3.6-1.1-4.6-2.3-4.6-4.3z" fill="#4187ae"/></svg>