<svg xmlns="http://www.w3.org/2000/svg" width="187.2" height="187.2" viewBox="0 0 187.2 187.2"><path d="M115.7 41.7H46.2v7.2h69.5v-7.2zM60.9 146.8c-8 0-14.6 6.6-14.6 14.6S52.9 176 60.9 176s14.6-6.6 14.6-14.6-6.6-14.6-14.6-14.6zm0 22.1c-4.1 0-7.4-3.4-7.4-7.4 0-4.1 3.4-7.4 7.4-7.4s7.4 3.4 7.4 7.4-3.3 7.4-7.4 7.4zm82.2-142.1L127.8 53c-.8 1.4-.6 3.4.7 4.6L147 73.8l4.8-5.4-16.3-14.3 13.8-23.6-6.2-3.7zm37.5 20C177 21.6 153.6 4 128.4 7.6c-12.4 1.8-24.2 9-31.8 19.2H60.9V34h39.2v-1.4l1 .6c6.2-9.6 17.4-16.9 28.4-18.5 10.3-1.4 20.5 1.2 28.9 7.4 8.3 6.2 13.7 15.4 15.2 25.7 3 21.2-11.9 41-33.1 44-10.3 1.4-20.5-1.2-28.9-7.4-7-5-11.9-12.2-14.2-20.4h5.5v-7.2H65.7V64H90c2.5 10.4 8.5 19.7 17.2 26.3 5.2 4 11 6.6 17.3 8l-8.2 29.9H50.6L32.8 48.3c-.4-1.7-1.8-2.8-3.5-2.8H8.1v7.2h18.4l17.8 79.9c.4 1.7 1.8 2.8 3.5 2.8h71.4c1.7 0 3-1.1 3.5-2.6l9-32.9-3.4-1c2.3.4 4.4.5 6.7.5 2.2 0 4.4-.1 6.6-.5 25.1-3.5 42.6-26.9 39-52.1zm-76.3 100c-8 0-14.6 6.6-14.6 14.6s6.6 14.6 14.6 14.6 14.6-6.6 14.6-14.6c.1-8-6.4-14.6-14.6-14.6zm0 22.1c-4.1 0-7.4-3.4-7.4-7.4 0-4.1 3.4-7.4 7.4-7.4s7.4 3.4 7.4 7.4c.1 4-3.2 7.4-7.4 7.4z" fill="#4187ae"/></svg>