<svg xmlns="http://www.w3.org/2000/svg" width="187.2" height="187.2" viewBox="0 0 187.2 187.2"><path d="M93.6 9.2c-33.8 0-61.2 27.4-61.2 61.2 0 46.3 45.8 81 61.2 107.4 14.9-26.4 61.2-60.2 61.2-107.4 0-33.7-27.4-61.2-61.2-61.2zm0 155.7c-4.2-5.6-9.1-11.4-14.2-17.5-18.6-22.1-39.7-47-39.7-76.9 0-29.8 24.2-54 54-54s54 24.2 54 54c0 30.2-20.9 54.8-39.4 76.6-5.5 6-10.5 12-14.7 17.8zm0-119.9c-13.3 0-24.2 10.8-24.2 24.2 0 13.3 10.8 24.2 24.2 24.2s24.2-10.8 24.2-24.2c0-13.4-10.9-24.2-24.2-24.2zm0 41.3c-9.4 0-17-7.7-17-17s7.7-17 17-17 17 7.7 17 17-7.6 17-17 17z" fill="#4187ae"/></svg>