<svg xmlns="http://www.w3.org/2000/svg" width="187.2" height="187.2" viewBox="0 0 187.2 187.2"><path d="M54.5 107.5c-1.8-.8-4-.1-4.8 1.7l-5.9 12-2.6-3.4c-1.2-1.6-3.5-1.9-5-.6-1.6 1.2-1.9 3.5-.6 5l6.1 7.9c.7.8 1.8 1.4 2.9 1.4h.4c1.2-.1 2.3-.8 2.9-2l8.5-17.2c.6-1.8-.1-4-1.9-4.8zm58.9-41.3H65.2v7.2h48.2v-7.2zM54.5 80.3c-1.8-.8-4-.1-4.8 1.7l-5.9 12-2.6-3.4c-1.2-1.6-3.5-1.9-5-.6-1.6 1.3-1.9 3.5-.6 5l6.1 7.9c.7.8 1.8 1.4 2.9 1.4h.4c1.2-.1 2.3-.8 2.9-2l8.5-17.2c.6-1.7-.1-3.9-1.9-4.8zm0-27.1c-1.8-.8-4-.1-4.8 1.7l-5.9 12-2.6-3.4c-1.2-1.6-3.5-1.9-5-.6-1.6 1.2-1.9 3.5-.6 5l6.1 7.9c.7.8 1.8 1.4 2.9 1.4h.4c1.2-.1 2.3-.8 2.9-2L56.4 58c.6-1.8-.1-3.9-1.9-4.8zm119.7-1.5l-11.8-8.3c-1.3-1-2.9-1.4-4.4-1.4-.5 0-.8 0-1.3.1-2 .4-3.8 1.4-5 3.2l-11.5 16.1v-42c0-.8-.7-1.6-1.6-1.6H17.2c-.8 0-1.6.7-1.6 1.6v148.4c0 .8.7 1.6 1.6 1.6h121.3c.8 0 1.6-.7 1.6-1.6v-55l36-50.3c2.5-3.5 1.6-8.3-1.9-10.8zm-41.4 110.4H22.9v-137h109.9v46.3l-19.4 27v-6H65.2v7.2h47.4l-13.7 19.2H65.2v7.2H95l-1.8 14.9c-.4 2.9 1 5.6 3.2 7.3 1.3 1 2.9 1.4 4.4 1.4 1.2 0 2.4-.2 3.5-.8L118 142c1.2-.6 2.2-1.4 2.9-2.5l11.9-16.6v39.2zM114.6 135l-13.3 5.9 1.4-14.3L148.3 63l11.8 8.3-45.5 63.7zm50.2-70L153 56.8l5-7 11.8 8.3-5 6.9z" fill="#4187ae"/></svg>