<svg xmlns="http://www.w3.org/2000/svg" width="187.2" height="187.2" viewBox="0 0 187.2 187.2"><path d="M134.1 39.7h-7.2v13.1h-13.1V60h13.1v13.1h7.2V60h13.1v-7.2h-13.1V39.7zM69.5 144.6c-8 0-14.6 6.6-14.6 14.6s6.6 14.6 14.6 14.6 14.6-6.6 14.6-14.6-6.5-14.6-14.6-14.6zm0 22.1c-4.1 0-7.4-3.4-7.4-7.4 0-4.1 3.4-7.4 7.4-7.4s7.4 3.4 7.4 7.4-3.3 7.4-7.4 7.4zm60.6-153.4c-23 0-41.9 18.8-41.9 41.9s18.8 41.9 41.9 41.9c1 0 1.8 0 2.8-.1l-7.6 30.6H59.7l-17.8-80c-.4-1.7-1.8-2.9-3.5-2.9H17.2V52h18.4l17.8 79.9c.4 1.7 1.8 2.9 3.5 2.9h71.4c1.7 0 3.1-1.1 3.5-2.8l9-36.2c18-4.7 31.4-21.1 31.4-40.6-.2-23-18.9-41.9-42.1-41.9zm0 76.6c-19.1 0-34.7-15.6-34.7-34.7s15.6-34.7 34.7-34.7 34.7 15.6 34.7 34.7c0 19.2-15.6 34.7-34.7 34.7zM113 144.6c-8 0-14.6 6.6-14.6 14.6s6.6 14.6 14.6 14.6 14.6-6.6 14.6-14.6-6.6-14.6-14.6-14.6zm0 22.1c-4.1 0-7.4-3.4-7.4-7.4 0-4.1 3.4-7.4 7.4-7.4 4.1 0 7.4 3.4 7.4 7.4s-3.4 7.4-7.4 7.4z" fill="#4187ae"/></svg>