<svg xmlns="http://www.w3.org/2000/svg" width="187.2" height="187.2" viewBox="0 0 187.2 187.2"><path d="M38.7 92.8h21V71.9h-21v20.9zm7.2-13.7h6.6v6.6h-6.6v-6.6zm95.9 23V14.9c0-2.9-2.3-5.2-5-5.2H22.5c-2.8 0-5 2.3-5 5.2v147.8c0 2.9 2.3 5.2 5 5.2h79.4c7.6 10.6 20 17.4 34 17.4 23 0 41.9-18.8 41.9-41.9 0-20.9-15.8-38.5-36-41.3zM24.6 160.7V17.1h109.9v84.6c-4.6.1-9 1-13.1 2.5v-6h-21v21h1.3c-4.9 6.8-7.8 15.2-7.8 24.4 0 6.1 1.3 12 3.7 17.3h-73v-.2zm89.7-55.3v2.2c-2.4 1.4-4.6 3.1-6.6 4.9v-7.1h6.6zm21.6 72.7c-19.1 0-34.7-15.6-34.7-34.7s15.6-34.7 34.7-34.7 34.7 15.6 34.7 34.7-15.6 34.7-34.7 34.7zm-35.4-85.3h21V71.9h-21v20.9zm7.2-13.7h6.6v6.6h-6.6v-6.6zm-17.1-7.2h-21v21h21v-21zm-7.2 13.7h-6.6V79h6.6v6.6zm38.1-52.7H38.7v26.2h82.8V32.9zm-7.2 18.9H45.9V40h68.4v11.8zm-75.6 67.4h21v-21h-21v21zm7.2-13.8h6.6v6.6h-6.6v-6.6zm23.7 40.1H91v-21H69.6v21zm7.2-13.8h7v6.6h-7v-6.6zm56.1 19.7l-13.8-11.8-4.7 5.5 19.3 16.6 24-29-5.5-4.6-19.3 23.3zm-63.3-32.2h21v-21h-21v21zm7.2-13.8h6.6v6.6h-6.6v-6.6zm-38.1 40.1h21v-21h-21v21zm7.2-13.8h6.6v6.6h-6.6v-6.6z" fill="#4187ae"/></svg>