<svg width="85" height="85" viewBox="0 0 85 85" fill="none" xmlns="http://www.w3.org/2000/svg">
<path d="M3.40013 0H0.00012207V3.40001H3.40013V0Z" fill="black"/>
<path d="M6.79985 0H3.39984V3.40001H6.79985V0Z" fill="black"/>
<path d="M10.2 0H6.79996V3.40001H10.2V0Z" fill="black"/>
<path d="M13.6001 0H10.2001V3.40001H13.6001V0Z" fill="black"/>
<path d="M17 0H13.6V3.40001H17V0Z" fill="black"/>
<path d="M20.3999 0H16.9998V3.40001H20.3999V0Z" fill="black"/>
<path d="M23.7999 0H20.3999V3.40001H23.7999V0Z" fill="black"/>
<path d="M34.0001 0H30.6001V3.40001H34.0001V0Z" fill="black"/>
<path d="M51.0001 0H47.6001V3.40001H51.0001V0Z" fill="black"/>
<path d="M57.8001 0H54.4001V3.40001H57.8001V0Z" fill="black"/>
<path d="M64.6001 0H61.2001V3.40001H64.6001V0Z" fill="black"/>
<path d="M68.0002 0H64.6002V3.40001H68.0002V0Z" fill="black"/>
<path d="M71.4 0H68V3.40001H71.4V0Z" fill="black"/>
<path d="M74.8002 0H71.4001V3.40001H74.8002V0Z" fill="black"/>
<path d="M78.2003 0H74.8003V3.40001H78.2003V0Z" fill="black"/>
<path d="M81.6001 0H78.2001V3.40001H81.6001V0Z" fill="black"/>
<path d="M85 0H81.6V3.40001H85V0Z" fill="black"/>
<path d="M3.40001 3.3999H0V6.79991H3.40001V3.3999Z" fill="black"/>
<path d="M23.7999 3.3999H20.3999V6.79991H23.7999V3.3999Z" fill="black"/>
<path d="M34.0001 3.3999H30.6001V6.79991H34.0001V3.3999Z" fill="black"/>
<path d="M47.6003 3.3999H44.2003V6.79991H47.6003V3.3999Z" fill="black"/>
<path d="M51.0001 3.3999H47.6001V6.79991H51.0001V3.3999Z" fill="black"/>
<path d="M57.8001 3.3999H54.4001V6.79991H57.8001V3.3999Z" fill="black"/>
<path d="M64.6001 3.3999H61.2001V6.79991H64.6001V3.3999Z" fill="black"/>
<path d="M85 3.3999H81.6V6.79991H85V3.3999Z" fill="black"/>
<path d="M3.40001 6.80005H0V10.2001H3.40001V6.80005Z" fill="black"/>
<path d="M10.2 6.80005H6.79996V10.2001H10.2V6.80005Z" fill="black"/>
<path d="M13.6001 6.80005H10.2001V10.2001H13.6001V6.80005Z" fill="black"/>
<path d="M17 6.80005H13.6V10.2001H17V6.80005Z" fill="black"/>
<path d="M23.7999 6.80005H20.3999V10.2001H23.7999V6.80005Z" fill="black"/>
<path d="M34.0001 6.80005H30.6001V10.2001H34.0001V6.80005Z" fill="black"/>
<path d="M37.3999 6.80005H33.9999V10.2001H37.3999V6.80005Z" fill="black"/>
<path d="M51.0001 6.80005H47.6001V10.2001H51.0001V6.80005Z" fill="black"/>
<path d="M57.8001 6.80005H54.4001V10.2001H57.8001V6.80005Z" fill="black"/>
<path d="M64.6001 6.80005H61.2001V10.2001H64.6001V6.80005Z" fill="black"/>
<path d="M71.4 6.80005H68V10.2001H71.4V6.80005Z" fill="black"/>
<path d="M74.8002 6.80005H71.4001V10.2001H74.8002V6.80005Z" fill="black"/>
<path d="M78.2003 6.80005H74.8003V10.2001H78.2003V6.80005Z" fill="black"/>
<path d="M85 6.80005H81.6V10.2001H85V6.80005Z" fill="black"/>
<path d="M3.40001 10.2H0V13.6H3.40001V10.2Z" fill="black"/>
<path d="M10.2 10.2H6.79996V13.6H10.2V10.2Z" fill="black"/>
<path d="M13.6001 10.2H10.2001V13.6H13.6001V10.2Z" fill="black"/>
<path d="M17 10.2H13.6V13.6H17V10.2Z" fill="black"/>
<path d="M23.7999 10.2H20.3999V13.6H23.7999V10.2Z" fill="black"/>
<path d="M30.6002 10.2H27.2002V13.6H30.6002V10.2Z" fill="black"/>
<path d="M34.0001 10.2H30.6001V13.6H34.0001V10.2Z" fill="black"/>
<path d="M44.2001 10.2H40.8001V13.6H44.2001V10.2Z" fill="black"/>
<path d="M47.6003 10.2H44.2003V13.6H47.6003V10.2Z" fill="black"/>
<path d="M54.4002 10.2H51.0002V13.6H54.4002V10.2Z" fill="black"/>
<path d="M57.8001 10.2H54.4001V13.6H57.8001V10.2Z" fill="black"/>
<path d="M64.6001 10.2H61.2001V13.6H64.6001V10.2Z" fill="black"/>
<path d="M71.4 10.2H68V13.6H71.4V10.2Z" fill="black"/>
<path d="M74.8002 10.2H71.4001V13.6H74.8002V10.2Z" fill="black"/>
<path d="M78.2003 10.2H74.8003V13.6H78.2003V10.2Z" fill="black"/>
<path d="M85 10.2H81.6V13.6H85V10.2Z" fill="black"/>
<path d="M3.40001 13.6H0V17H3.40001V13.6Z" fill="black"/>
<path d="M10.2 13.6H6.79996V17H10.2V13.6Z" fill="black"/>
<path d="M13.6001 13.6H10.2001V17H13.6001V13.6Z" fill="black"/>
<path d="M17 13.6H13.6V17H17V13.6Z" fill="black"/>
<path d="M23.7999 13.6H20.3999V17H23.7999V13.6Z" fill="black"/>
<path d="M30.6002 13.6H27.2002V17H30.6002V13.6Z" fill="black"/>
<path d="M34.0001 13.6H30.6001V17H34.0001V13.6Z" fill="black"/>
<path d="M37.3999 13.6H33.9999V17H37.3999V13.6Z" fill="black"/>
<path d="M40.8001 13.6H37.4001V17H40.8001V13.6Z" fill="black"/>
<path d="M57.8001 13.6H54.4001V17H57.8001V13.6Z" fill="black"/>
<path d="M64.6001 13.6H61.2001V17H64.6001V13.6Z" fill="black"/>
<path d="M71.4 13.6H68V17H71.4V13.6Z" fill="black"/>
<path d="M74.8002 13.6H71.4001V17H74.8002V13.6Z" fill="black"/>
<path d="M78.2003 13.6H74.8003V17H78.2003V13.6Z" fill="black"/>
<path d="M85 13.6H81.6V17H85V13.6Z" fill="black"/>
<path d="M3.40001 16.9999H0V20.3999H3.40001V16.9999Z" fill="black"/>
<path d="M23.7999 16.9999H20.3999V20.3999H23.7999V16.9999Z" fill="black"/>
<path d="M34.0001 16.9999H30.6001V20.3999H34.0001V16.9999Z" fill="black"/>
<path d="M44.2001 16.9999H40.8001V20.3999H44.2001V16.9999Z" fill="black"/>
<path d="M64.6001 16.9999H61.2001V20.3999H64.6001V16.9999Z" fill="black"/>
<path d="M85 16.9999H81.6V20.3999H85V16.9999Z" fill="black"/>
<path d="M3.40001 20.3999H0V23.7999H3.40001V20.3999Z" fill="black"/>
<path d="M6.79985 20.3999H3.39984V23.7999H6.79985V20.3999Z" fill="black"/>
<path d="M10.2 20.3999H6.79996V23.7999H10.2V20.3999Z" fill="black"/>
<path d="M13.6001 20.3999H10.2001V23.7999H13.6001V20.3999Z" fill="black"/>
<path d="M17 20.3999H13.6V23.7999H17V20.3999Z" fill="black"/>
<path d="M20.3999 20.3999H16.9998V23.7999H20.3999V20.3999Z" fill="black"/>
<path d="M23.7999 20.3999H20.3999V23.7999H23.7999V20.3999Z" fill="black"/>
<path d="M30.6002 20.3999H27.2002V23.7999H30.6002V20.3999Z" fill="black"/>
<path d="M37.3999 20.3999H33.9999V23.7999H37.3999V20.3999Z" fill="black"/>
<path d="M44.2001 20.3999H40.8001V23.7999H44.2001V20.3999Z" fill="black"/>
<path d="M51.0001 20.3999H47.6001V23.7999H51.0001V20.3999Z" fill="black"/>
<path d="M57.8001 20.3999H54.4001V23.7999H57.8001V20.3999Z" fill="black"/>
<path d="M64.6001 20.3999H61.2001V23.7999H64.6001V20.3999Z" fill="black"/>
<path d="M68.0002 20.3999H64.6002V23.7999H68.0002V20.3999Z" fill="black"/>
<path d="M71.4 20.3999H68V23.7999H71.4V20.3999Z" fill="black"/>
<path d="M74.8002 20.3999H71.4001V23.7999H74.8002V20.3999Z" fill="black"/>
<path d="M78.2003 20.3999H74.8003V23.7999H78.2003V20.3999Z" fill="black"/>
<path d="M81.6001 20.3999H78.2001V23.7999H81.6001V20.3999Z" fill="black"/>
<path d="M85 20.3999H81.6V23.7999H85V20.3999Z" fill="black"/>
<path d="M37.3999 23.8H33.9999V27.2H37.3999V23.8Z" fill="black"/>
<path d="M40.8001 23.8H37.4001V27.2H40.8001V23.8Z" fill="black"/>
<path d="M51.0001 23.8H47.6001V27.2H51.0001V23.8Z" fill="black"/>
<path d="M57.8001 23.8H54.4001V27.2H57.8001V23.8Z" fill="black"/>
<path d="M3.40001 27.2001H0V30.6001H3.40001V27.2001Z" fill="black"/>
<path d="M6.79985 27.2001H3.39984V30.6001H6.79985V27.2001Z" fill="black"/>
<path d="M20.3999 27.2001H16.9998V30.6001H20.3999V27.2001Z" fill="black"/>
<path d="M23.7999 27.2001H20.3999V30.6001H23.7999V27.2001Z" fill="black"/>
<path d="M27.2 27.2001H23.8V30.6001H27.2V27.2001Z" fill="black"/>
<path d="M34.0001 27.2001H30.6001V30.6001H34.0001V27.2001Z" fill="black"/>
<path d="M40.8001 27.2001H37.4001V30.6001H40.8001V27.2001Z" fill="black"/>
<path d="M44.2001 27.2001H40.8001V30.6001H44.2001V27.2001Z" fill="black"/>
<path d="M47.6003 27.2001H44.2003V30.6001H47.6003V27.2001Z" fill="black"/>
<path d="M51.0001 27.2001H47.6001V30.6001H51.0001V27.2001Z" fill="black"/>
<path d="M54.4002 27.2001H51.0002V30.6001H54.4002V27.2001Z" fill="black"/>
<path d="M57.8001 27.2001H54.4001V30.6001H57.8001V27.2001Z" fill="black"/>
<path d="M71.4 27.2001H68V30.6001H71.4V27.2001Z" fill="black"/>
<path d="M74.8002 27.2001H71.4001V30.6001H74.8002V27.2001Z" fill="black"/>
<path d="M3.40001 30.6H0V34H3.40001V30.6Z" fill="black"/>
<path d="M6.79985 30.6H3.39984V34H6.79985V30.6Z" fill="black"/>
<path d="M10.2 30.6H6.79996V34H10.2V30.6Z" fill="black"/>
<path d="M13.6001 30.6H10.2001V34H13.6001V30.6Z" fill="black"/>
<path d="M20.3999 30.6H16.9998V34H20.3999V30.6Z" fill="black"/>
<path d="M27.2 30.6H23.8V34H27.2V30.6Z" fill="black"/>
<path d="M30.6002 30.6H27.2002V34H30.6002V30.6Z" fill="black"/>
<path d="M34.0001 30.6H30.6001V34H34.0001V30.6Z" fill="black"/>
<path d="M37.3999 30.6H33.9999V34H37.3999V30.6Z" fill="black"/>
<path d="M40.8001 30.6H37.4001V34H40.8001V30.6Z" fill="black"/>
<path d="M47.6003 30.6H44.2003V34H47.6003V30.6Z" fill="black"/>
<path d="M51.0001 30.6H47.6001V34H51.0001V30.6Z" fill="black"/>
<path d="M54.4002 30.6H51.0002V34H54.4002V30.6Z" fill="black"/>
<path d="M68.0002 30.6H64.6002V34H68.0002V30.6Z" fill="black"/>
<path d="M71.4 30.6H68V34H71.4V30.6Z" fill="black"/>
<path d="M74.8002 30.6H71.4001V34H74.8002V30.6Z" fill="black"/>
<path d="M78.2003 30.6H74.8003V34H78.2003V30.6Z" fill="black"/>
<path d="M81.6001 30.6H78.2001V34H81.6001V30.6Z" fill="black"/>
<path d="M6.79985 34.0001H3.39984V37.4001H6.79985V34.0001Z" fill="black"/>
<path d="M10.2 34.0001H6.79996V37.4001H10.2V34.0001Z" fill="black"/>
<path d="M13.6001 34.0001H10.2001V37.4001H13.6001V34.0001Z" fill="black"/>
<path d="M17 34.0001H13.6V37.4001H17V34.0001Z" fill="black"/>
<path d="M20.3999 34.0001H16.9998V37.4001H20.3999V34.0001Z" fill="black"/>
<path d="M23.7999 34.0001H20.3999V37.4001H23.7999V34.0001Z" fill="black"/>
<path d="M37.3999 34.0001H33.9999V37.4001H37.3999V34.0001Z" fill="black"/>
<path d="M51.0001 34.0001H47.6001V37.4001H51.0001V34.0001Z" fill="black"/>
<path d="M54.4002 34.0001H51.0002V37.4001H54.4002V34.0001Z" fill="black"/>
<path d="M61.2002 34.0001H57.8002V37.4001H61.2002V34.0001Z" fill="black"/>
<path d="M64.6001 34.0001H61.2001V37.4001H64.6001V34.0001Z" fill="black"/>
<path d="M71.4 34.0001H68V37.4001H71.4V34.0001Z" fill="black"/>
<path d="M74.8002 34.0001H71.4001V37.4001H74.8002V34.0001Z" fill="black"/>
<path d="M81.6001 34.0001H78.2001V37.4001H81.6001V34.0001Z" fill="black"/>
<path d="M85 34.0001H81.6V37.4001H85V34.0001Z" fill="black"/>
<path d="M6.79985 37.4H3.39984V40.8H6.79985V37.4Z" fill="black"/>
<path d="M10.2 37.4H6.79996V40.8H10.2V37.4Z" fill="black"/>
<path d="M13.6001 37.4H10.2001V40.8H13.6001V37.4Z" fill="black"/>
<path d="M20.3999 37.4H16.9998V40.8H20.3999V37.4Z" fill="black"/>
<path d="M30.6002 37.4H27.2002V40.8H30.6002V37.4Z" fill="black"/>
<path d="M34.0001 37.4H30.6001V40.8H34.0001V37.4Z" fill="black"/>
<path d="M44.2001 37.4H40.8001V40.8H44.2001V37.4Z" fill="black"/>
<path d="M51.0001 37.4H47.6001V40.8H51.0001V37.4Z" fill="black"/>
<path d="M54.4002 37.4H51.0002V40.8H54.4002V37.4Z" fill="black"/>
<path d="M57.8001 37.4H54.4001V40.8H57.8001V37.4Z" fill="black"/>
<path d="M61.2002 37.4H57.8002V40.8H61.2002V37.4Z" fill="black"/>
<path d="M64.6001 37.4H61.2001V40.8H64.6001V37.4Z" fill="black"/>
<path d="M68.0002 37.4H64.6002V40.8H68.0002V37.4Z" fill="black"/>
<path d="M71.4 37.4H68V40.8H71.4V37.4Z" fill="black"/>
<path d="M74.8002 37.4H71.4001V40.8H74.8002V37.4Z" fill="black"/>
<path d="M85 37.4H81.6V40.8H85V37.4Z" fill="black"/>
<path d="M17 40.8H13.6V44.2001H17V40.8Z" fill="black"/>
<path d="M23.7999 40.8H20.3999V44.2001H23.7999V40.8Z" fill="black"/>
<path d="M30.6002 40.8H27.2002V44.2001H30.6002V40.8Z" fill="black"/>
<path d="M34.0001 40.8H30.6001V44.2001H34.0001V40.8Z" fill="black"/>
<path d="M44.2001 40.8H40.8001V44.2001H44.2001V40.8Z" fill="black"/>
<path d="M57.8001 40.8H54.4001V44.2001H57.8001V40.8Z" fill="black"/>
<path d="M64.6001 40.8H61.2001V44.2001H64.6001V40.8Z" fill="black"/>
<path d="M68.0002 40.8H64.6002V44.2001H68.0002V40.8Z" fill="black"/>
<path d="M85 40.8H81.6V44.2001H85V40.8Z" fill="black"/>
<path d="M3.40001 44.2001H0V47.6001H3.40001V44.2001Z" fill="black"/>
<path d="M34.0001 44.2001H30.6001V47.6001H34.0001V44.2001Z" fill="black"/>
<path d="M40.8001 44.2001H37.4001V47.6001H40.8001V44.2001Z" fill="black"/>
<path d="M47.6003 44.2001H44.2003V47.6001H47.6003V44.2001Z" fill="black"/>
<path d="M51.0001 44.2001H47.6001V47.6001H51.0001V44.2001Z" fill="black"/>
<path d="M54.4002 44.2001H51.0002V47.6001H54.4002V44.2001Z" fill="black"/>
<path d="M68.0002 44.2001H64.6002V47.6001H68.0002V44.2001Z" fill="black"/>
<path d="M81.6001 44.2001H78.2001V47.6001H81.6001V44.2001Z" fill="black"/>
<path d="M3.40001 47.6002H0V51.0002H3.40001V47.6002Z" fill="black"/>
<path d="M10.2 47.6002H6.79996V51.0002H10.2V47.6002Z" fill="black"/>
<path d="M13.6001 47.6002H10.2001V51.0002H13.6001V47.6002Z" fill="black"/>
<path d="M17 47.6002H13.6V51.0002H17V47.6002Z" fill="black"/>
<path d="M23.7999 47.6002H20.3999V51.0002H23.7999V47.6002Z" fill="black"/>
<path d="M30.6002 47.6002H27.2002V51.0002H30.6002V47.6002Z" fill="black"/>
<path d="M34.0001 47.6002H30.6001V51.0002H34.0001V47.6002Z" fill="black"/>
<path d="M47.6003 47.6002H44.2003V51.0002H47.6003V47.6002Z" fill="black"/>
<path d="M54.4002 47.6002H51.0002V51.0002H54.4002V47.6002Z" fill="black"/>
<path d="M57.8001 47.6002H54.4001V51.0002H57.8001V47.6002Z" fill="black"/>
<path d="M61.2002 47.6002H57.8002V51.0002H61.2002V47.6002Z" fill="black"/>
<path d="M68.0002 47.6002H64.6002V51.0002H68.0002V47.6002Z" fill="black"/>
<path d="M71.4 47.6002H68V51.0002H71.4V47.6002Z" fill="black"/>
<path d="M74.8002 47.6002H71.4001V51.0002H74.8002V47.6002Z" fill="black"/>
<path d="M81.6001 47.6002H78.2001V51.0002H81.6001V47.6002Z" fill="black"/>
<path d="M85 47.6002H81.6V51.0002H85V47.6002Z" fill="black"/>
<path d="M3.40001 51H0V54.4H3.40001V51Z" fill="black"/>
<path d="M10.2 51H6.79996V54.4H10.2V51Z" fill="black"/>
<path d="M20.3999 51H16.9998V54.4H20.3999V51Z" fill="black"/>
<path d="M30.6002 51H27.2002V54.4H30.6002V51Z" fill="black"/>
<path d="M34.0001 51H30.6001V54.4H34.0001V51Z" fill="black"/>
<path d="M40.8001 51H37.4001V54.4H40.8001V51Z" fill="black"/>
<path d="M44.2001 51H40.8001V54.4H44.2001V51Z" fill="black"/>
<path d="M51.0001 51H47.6001V54.4H51.0001V51Z" fill="black"/>
<path d="M54.4002 51H51.0002V54.4H54.4002V51Z" fill="black"/>
<path d="M57.8001 51H54.4001V54.4H57.8001V51Z" fill="black"/>
<path d="M64.6001 51H61.2001V54.4H64.6001V51Z" fill="black"/>
<path d="M68.0002 51H64.6002V54.4H68.0002V51Z" fill="black"/>
<path d="M78.2003 51H74.8003V54.4H78.2003V51Z" fill="black"/>
<path d="M85 51H81.6V54.4H85V51Z" fill="black"/>
<path d="M3.40001 54.4001H0V57.8001H3.40001V54.4001Z" fill="black"/>
<path d="M13.6001 54.4001H10.2001V57.8001H13.6001V54.4001Z" fill="black"/>
<path d="M17 54.4001H13.6V57.8001H17V54.4001Z" fill="black"/>
<path d="M20.3999 54.4001H16.9998V57.8001H20.3999V54.4001Z" fill="black"/>
<path d="M23.7999 54.4001H20.3999V57.8001H23.7999V54.4001Z" fill="black"/>
<path d="M27.2 54.4001H23.8V57.8001H27.2V54.4001Z" fill="black"/>
<path d="M37.3999 54.4001H33.9999V57.8001H37.3999V54.4001Z" fill="black"/>
<path d="M47.6003 54.4001H44.2003V57.8001H47.6003V54.4001Z" fill="black"/>
<path d="M51.0001 54.4001H47.6001V57.8001H51.0001V54.4001Z" fill="black"/>
<path d="M57.8001 54.4001H54.4001V57.8001H57.8001V54.4001Z" fill="black"/>
<path d="M61.2002 54.4001H57.8002V57.8001H61.2002V54.4001Z" fill="black"/>
<path d="M64.6001 54.4001H61.2001V57.8001H64.6001V54.4001Z" fill="black"/>
<path d="M68.0002 54.4001H64.6002V57.8001H68.0002V54.4001Z" fill="black"/>
<path d="M71.4 54.4001H68V57.8001H71.4V54.4001Z" fill="black"/>
<path d="M78.2003 54.4001H74.8003V57.8001H78.2003V54.4001Z" fill="black"/>
<path d="M30.6002 57.8001H27.2002V61.2001H30.6002V57.8001Z" fill="black"/>
<path d="M40.8001 57.8001H37.4001V61.2001H40.8001V57.8001Z" fill="black"/>
<path d="M47.6003 57.8001H44.2003V61.2001H47.6003V57.8001Z" fill="black"/>
<path d="M57.8001 57.8001H54.4001V61.2001H57.8001V57.8001Z" fill="black"/>
<path d="M71.4 57.8001H68V61.2001H71.4V57.8001Z" fill="black"/>
<path d="M78.2003 57.8001H74.8003V61.2001H78.2003V57.8001Z" fill="black"/>
<path d="M3.40001 61.2002H0V64.6002H3.40001V61.2002Z" fill="black"/>
<path d="M6.79985 61.2002H3.39984V64.6002H6.79985V61.2002Z" fill="black"/>
<path d="M10.2 61.2002H6.79996V64.6002H10.2V61.2002Z" fill="black"/>
<path d="M13.6001 61.2002H10.2001V64.6002H13.6001V61.2002Z" fill="black"/>
<path d="M17 61.2002H13.6V64.6002H17V61.2002Z" fill="black"/>
<path d="M20.3999 61.2002H16.9998V64.6002H20.3999V61.2002Z" fill="black"/>
<path d="M23.7999 61.2002H20.3999V64.6002H23.7999V61.2002Z" fill="black"/>
<path d="M30.6002 61.2002H27.2002V64.6002H30.6002V61.2002Z" fill="black"/>
<path d="M34.0001 61.2002H30.6001V64.6002H34.0001V61.2002Z" fill="black"/>
<path d="M40.8001 61.2002H37.4001V64.6002H40.8001V61.2002Z" fill="black"/>
<path d="M57.8001 61.2002H54.4001V64.6002H57.8001V61.2002Z" fill="black"/>
<path d="M64.6001 61.2002H61.2001V64.6002H64.6001V61.2002Z" fill="black"/>
<path d="M71.4 61.2002H68V64.6002H71.4V61.2002Z" fill="black"/>
<path d="M74.8002 61.2002H71.4001V64.6002H74.8002V61.2002Z" fill="black"/>
<path d="M85 61.2002H81.6V64.6002H85V61.2002Z" fill="black"/>
<path d="M3.40001 64.6002H0V68.0002H3.40001V64.6002Z" fill="black"/>
<path d="M23.7999 64.6002H20.3999V68.0002H23.7999V64.6002Z" fill="black"/>
<path d="M30.6002 64.6002H27.2002V68.0002H30.6002V64.6002Z" fill="black"/>
<path d="M37.3999 64.6002H33.9999V68.0002H37.3999V64.6002Z" fill="black"/>
<path d="M51.0001 64.6002H47.6001V68.0002H51.0001V64.6002Z" fill="black"/>
<path d="M54.4002 64.6002H51.0002V68.0002H54.4002V64.6002Z" fill="black"/>
<path d="M57.8001 64.6002H54.4001V68.0002H57.8001V64.6002Z" fill="black"/>
<path d="M71.4 64.6002H68V68.0002H71.4V64.6002Z" fill="black"/>
<path d="M81.6001 64.6002H78.2001V68.0002H81.6001V64.6002Z" fill="black"/>
<path d="M3.40001 68.0002H0V71.4002H3.40001V68.0002Z" fill="black"/>
<path d="M10.2 68.0002H6.79996V71.4002H10.2V68.0002Z" fill="black"/>
<path d="M13.6001 68.0002H10.2001V71.4002H13.6001V68.0002Z" fill="black"/>
<path d="M17 68.0002H13.6V71.4002H17V68.0002Z" fill="black"/>
<path d="M23.7999 68.0002H20.3999V71.4002H23.7999V68.0002Z" fill="black"/>
<path d="M34.0001 68.0002H30.6001V71.4002H34.0001V68.0002Z" fill="black"/>
<path d="M37.3999 68.0002H33.9999V71.4002H37.3999V68.0002Z" fill="black"/>
<path d="M47.6003 68.0002H44.2003V71.4002H47.6003V68.0002Z" fill="black"/>
<path d="M51.0001 68.0002H47.6001V71.4002H51.0001V68.0002Z" fill="black"/>
<path d="M54.4002 68.0002H51.0002V71.4002H54.4002V68.0002Z" fill="black"/>
<path d="M57.8001 68.0002H54.4001V71.4002H57.8001V68.0002Z" fill="black"/>
<path d="M61.2002 68.0002H57.8002V71.4002H61.2002V68.0002Z" fill="black"/>
<path d="M64.6001 68.0002H61.2001V71.4002H64.6001V68.0002Z" fill="black"/>
<path d="M68.0002 68.0002H64.6002V71.4002H68.0002V68.0002Z" fill="black"/>
<path d="M71.4 68.0002H68V71.4002H71.4V68.0002Z" fill="black"/>
<path d="M74.8002 68.0002H71.4001V71.4002H74.8002V68.0002Z" fill="black"/>
<path d="M78.2003 68.0002H74.8003V71.4002H78.2003V68.0002Z" fill="black"/>
<path d="M81.6001 68.0002H78.2001V71.4002H81.6001V68.0002Z" fill="black"/>
<path d="M3.40001 71.4002H0V74.8002H3.40001V71.4002Z" fill="black"/>
<path d="M10.2 71.4002H6.79996V74.8002H10.2V71.4002Z" fill="black"/>
<path d="M13.6001 71.4002H10.2001V74.8002H13.6001V71.4002Z" fill="black"/>
<path d="M17 71.4002H13.6V74.8002H17V71.4002Z" fill="black"/>
<path d="M23.7999 71.4002H20.3999V74.8002H23.7999V71.4002Z" fill="black"/>
<path d="M37.3999 71.4002H33.9999V74.8002H37.3999V71.4002Z" fill="black"/>
<path d="M40.8001 71.4002H37.4001V74.8002H40.8001V71.4002Z" fill="black"/>
<path d="M47.6003 71.4002H44.2003V74.8002H47.6003V71.4002Z" fill="black"/>
<path d="M51.0001 71.4002H47.6001V74.8002H51.0001V71.4002Z" fill="black"/>
<path d="M61.2002 71.4002H57.8002V74.8002H61.2002V71.4002Z" fill="black"/>
<path d="M64.6001 71.4002H61.2001V74.8002H64.6001V71.4002Z" fill="black"/>
<path d="M74.8002 71.4002H71.4001V74.8002H74.8002V71.4002Z" fill="black"/>
<path d="M81.6001 71.4002H78.2001V74.8002H81.6001V71.4002Z" fill="black"/>
<path d="M85 71.4002H81.6V74.8002H85V71.4002Z" fill="black"/>
<path d="M3.40001 74.8002H0V78.2002H3.40001V74.8002Z" fill="black"/>
<path d="M10.2 74.8002H6.79996V78.2002H10.2V74.8002Z" fill="black"/>
<path d="M13.6001 74.8002H10.2001V78.2002H13.6001V74.8002Z" fill="black"/>
<path d="M17 74.8002H13.6V78.2002H17V74.8002Z" fill="black"/>
<path d="M23.7999 74.8002H20.3999V78.2002H23.7999V74.8002Z" fill="black"/>
<path d="M34.0001 74.8002H30.6001V78.2002H34.0001V74.8002Z" fill="black"/>
<path d="M37.3999 74.8002H33.9999V78.2002H37.3999V74.8002Z" fill="black"/>
<path d="M44.2001 74.8002H40.8001V78.2002H44.2001V74.8002Z" fill="black"/>
<path d="M47.6003 74.8002H44.2003V78.2002H47.6003V74.8002Z" fill="black"/>
<path d="M51.0001 74.8002H47.6001V78.2002H51.0001V74.8002Z" fill="black"/>
<path d="M57.8001 74.8002H54.4001V78.2002H57.8001V74.8002Z" fill="black"/>
<path d="M68.0002 74.8002H64.6002V78.2002H68.0002V74.8002Z" fill="black"/>
<path d="M78.2003 74.8002H74.8003V78.2002H78.2003V74.8002Z" fill="black"/>
<path d="M85 74.8002H81.6V78.2002H85V74.8002Z" fill="black"/>
<path d="M3.40001 78.2001H0V81.6001H3.40001V78.2001Z" fill="black"/>
<path d="M23.7999 78.2001H20.3999V81.6001H23.7999V78.2001Z" fill="black"/>
<path d="M30.6002 78.2001H27.2002V81.6001H30.6002V78.2001Z" fill="black"/>
<path d="M40.8001 78.2001H37.4001V81.6001H40.8001V78.2001Z" fill="black"/>
<path d="M44.2001 78.2001H40.8001V81.6001H44.2001V78.2001Z" fill="black"/>
<path d="M57.8001 78.2001H54.4001V81.6001H57.8001V78.2001Z" fill="black"/>
<path d="M68.0002 78.2001H64.6002V81.6001H68.0002V78.2001Z" fill="black"/>
<path d="M71.4 78.2001H68V81.6001H71.4V78.2001Z" fill="black"/>
<path d="M85 78.2001H81.6V81.6001H85V78.2001Z" fill="black"/>
<path d="M3.40001 81.6002H0V85.0002H3.40001V81.6002Z" fill="black"/>
<path d="M6.79985 81.6002H3.39984V85.0002H6.79985V81.6002Z" fill="black"/>
<path d="M10.2 81.6002H6.79996V85.0002H10.2V81.6002Z" fill="black"/>
<path d="M13.6001 81.6002H10.2001V85.0002H13.6001V81.6002Z" fill="black"/>
<path d="M17 81.6002H13.6V85.0002H17V81.6002Z" fill="black"/>
<path d="M20.3999 81.6002H16.9998V85.0002H20.3999V81.6002Z" fill="black"/>
<path d="M23.7999 81.6002H20.3999V85.0002H23.7999V81.6002Z" fill="black"/>
<path d="M30.6002 81.6002H27.2002V85.0002H30.6002V81.6002Z" fill="black"/>
<path d="M40.8001 81.6002H37.4001V85.0002H40.8001V81.6002Z" fill="black"/>
<path d="M44.2001 81.6002H40.8001V85.0002H44.2001V81.6002Z" fill="black"/>
<path d="M57.8001 81.6002H54.4001V85.0002H57.8001V81.6002Z" fill="black"/>
<path d="M64.6001 81.6002H61.2001V85.0002H64.6001V81.6002Z" fill="black"/>
<path d="M74.8002 81.6002H71.4001V85.0002H74.8002V81.6002Z" fill="black"/>
<path d="M85 81.6002H81.6V85.0002H85V81.6002Z" fill="black"/>
</svg>
