<svg width="102" height="34" viewBox="0 0 102 34" fill="none" xmlns="http://www.w3.org/2000/svg">
<path d="M93.7959 0.0001105H8.12018C7.80788 0.0001105 7.49933 0.0001105 7.18786 0.00181049C6.92713 0.00351049 6.66847 0.00844897 6.40524 0.0126055C5.83337 0.019322 5.26284 0.0695351 4.69862 0.162808C4.13519 0.258112 3.58941 0.437787 3.07974 0.695757C2.5707 0.955908 2.10556 1.29395 1.70122 1.69761C1.29476 2.10015 0.955942 2.56542 0.697797 3.07554C0.438939 3.58464 0.259446 4.13019 0.165518 4.69335C0.070696 5.2558 0.0196717 5.82473 0.0129024 6.39505C0.00499917 6.65566 0.00416455 6.91713 0 7.17778V26.8248C0.00416455 27.0888 0.00499917 27.3444 0.0129024 27.6084C0.0196737 28.1787 0.0706981 28.7476 0.165518 29.3101C0.259187 29.8735 0.43869 30.4194 0.697797 30.9287C0.955825 31.4372 1.29469 31.9006 1.70122 32.3009C2.10403 32.7063 2.56946 33.0446 3.07974 33.3027C3.58941 33.5614 4.13513 33.7422 4.69862 33.8389C5.26294 33.9315 5.8334 33.9817 6.40524 33.9892C6.66847 33.995 6.92713 33.9983 7.18786 33.9983C7.49932 34 7.8079 34 8.12018 34H93.7959C94.102 34 94.413 34 94.7191 33.9983C94.9786 33.9983 95.2448 33.995 95.5042 33.9892C96.075 33.9821 96.6444 33.9318 97.2075 33.8389C97.7729 33.7415 98.3205 33.5608 98.8327 33.3027C99.3425 33.0444 99.8075 32.7062 100.21 32.3009C100.615 31.899 100.955 31.4359 101.216 30.9287C101.473 30.419 101.651 29.8732 101.743 29.3101C101.838 28.7476 101.891 28.1788 101.902 27.6084C101.905 27.3444 101.905 27.0888 101.905 26.8248C101.912 26.516 101.912 26.2089 101.912 25.8951V8.10579C101.912 7.79452 101.912 7.48573 101.905 7.17778C101.905 6.91713 101.905 6.65566 101.902 6.39501C101.891 5.82465 101.838 5.25584 101.743 4.69332C101.651 4.13049 101.473 3.58498 101.216 3.0755C100.691 2.05302 99.8569 1.22073 98.8327 0.69568C98.3205 0.438341 97.7728 0.258714 97.2075 0.162732C96.6445 0.0690476 96.075 0.018817 95.5042 0.0124865C95.2448 0.00833847 94.9786 0.00335749 94.7191 0.00169999C94.413 0 94.102 0 93.7959 0V0.0001105Z" fill="#A6A6A6"/>
<path d="M7.19168 33.2563C6.9322 33.2563 6.67899 33.253 6.42154 33.2472C5.88823 33.2403 5.35616 33.1939 4.8297 33.1086C4.3388 33.0242 3.86325 32.8672 3.41874 32.6428C2.9783 32.4203 2.57659 32.1286 2.22899 31.7787C1.87636 31.433 1.58277 31.0321 1.35988 30.5917C1.13452 30.1485 0.978562 29.6735 0.897431 29.1831C0.809818 28.6562 0.762415 28.1234 0.755632 27.5894C0.750233 27.4101 0.743164 26.8132 0.743164 26.8132V7.17781C0.743164 7.17781 0.750693 6.59012 0.755675 6.41746C0.762169 5.88424 0.809296 5.35229 0.896648 4.8262C0.977928 4.3345 1.13401 3.85807 1.35948 3.41342C1.58156 2.97339 1.87352 2.57212 2.22402 2.22517C2.57414 1.87492 2.97714 1.58166 3.41832 1.35607C3.86181 1.13242 4.33646 0.976568 4.82637 0.893725C5.35456 0.807507 5.88847 0.760893 6.42364 0.754275L7.1921 0.743896H94.7146L95.4922 0.754691C96.0225 0.760981 96.5516 0.807179 97.0749 0.892892C97.5698 0.976775 98.0494 1.13372 98.498 1.35856C99.3818 1.81318 100.101 2.53243 100.555 3.4155C100.777 3.85708 100.93 4.32962 101.01 4.81707C101.099 5.34747 101.148 5.88361 101.159 6.4212C101.161 6.66192 101.161 6.92049 101.161 7.17781C101.168 7.49656 101.168 7.79995 101.168 8.10583V25.8951C101.168 26.2039 101.168 26.5053 101.161 26.8091C101.161 27.0855 101.161 27.3387 101.158 27.5993C101.148 28.1273 101.099 28.6539 101.012 29.1748C100.933 29.6687 100.778 30.1474 100.552 30.5943C100.328 31.0298 100.036 31.4273 99.6873 31.7721C99.3394 32.1238 98.937 32.4173 98.4955 32.6412C98.0482 32.8673 97.5693 33.0249 97.0749 33.1086C96.5485 33.1944 96.0164 33.2407 95.4831 33.2472C95.2336 33.253 94.9724 33.2563 94.7188 33.2563L93.7956 33.258L7.19168 33.2563Z" fill="black"/>
<path d="M21.0938 17.2558C21.1029 16.5463 21.2918 15.8507 21.6427 15.2337C21.9936 14.6166 22.4951 14.0982 23.1007 13.7266C22.716 13.1782 22.2085 12.7269 21.6184 12.4085C21.0284 12.0901 20.3721 11.9135 19.7017 11.8925C18.2716 11.7427 16.8851 12.7466 16.1564 12.7466C15.4135 12.7466 14.2914 11.9074 13.0832 11.9322C12.3017 11.9574 11.54 12.1842 10.8724 12.5906C10.2048 12.9969 9.65408 13.569 9.27385 14.2509C7.62676 17.097 8.85534 21.2799 10.4331 23.5805C11.2225 24.7071 12.1451 25.9655 13.3522 25.9208C14.5335 25.8719 14.9747 25.169 16.4006 25.169C17.8133 25.169 18.2272 25.9208 19.4589 25.8925C20.7265 25.8719 21.5251 24.7609 22.2868 23.6237C22.854 22.821 23.2904 21.9338 23.5799 20.9951C22.8435 20.6842 22.2151 20.1639 21.773 19.4989C21.3309 18.834 21.0946 18.0538 21.0938 17.2558V17.2558Z" fill="white"/>
<path d="M18.7674 10.3793C19.4585 9.55127 19.799 8.48692 19.7165 7.41232C18.6606 7.52301 17.6853 8.02668 16.9848 8.82299C16.6423 9.212 16.38 9.66457 16.2129 10.1548C16.0458 10.6451 15.9771 11.1634 16.0108 11.6802C16.5389 11.6856 17.0614 11.5713 17.5389 11.346C18.0164 11.1207 18.4364 10.7902 18.7674 10.3793Z" fill="white"/>
<path d="M36.0257 23.069H31.9945L31.0264 25.9219H29.319L33.1372 15.3667H34.9112L38.7295 25.9219H36.9929L36.0257 23.069ZM32.412 21.7525H35.6074L34.0322 17.1223H33.9881L32.412 21.7525Z" fill="white"/>
<path d="M46.9757 22.0742C46.9757 24.4656 45.6932 26.0021 43.7579 26.0021C43.2676 26.0277 42.7801 25.915 42.351 25.6769C41.9219 25.4387 41.5687 25.0849 41.3318 24.6557H41.2952V28.4674H39.7125V18.226H41.2445V19.5059H41.2736C41.5214 19.0788 41.8806 18.7268 42.3129 18.4872C42.7452 18.2476 43.2345 18.1295 43.7288 18.1454C45.6857 18.1454 46.9757 19.6894 46.9757 22.0742ZM45.3489 22.0742C45.3489 20.5161 44.5421 19.4918 43.3113 19.4918C42.102 19.4918 41.2886 20.5377 41.2886 22.0742C41.2886 23.6248 42.102 24.6632 43.3113 24.6632C44.5422 24.6632 45.3489 23.6463 45.3489 22.0742Z" fill="white"/>
<path d="M55.462 22.0742C55.462 24.4656 54.1795 26.0021 52.2442 26.0021C51.7539 26.0277 51.2664 25.915 50.8373 25.6769C50.4083 25.4387 50.0551 25.0848 49.8182 24.6557H49.7816V28.4674H48.1989V18.2259H49.7308V19.5059H49.7599C50.0077 19.0788 50.3669 18.7268 50.7992 18.4872C51.2315 18.2476 51.7208 18.1295 52.2151 18.1454C54.172 18.1454 55.462 19.6894 55.462 22.0742ZM53.8352 22.0742C53.8352 20.5161 53.0285 19.4918 51.7976 19.4918C50.5883 19.4918 49.7749 20.5377 49.7749 22.0742C49.7749 23.6248 50.5883 24.6632 51.7976 24.6632C53.0285 24.6632 53.8352 23.6463 53.8352 22.0742H53.8352Z" fill="white"/>
<path d="M61.071 22.9807C61.1882 24.0274 62.2071 24.7147 63.5993 24.7147C64.9333 24.7147 65.8931 24.0274 65.8931 23.0836C65.8931 22.2643 65.3142 21.7737 63.9436 21.4376L62.573 21.108C60.631 20.6398 59.7294 19.7334 59.7294 18.2625C59.7294 16.4413 61.3196 15.1904 63.5777 15.1904C65.8124 15.1904 67.3444 16.4413 67.3959 18.2625H65.7982C65.7026 17.2091 64.8302 16.5733 63.5552 16.5733C62.2802 16.5733 61.4078 17.2166 61.4078 18.1529C61.4078 18.8992 61.965 19.3383 63.3281 19.6744L64.4933 19.96C66.6632 20.4721 67.5648 21.3421 67.5648 22.886C67.5648 24.8607 65.9887 26.0976 63.482 26.0976C61.1366 26.0976 59.5531 24.8898 59.4508 22.9806L61.071 22.9807Z" fill="white"/>
<path d="M70.9805 16.405V18.2262H72.4467V19.4771H70.9805V23.7196C70.9805 24.3787 71.274 24.6858 71.9186 24.6858C72.0927 24.6828 72.2665 24.6706 72.4392 24.6493V25.8927C72.1494 25.9468 71.8549 25.9713 71.5601 25.9658C69.9991 25.9658 69.3903 25.3806 69.3903 23.8881V19.4771H68.2692V18.2262H69.3903V16.405H70.9805Z" fill="white"/>
<path d="M73.2955 22.0743C73.2955 19.653 74.7244 18.1314 76.9525 18.1314C79.188 18.1314 80.6102 19.6529 80.6102 22.0743C80.6102 24.5023 79.1955 26.0172 76.9525 26.0172C74.7102 26.0172 73.2955 24.5023 73.2955 22.0743ZM78.9976 22.0743C78.9976 20.4133 78.2349 19.433 76.9524 19.433C75.67 19.433 74.9082 20.4208 74.9082 22.0743C74.9082 23.7419 75.67 24.7148 76.9524 24.7148C78.2349 24.7148 78.9975 23.7419 78.9975 22.0743H78.9976Z" fill="white"/>
<path d="M81.9157 18.2259H83.4252V19.5357H83.4618C83.5639 19.1266 83.804 18.7651 84.1418 18.5119C84.4795 18.2587 84.8943 18.1293 85.3165 18.1453C85.4988 18.1447 85.6807 18.1645 85.8587 18.2043V19.6818C85.6285 19.6116 85.3883 19.5794 85.1476 19.5864C84.9177 19.5771 84.6884 19.6175 84.4757 19.705C84.2629 19.7924 84.0716 19.9248 83.9149 20.093C83.7582 20.2612 83.6399 20.4613 83.568 20.6794C83.4961 20.8976 83.4723 21.1287 83.4984 21.3569V25.9215H81.9156L81.9157 18.2259Z" fill="white"/>
<path d="M93.1562 23.6614C92.9433 25.0584 91.5802 26.0172 89.8361 26.0172C87.593 26.0172 86.2008 24.5172 86.2008 22.1108C86.2008 19.697 87.6005 18.1314 89.7696 18.1314C91.9028 18.1314 93.2444 19.594 93.2444 21.9274V22.4686H87.7985V22.564C87.7733 22.8473 87.8089 23.1326 87.9027 23.401C87.9965 23.6695 88.1465 23.915 88.3427 24.1211C88.5389 24.3273 88.7768 24.4894 89.0406 24.5968C89.3044 24.7042 89.588 24.7543 89.8727 24.7438C90.2467 24.7788 90.622 24.6923 90.9429 24.4973C91.2637 24.3023 91.5129 24.0091 91.6533 23.6614L93.1562 23.6614ZM87.806 21.3646H91.6608C91.675 21.1099 91.6364 20.8551 91.5472 20.6161C91.4581 20.377 91.3204 20.159 91.1428 19.9756C90.9652 19.7922 90.7515 19.6474 90.5152 19.5503C90.2789 19.4532 90.0251 19.4059 89.7696 19.4114C89.5118 19.4099 89.2563 19.4593 89.0179 19.5568C88.7794 19.6544 88.5626 19.7981 88.38 19.9797C88.1975 20.1612 88.0527 20.3771 87.9542 20.6148C87.8557 20.8525 87.8053 21.1073 87.806 21.3646V21.3646Z" fill="white"/>
<path d="M32.2141 7.42183C32.5459 7.39807 32.8788 7.4481 33.1889 7.56832C33.499 7.68853 33.7785 7.87594 34.0073 8.11702C34.236 8.3581 34.4083 8.64684 34.5117 8.96242C34.6151 9.278 34.647 9.61255 34.6052 9.94194C34.6052 11.5622 33.7277 12.4936 32.2141 12.4936H30.3785V7.42183H32.2141ZM31.1678 11.7764H32.1259C32.363 11.7905 32.6003 11.7517 32.8205 11.6628C33.0407 11.5739 33.2382 11.4371 33.3987 11.2623C33.5593 11.0876 33.6787 10.8793 33.7485 10.6527C33.8182 10.4261 33.8364 10.1868 33.8018 9.95227C33.8339 9.71867 33.8138 9.48086 33.743 9.2559C33.6722 9.03093 33.5525 8.82438 33.3923 8.65104C33.2321 8.4777 33.0355 8.34187 32.8166 8.25326C32.5977 8.16466 32.3618 8.12549 32.1259 8.13856H31.1678V11.7764Z" fill="white"/>
<path d="M35.4965 10.5778C35.4724 10.3262 35.5012 10.0725 35.5811 9.8327C35.661 9.59294 35.7903 9.3725 35.9606 9.18552C36.1308 8.99854 36.3384 8.84914 36.5699 8.7469C36.8014 8.64467 37.0518 8.59186 37.305 8.59186C37.5581 8.59186 37.8085 8.64467 38.04 8.7469C38.2716 8.84914 38.4791 8.99854 38.6494 9.18552C38.8197 9.3725 38.9489 9.59294 39.0288 9.8327C39.1088 10.0725 39.1376 10.3262 39.1135 10.5778C39.138 10.8296 39.1096 11.0837 39.0298 11.3238C38.9501 11.564 38.821 11.7848 38.6506 11.9722C38.4803 12.1595 38.2726 12.3092 38.0409 12.4117C37.8091 12.5142 37.5584 12.5671 37.305 12.5671C37.0515 12.5671 36.8008 12.5142 36.5691 12.4117C36.3373 12.3092 36.1296 12.1595 35.9593 11.9722C35.789 11.7848 35.6598 11.564 35.5801 11.3238C35.5004 11.0837 35.4719 10.8296 35.4965 10.5778V10.5778ZM38.335 10.5778C38.335 9.74812 37.9616 9.26294 37.3062 9.26294C36.6484 9.26294 36.2783 9.74812 36.2783 10.5778C36.2783 11.4141 36.6484 11.8955 37.3062 11.8955C37.9616 11.8955 38.335 11.4108 38.335 10.5778H38.335Z" fill="white"/>
<path d="M43.9223 12.4932H43.1372L42.3446 9.67425H42.2847L41.4955 12.4932H40.7178L39.6608 8.66571H40.4284L41.1154 11.5863H41.1719L41.9604 8.66571H42.6864L43.4749 11.5863H43.5348L44.2184 8.66571H44.9752L43.9223 12.4932Z" fill="white"/>
<path d="M45.8639 8.66572H46.5924V9.27375H46.649C46.7449 9.05537 46.9068 8.8723 47.1119 8.75007C47.317 8.62784 47.5553 8.57252 47.7934 8.59184C47.98 8.57784 48.1674 8.60592 48.3416 8.674C48.5159 8.74208 48.6725 8.84842 48.8 8.98514C48.9275 9.12185 49.0225 9.28545 49.078 9.46379C49.1336 9.64214 49.1482 9.83067 49.1208 10.0154V12.4932H48.3639V10.2051C48.3639 9.59002 48.0961 9.28413 47.5364 9.28413C47.4097 9.27824 47.2833 9.29976 47.1657 9.34722C47.0481 9.39467 46.9422 9.46694 46.8552 9.55907C46.7683 9.65119 46.7023 9.761 46.6618 9.88096C46.6213 10.0009 46.6073 10.1282 46.6207 10.2541V12.4932H45.8639L45.8639 8.66572Z" fill="white"/>
<path d="M50.3268 7.17157H51.0836V12.4932H50.3268V7.17157Z" fill="white"/>
<path d="M52.1361 10.5776C52.112 10.3261 52.1409 10.0723 52.2208 9.83249C52.3007 9.59272 52.43 9.37228 52.6003 9.18529C52.7706 8.9983 52.9782 8.8489 53.2097 8.74666C53.4412 8.64442 53.6916 8.59161 53.9448 8.59161C54.198 8.59161 54.4484 8.64442 54.6799 8.74666C54.9115 8.8489 55.119 8.9983 55.2893 9.18529C55.4596 9.37228 55.5889 9.59272 55.6688 9.83249C55.7488 10.0723 55.7776 10.3261 55.7535 10.5776C55.778 10.8294 55.7495 11.0835 55.6698 11.3237C55.5901 11.5638 55.4609 11.7847 55.2905 11.972C55.1202 12.1594 54.9125 12.3091 54.6807 12.4115C54.449 12.514 54.1983 12.5669 53.9448 12.5669C53.6913 12.5669 53.4407 12.514 53.2089 12.4115C52.9771 12.3091 52.7694 12.1594 52.5991 11.972C52.4287 11.7847 52.2995 11.5638 52.2198 11.3237C52.1401 11.0835 52.1116 10.8294 52.1361 10.5776V10.5776ZM54.9746 10.5776C54.9746 9.74794 54.6012 9.26277 53.9458 9.26277C53.288 9.26277 52.9179 9.74794 52.9179 10.5776C52.9179 11.4139 53.288 11.8954 53.9458 11.8954C54.6012 11.8953 54.9746 11.4106 54.9746 10.5776H54.9746Z" fill="white"/>
<path d="M56.5494 11.4108C56.5494 10.7218 57.0634 10.3246 57.9758 10.2682L59.0146 10.2084V9.87806C59.0146 9.47381 58.7468 9.24554 58.2294 9.24554C57.807 9.24554 57.5142 9.40035 57.4302 9.67096H56.6975C56.7748 9.01353 57.3944 8.59186 58.2644 8.59186C59.2258 8.59186 59.7681 9.06956 59.7681 9.87806V12.4932H59.0395V11.9553H58.9796C58.8581 12.1483 58.6874 12.3056 58.485 12.4111C58.2827 12.5167 58.0559 12.5668 57.8277 12.5563C57.6668 12.573 57.504 12.5558 57.3501 12.5059C57.1961 12.4561 57.0544 12.3745 56.934 12.2666C56.8135 12.1587 56.7171 12.0268 56.6508 11.8794C56.5846 11.732 56.5501 11.5723 56.5494 11.4108V11.4108ZM59.0146 11.0837V10.7637L58.0781 10.8235C57.55 10.8588 57.3104 11.0381 57.3104 11.3755C57.3104 11.72 57.6098 11.9204 58.0216 11.9204C58.1422 11.9326 58.264 11.9205 58.3799 11.8847C58.4957 11.8489 58.6031 11.7903 58.6958 11.7122C58.7884 11.6341 58.8644 11.5383 58.9192 11.4303C58.9739 11.3223 59.0064 11.2045 59.0146 11.0837V11.0837Z" fill="white"/>
<path d="M60.7633 10.5778C60.7633 9.36838 61.3862 8.60222 62.3552 8.60222C62.5948 8.5912 62.8327 8.64849 63.0409 8.7674C63.2492 8.88631 63.4192 9.06192 63.5312 9.27371H63.5877V7.17157H64.3445V12.4932H63.6193V11.8885H63.5594C63.4388 12.0988 63.2629 12.2723 63.0506 12.39C62.8383 12.5077 62.5978 12.5652 62.3552 12.5563C61.3796 12.5563 60.7633 11.7901 60.7633 10.5778ZM61.5451 10.5778C61.5451 11.3896 61.9285 11.8781 62.5698 11.8781C63.2076 11.8781 63.6019 11.3826 63.6019 10.5811C63.6019 9.78342 63.2035 9.2808 62.5698 9.2808C61.9327 9.2808 61.5451 9.77262 61.5451 10.5778H61.5451Z" fill="white"/>
<path d="M67.476 10.5778C67.4519 10.3262 67.4807 10.0725 67.5606 9.8327C67.6405 9.59294 67.7698 9.3725 67.94 9.18552C68.1103 8.99854 68.3179 8.84914 68.5494 8.7469C68.7809 8.64467 69.0313 8.59186 69.2845 8.59186C69.5376 8.59186 69.788 8.64467 70.0195 8.7469C70.251 8.84914 70.4586 8.99854 70.6289 9.18552C70.7992 9.3725 70.9284 9.59294 71.0083 9.8327C71.0882 10.0725 71.1171 10.3262 71.093 10.5778C71.1175 10.8296 71.089 11.0837 71.0093 11.3238C70.9296 11.564 70.8005 11.7848 70.6301 11.9722C70.4598 12.1595 70.2521 12.3092 70.0203 12.4117C69.7886 12.5142 69.5379 12.5671 69.2845 12.5671C69.031 12.5671 68.7803 12.5142 68.5486 12.4117C68.3168 12.3092 68.1091 12.1595 67.9388 11.9722C67.7685 11.7848 67.6393 11.564 67.5596 11.3238C67.4799 11.0837 67.4514 10.8296 67.476 10.5778V10.5778ZM70.3145 10.5778C70.3145 9.74812 69.9411 9.26294 69.2857 9.26294C68.6278 9.26294 68.2578 9.74812 68.2578 10.5778C68.2578 11.4141 68.6279 11.8955 69.2857 11.8955C69.9411 11.8955 70.3145 11.4108 70.3145 10.5778Z" fill="white"/>
<path d="M72.108 8.66572H72.8366V9.27375H72.8932C72.9891 9.05537 73.1509 8.8723 73.356 8.75007C73.5612 8.62784 73.7994 8.57252 74.0376 8.59184C74.2241 8.57784 74.4115 8.60592 74.5857 8.674C74.76 8.74208 74.9167 8.84842 75.0441 8.98514C75.1716 9.12185 75.2666 9.28545 75.3222 9.46379C75.3777 9.64214 75.3923 9.83067 75.3649 10.0154V12.4932H74.6081V10.2051C74.6081 9.59002 74.3403 9.28413 73.7806 9.28413C73.6539 9.27824 73.5274 9.29976 73.4098 9.34722C73.2922 9.39467 73.1863 9.46694 73.0994 9.55907C73.0124 9.65119 72.9464 9.761 72.9059 9.88096C72.8655 10.0009 72.8514 10.1282 72.8649 10.2541V12.4932H72.108V8.66572Z" fill="white"/>
<path d="M79.6415 7.71271V8.68306H80.4723V9.31932H79.6415V11.2874C79.6415 11.6884 79.807 11.8639 80.1837 11.8639C80.2802 11.8636 80.3766 11.8578 80.4723 11.8465V12.4757C80.3364 12.4999 80.1987 12.5129 80.0607 12.5143C79.219 12.5143 78.8838 12.2188 78.8838 11.4808V9.31929H78.275V8.68303H78.8838V7.71271H79.6415Z" fill="white"/>
<path d="M81.5065 7.17157H82.2567V9.2808H82.3165C82.4171 9.06037 82.5834 8.87627 82.7926 8.75358C83.0019 8.63088 83.2439 8.57556 83.4858 8.59515C83.6715 8.58507 83.857 8.616 84.0293 8.68574C84.2016 8.75547 84.3563 8.86229 84.4824 8.99858C84.6086 9.13487 84.7031 9.29726 84.7591 9.47418C84.8151 9.65109 84.8313 9.83816 84.8066 10.0221V12.4932H84.049V10.2084C84.049 9.59705 83.7637 9.28743 83.2289 9.28743C83.0988 9.27678 82.968 9.29463 82.8456 9.33972C82.7231 9.38482 82.612 9.45607 82.52 9.5485C82.4281 9.64092 82.3574 9.75229 82.3131 9.87481C82.2688 9.99732 82.2518 10.128 82.2633 10.2578V12.4932H81.5065L81.5065 7.17157Z" fill="white"/>
<path d="M89.2187 11.4596C89.1159 11.8094 88.8931 12.112 88.5893 12.3144C88.2856 12.5168 87.9201 12.6062 87.557 12.5669C87.3044 12.5736 87.0533 12.5253 86.8212 12.4254C86.5891 12.3255 86.3816 12.1764 86.2131 11.9884C86.0445 11.8004 85.919 11.5781 85.8451 11.3369C85.7713 11.0956 85.751 10.8412 85.7855 10.5913C85.7519 10.3407 85.7726 10.0857 85.8462 9.84377C85.9199 9.6018 86.0448 9.37844 86.2124 9.18883C86.3801 8.99922 86.5866 8.84778 86.818 8.74475C87.0494 8.64172 87.3003 8.58952 87.5537 8.59168C88.6207 8.59168 89.2645 9.31928 89.2645 10.5212V10.7847H86.5565V10.8271C86.5446 10.9675 86.5623 11.1089 86.6084 11.2422C86.6545 11.3754 86.728 11.4975 86.8242 11.6008C86.9203 11.704 87.037 11.7861 87.1668 11.8416C87.2966 11.8972 87.4366 11.9251 87.5778 11.9236C87.7588 11.9453 87.9422 11.9127 88.1047 11.8301C88.2672 11.7475 88.4013 11.6185 88.4902 11.4596L89.2187 11.4596ZM86.5565 10.2261H88.4935C88.503 10.0976 88.4855 9.96861 88.4421 9.8473C88.3987 9.72599 88.3304 9.61508 88.2415 9.5217C88.1526 9.42832 88.0451 9.35454 87.9259 9.30509C87.8067 9.25564 87.6785 9.23162 87.5495 9.23457C87.4186 9.23293 87.2887 9.25746 87.1675 9.30671C87.0462 9.35597 86.9361 9.42895 86.8435 9.52135C86.751 9.61376 86.6779 9.72372 86.6286 9.84476C86.5793 9.96579 86.5548 10.0955 86.5565 10.2261H86.5565Z" fill="white"/>
</svg>
