<?xml version="1.0" encoding="UTF-8"?>
<svg width="22px" height="24px" viewBox="0 0 22 24" version="1.1" xmlns="http://www.w3.org/2000/svg" xmlns:xlink="http://www.w3.org/1999/xlink">
    <title>Shape</title>
    <g id="Experiments" stroke="none" stroke-width="1" fill="none" fill-rule="evenodd">
        <g id="Nav-Experiments@2x" transform="translate(-1145.000000, -1336.000000)" fill="#FFFFFF" fill-rule="nonzero">
            <g id="Group-2" transform="translate(1145.000000, 1333.656951)">
                <g id="Group-Copy-3" transform="translate(0.000000, 3.249418)">
                    <path d="M10.7370809,0 C12.3680743,0 13.7003104,1.2842764 13.7750924,2.89517416 C16.6168158,4.09692488 18.5304693,6.90047688 18.5304693,10.0740948 L18.5304693,14.4535516 C19.0346873,14.4921929 19.8797925,15.827201 20.3541083,16.367203 C21.0781188,17.1914788 21.3375354,17.4177826 21.3375354,18.2030848 C21.3375354,18.4418283 21.3375354,18.8369433 21.3375354,19.3884298 C20.0084307,19.3884298 19.0081274,19.3884298 18.3366256,19.3884298 L3.13753614,19.3884298 C2.44567623,19.3884298 1.40000826,19.3884298 0.000532232616,19.3884298 C0.00963662977,18.8299798 0.00963662977,18.4348648 0.000532232616,18.2030848 C-0.0144503196,17.8216586 0.286890572,17.209698 0.904554906,16.367203 L2.94369245,14.4535516 L2.94369245,10.0740948 C2.94369245,6.8998122 4.85728032,4.09668313 7.69907482,2.89509063 C7.77395248,1.28387688 9.10737588,0 10.7370809,0 Z M8.93616765,4.4616718 C6.5176231,5.23658697 4.84451889,7.49315331 4.84451889,10.0740948 L4.84451889,14.6357009 C4.84451889,14.989293 4.66977201,15.3546027 4.32027825,15.7316302 L3.4338968,16.4167193 L1.80523015,17.4876033 C2.48156476,17.4876033 2.92566676,17.4876033 3.13753614,17.4876033 L18.3366256,17.4876033 C18.5478158,17.4876033 18.9768083,17.4876033 19.6236029,17.4876033 C19.2339834,17.2587313 18.8049909,16.9517291 18.3366256,16.5665964 C17.6340776,15.9888975 16.6296429,15.5827174 16.6296429,14.6357009 L16.6296429,10.0740948 C16.6296429,7.49380385 14.9563951,5.2367063 12.5379533,4.46170389 L11.8775767,4.25008271 L11.8775767,3.03810672 C11.8775767,2.4111685 11.3666907,1.90082645 10.7370809,1.90082645 C10.1082487,1.90082645 9.59658501,2.411307 9.59658501,3.03810672 L9.59658501,4.2500704 L8.93616765,4.4616718 Z M7.12551063,19.3884298 L9.02633708,19.3884298 C9.02633708,20.3332475 9.79226316,21.0991736 10.7370809,21.0991736 C11.6818986,21.0991736 12.4478247,20.3332475 12.4478247,19.3884298 L14.3486511,19.3884298 C14.3486511,21.3830449 12.731696,23 10.7370809,23 C8.74246572,23 7.12551063,21.3830449 7.12551063,19.3884298 Z" id="Shape"></path>
                </g>
            </g>
        </g>
    </g>
</svg>