<svg width="114" height="34" viewBox="0 0 114 34" fill="none" xmlns="http://www.w3.org/2000/svg">
<g clip-path="url(#clip0)">
<path d="M109.66 0H4.21769C1.88833 0 0 1.90279 0 4.25V29.75C0 32.0972 1.88833 34 4.21769 34H109.66C111.989 34 113.878 32.0972 113.878 29.75V4.25C113.878 1.90279 111.989 0 109.66 0Z" fill="black"/>
<path d="M109.66 0.68C110.6 0.68 111.501 1.05612 112.165 1.72563C112.83 2.39513 113.203 3.30318 113.203 4.25V29.75C113.203 30.6968 112.83 31.6049 112.165 32.2744C111.501 32.9439 110.6 33.32 109.66 33.32H4.21769C3.27807 33.32 2.37693 32.9439 1.71251 32.2744C1.0481 31.6049 0.674831 30.6968 0.674831 29.75V4.25C0.674831 3.30318 1.0481 2.39513 1.71251 1.72563C2.37693 1.05612 3.27807 0.68 4.21769 0.68H109.66ZM109.66 0H4.21769C3.09909 0 2.0263 0.447767 1.23533 1.2448C0.444363 2.04183 0 3.12283 0 4.25V29.75C0 30.8772 0.444363 31.9582 1.23533 32.7552C2.0263 33.5522 3.09909 34 4.21769 34H109.66C110.779 34 111.851 33.5522 112.642 32.7552C113.433 31.9582 113.878 30.8772 113.878 29.75V4.25C113.878 3.12283 113.433 2.04183 112.642 1.2448C111.851 0.447767 110.779 0 109.66 0Z" fill="#A6A6A6"/>
<path d="M40.0006 8.70418C40.0145 9.0159 39.9655 9.32721 39.8568 9.61937C39.7481 9.91154 39.5818 10.1785 39.368 10.4042C39.1283 10.6535 38.8391 10.849 38.5193 10.9779C38.1995 11.1068 37.8563 11.1662 37.5122 11.1522C37.166 11.16 36.822 11.0961 36.5013 10.9645C36.1807 10.8329 35.8902 10.6364 35.648 10.3872C35.1564 9.88055 34.8812 9.20019 34.8812 8.49168C34.8812 7.78317 35.1564 7.10281 35.648 6.59618C36.0238 6.22616 36.4997 5.9763 37.016 5.878C37.5323 5.7797 38.0659 5.83734 38.5497 6.04368C38.8539 6.16967 39.1252 6.36454 39.3427 6.61318L38.8956 7.06368C38.7281 6.86033 38.5158 6.69914 38.2757 6.59291C38.0355 6.48667 37.7741 6.43832 37.5122 6.45168C37.1815 6.45398 36.8565 6.53786 36.5654 6.69598C36.2744 6.8541 36.0262 7.08165 35.8426 7.35874C35.6589 7.63582 35.5455 7.95402 35.5121 8.2855C35.4786 8.61698 35.5263 8.95167 35.6509 9.2603C35.7755 9.56893 35.9732 9.84211 36.2268 10.056C36.4803 10.2698 36.782 10.4178 37.1054 10.4871C37.4289 10.5563 37.7642 10.5447 38.0822 10.4532C38.4001 10.3617 38.691 10.1931 38.9293 9.96218C39.187 9.67751 39.3364 9.31017 39.3511 8.92518H37.5122V8.31318H39.9669C39.9861 8.44269 39.9973 8.57327 40.0006 8.70418Z" fill="white" stroke="white" stroke-width="0.111544" stroke-miterlimit="10"/>
<path d="M43.8645 6.57941H41.5869V8.19441H43.662V8.80641H41.5869V10.4214H43.8645V11.0504H40.929V5.95041H43.8645V6.57941Z" fill="white" stroke="white" stroke-width="0.111544" stroke-miterlimit="10"/>
<path d="M46.6308 11.0504H45.9812V6.57941H44.5641V5.95041H48.0816V6.57941H46.6308V11.0504Z" fill="white" stroke="white" stroke-width="0.111544" stroke-miterlimit="10"/>
<path d="M50.5618 11.0504V5.95041H51.2113V11.0504H50.5618Z" fill="white" stroke="white" stroke-width="0.111544" stroke-miterlimit="10"/>
<path d="M54.0957 11.0504H53.4462V6.57941H52.0291V5.95041H55.5044V6.57941H54.0957V11.0504Z" fill="white" stroke="white" stroke-width="0.111544" stroke-miterlimit="10"/>
<path d="M62.0937 10.3868C61.8501 10.6325 61.5608 10.8274 61.2424 10.9604C60.9239 11.0934 60.5826 11.1618 60.2379 11.1618C59.8933 11.1618 59.5519 11.0934 59.2335 10.9604C58.9151 10.8274 58.6258 10.6325 58.3822 10.3868C57.9053 9.87601 57.6398 9.20113 57.6398 8.49982C57.6398 7.79852 57.9053 7.12363 58.3822 6.61282C58.6205 6.3602 58.9089 6.16082 59.2286 6.02758C59.5482 5.89434 59.8921 5.8302 60.2379 5.83932C60.5833 5.83382 60.9261 5.8996 61.2452 6.03263C61.5644 6.16566 61.8532 6.36311 62.0937 6.61282C62.3363 6.86144 62.5269 7.15651 62.6544 7.48061C62.7819 7.80471 62.8437 8.15127 62.836 8.49982C62.8471 8.84881 62.7869 9.19636 62.6592 9.52096C62.5316 9.84555 62.3391 10.1403 62.0937 10.3868V10.3868ZM58.863 9.96182C59.0427 10.1453 59.2567 10.291 59.4928 10.3905C59.7288 10.4899 59.9821 10.5411 60.2379 10.5411C60.4938 10.5411 60.7471 10.4899 60.9831 10.3905C61.2191 10.291 61.4332 10.1453 61.6129 9.96182C61.9769 9.56328 62.1789 9.04144 62.1789 8.49982C62.1789 7.9582 61.9769 7.43636 61.6129 7.03782C61.4332 6.85433 61.2191 6.70863 60.9831 6.60918C60.7471 6.50974 60.4938 6.45853 60.2379 6.45853C59.9821 6.45853 59.7288 6.50974 59.4928 6.60918C59.2567 6.70863 59.0427 6.85433 58.863 7.03782C58.499 7.43636 58.297 7.9582 58.297 8.49982C58.297 9.04144 58.499 9.56328 58.863 9.96182V9.96182Z" fill="white" stroke="white" stroke-width="0.111544" stroke-miterlimit="10"/>
<path d="M63.7548 11.0504V5.95041H64.5393L67.0024 9.91991V8.93391V5.95041H67.6519V11.0504H66.9771L64.4043 6.89391V7.87141V11.0504H63.7548Z" fill="white" stroke="white" stroke-width="0.111544" stroke-miterlimit="10"/>
<path d="M57.4776 18.4871C56.7669 18.4888 56.0726 18.7028 55.4826 19.1021C54.8926 19.5014 54.4333 20.068 54.1629 20.7303C53.8925 21.3926 53.823 22.1208 53.9633 22.8229C54.1036 23.525 54.4473 24.1693 54.9511 24.6746C55.4548 25.1798 56.0959 25.5231 56.7933 25.6612C57.4907 25.7993 58.213 25.7258 58.869 25.4502C59.525 25.1746 60.0851 24.7092 60.4786 24.1128C60.8721 23.5164 61.0812 22.8158 61.0795 22.0996C61.0864 21.6219 60.9978 21.1476 60.819 20.7051C60.6402 20.2625 60.3749 19.8608 60.0388 19.5237C59.7027 19.1867 59.3028 18.9212 58.8628 18.7431C58.4228 18.565 57.9517 18.478 57.4776 18.4871V18.4871ZM57.4776 24.2926C57.042 24.3233 56.6073 24.2213 56.23 23.9997C55.8527 23.7782 55.5503 23.4474 55.362 23.0503C55.1738 22.6533 55.1084 22.2083 55.1745 21.7734C55.2405 21.3384 55.4349 20.9335 55.7323 20.6113C56.0297 20.2891 56.4165 20.0646 56.8422 19.9668C57.268 19.869 57.7131 19.9026 58.1197 20.0631C58.5263 20.2236 58.8756 20.5037 59.1221 20.8669C59.3686 21.2301 59.501 21.6596 59.5021 22.0996C59.5157 22.3784 59.4737 22.6572 59.3787 22.9194C59.2837 23.1816 59.1375 23.422 58.9489 23.6264C58.7602 23.8308 58.5328 23.995 58.2801 24.1095C58.0274 24.2239 57.7546 24.2862 57.4776 24.2926ZM49.6158 18.4871C48.9051 18.4888 48.2109 18.7028 47.6208 19.1021C47.0308 19.5014 46.5716 20.068 46.3011 20.7303C46.0307 21.3926 45.9612 22.1208 46.1015 22.8229C46.2418 23.525 46.5855 24.1693 47.0893 24.6746C47.593 25.1798 48.2341 25.5231 48.9315 25.6612C49.6289 25.7993 50.3513 25.7258 51.0072 25.4502C51.6632 25.1746 52.2234 24.7092 52.6168 24.1128C53.0103 23.5164 53.2194 22.8158 53.2177 22.0996C53.2246 21.6219 53.136 21.1476 52.9572 20.7051C52.7784 20.2625 52.5131 19.8608 52.177 19.5237C51.841 19.1867 51.441 18.9212 51.001 18.7431C50.561 18.565 50.0899 18.478 49.6158 18.4871V18.4871ZM49.6158 24.2926C49.1802 24.3233 48.7455 24.2213 48.3682 23.9997C47.9909 23.7782 47.6885 23.4474 47.5003 23.0503C47.312 22.6533 47.2467 22.2083 47.3127 21.7734C47.3787 21.3384 47.5731 20.9335 47.8705 20.6113C48.168 20.2891 48.5547 20.0646 48.9805 19.9668C49.4062 19.869 49.8513 19.9026 50.2579 20.0631C50.6645 20.2236 51.0138 20.5037 51.2603 20.8669C51.5069 21.2301 51.6393 21.6596 51.6403 22.0996C51.6539 22.3784 51.612 22.6572 51.5169 22.9194C51.4219 23.1816 51.2758 23.422 51.0871 23.6264C50.8984 23.8308 50.671 23.995 50.4183 24.1095C50.1657 24.2239 49.8928 24.2862 49.6158 24.2926ZM40.2694 19.6006V21.1306H43.9135C43.8564 21.8513 43.5591 22.5313 43.07 23.0601C42.7044 23.4354 42.2648 23.7292 41.7795 23.9225C41.2941 24.1158 40.774 24.2042 40.2526 24.1821C39.1787 24.1821 38.1488 23.7523 37.3895 22.9871C36.6302 22.222 36.2036 21.1842 36.2036 20.1021C36.2036 19.0201 36.6302 17.9823 37.3895 17.2171C38.1488 16.452 39.1787 16.0221 40.2526 16.0221C41.2821 16.0067 42.2761 16.4007 43.0194 17.1186L44.0907 16.0391C43.5879 15.5381 42.991 15.1431 42.3348 14.8775C41.6786 14.6119 40.9765 14.4808 40.2694 14.4921C39.5195 14.4627 38.7714 14.5862 38.07 14.8551C37.3686 15.124 36.7282 15.5328 36.1873 16.057C35.6465 16.5812 35.2162 17.2101 34.9222 17.9059C34.6283 18.6017 34.4768 19.3502 34.4768 20.1064C34.4768 20.8626 34.6283 21.6111 34.9222 22.3069C35.2162 23.0027 35.6465 23.6315 36.1873 24.1558C36.7282 24.68 37.3686 25.0888 38.07 25.3577C38.7714 25.6266 39.5195 25.75 40.2694 25.7206C40.991 25.7497 41.7105 25.6246 42.3807 25.3536C43.0509 25.0826 43.6567 24.6718 44.1581 24.1481C45.044 23.1676 45.516 21.8779 45.4741 20.5526C45.4771 20.2337 45.4517 19.915 45.3981 19.6006H40.2694ZM78.4902 20.7906C78.2702 20.1385 77.8588 19.569 77.3105 19.1577C76.7622 18.7463 76.1028 18.5125 75.4197 18.4871C74.9583 18.4862 74.5016 18.5807 74.0778 18.7647C73.6541 18.9487 73.2723 19.2183 72.956 19.5569C72.6398 19.8955 72.3958 20.2958 72.2392 20.7332C72.0826 21.1705 72.0167 21.6356 72.0455 22.0996C72.0383 22.8756 72.2804 23.633 72.7356 24.2589C73.1909 24.8847 73.8348 25.3454 74.5713 25.572C75.3078 25.7987 76.0973 25.7791 76.8218 25.5164C77.5464 25.2536 78.1671 24.7617 78.5914 24.1141L77.3683 23.2641C77.1859 23.5704 76.9273 23.8233 76.618 23.9977C76.3088 24.1722 75.9596 24.2621 75.6053 24.2586C75.2396 24.2738 74.878 24.1773 74.5679 23.9816C74.2578 23.7859 74.0136 23.5002 73.8676 23.1621L78.6673 21.1646L78.4902 20.7906ZM73.5976 21.9976C73.5805 21.7336 73.6159 21.4688 73.7016 21.2187C73.7874 20.9686 73.9218 20.7383 74.0969 20.5412C74.2721 20.3441 74.4845 20.1842 74.7218 20.0708C74.9591 19.9575 75.2164 19.893 75.4787 19.8811C75.7505 19.8644 76.0212 19.9289 76.2567 20.0665C76.4923 20.2041 76.6824 20.4087 76.8031 20.6546L73.5976 21.9976ZM69.7005 25.4996H71.2779V14.8746H69.7005V25.4996ZM67.1193 19.2946H67.0602C66.8246 19.0242 66.5337 18.8083 66.2076 18.6616C65.8815 18.5149 65.5278 18.4409 65.1707 18.4446C64.2489 18.4897 63.3796 18.8904 62.743 19.5637C62.1064 20.2371 61.7513 21.1314 61.7513 22.0614C61.7513 22.9914 62.1064 23.8857 62.743 24.559C63.3796 25.2324 64.2489 25.6331 65.1707 25.6781C65.5283 25.6854 65.8831 25.6129 66.2097 25.466C66.5364 25.3191 66.8268 25.1013 67.0602 24.8281H67.1193V25.3466C67.1193 26.7321 66.3854 27.4716 65.2044 27.4716C64.8099 27.4629 64.4269 27.3362 64.104 27.1077C63.7811 26.8792 63.5328 26.5591 63.3908 26.1881L62.0243 26.7576C62.2769 27.397 62.7162 27.9441 63.284 28.3266C63.8518 28.7091 64.5215 28.9089 65.2044 28.8996C67.0518 28.8996 68.5786 27.8031 68.5786 25.1341V18.6996H67.1193V19.2946ZM65.3056 24.2926C64.753 24.2579 64.2342 24.0122 63.855 23.6056C63.4758 23.1989 63.2648 22.6619 63.2648 22.1039C63.2648 21.5459 63.4758 21.0089 63.855 20.6022C64.2342 20.1956 64.753 19.9499 65.3056 19.9151C65.5758 19.9269 65.8408 19.9933 66.085 20.1103C66.3291 20.2274 66.5474 20.3927 66.7268 20.5966C66.9063 20.8004 67.0432 21.0385 67.1295 21.2967C67.2157 21.5549 67.2495 21.828 67.2289 22.0996C67.2519 22.3722 67.2198 22.6467 67.1346 22.9064C67.0493 23.1662 66.9127 23.4058 66.7329 23.6108C66.5531 23.8158 66.3339 23.9819 66.0886 24.0991C65.8433 24.2163 65.5769 24.2821 65.3056 24.2926V24.2926ZM85.8796 14.8746H82.1005V25.4996H83.6779V21.4706H85.8796C86.3291 21.5032 86.7805 21.4421 87.2056 21.2911C87.6307 21.1401 88.0204 20.9024 88.3503 20.593C88.6802 20.2836 88.9434 19.909 89.1233 19.4925C89.3032 19.0761 89.3961 18.6268 89.3961 18.1726C89.3961 17.7185 89.3032 17.2692 89.1233 16.8527C88.9434 16.4363 88.6802 16.0617 88.3503 15.7523C88.0204 15.4428 87.6307 15.2052 87.2056 15.0542C86.7805 14.9032 86.3291 14.8421 85.8796 14.8746V14.8746ZM85.8796 19.9746H83.6779V16.3536H85.9133C86.1504 16.3536 86.3851 16.4007 86.6041 16.4921C86.8231 16.5835 87.0221 16.7175 87.1897 16.8864C87.3574 17.0553 87.4903 17.2558 87.5811 17.4765C87.6718 17.6972 87.7185 17.9338 87.7185 18.1726C87.7185 18.4115 87.6718 18.648 87.5811 18.8687C87.4903 19.0894 87.3574 19.29 87.1897 19.4589C87.0221 19.6278 86.8231 19.7618 86.6041 19.8532C86.3851 19.9446 86.1504 19.9916 85.9133 19.9916L85.8796 19.9746ZM95.614 18.4531C95.0395 18.4174 94.4673 18.5522 93.9681 18.8407C93.4688 19.1293 93.0645 19.559 92.805 20.0766L94.1968 20.6631C94.3375 20.4076 94.5485 20.1986 94.8045 20.0614C95.0605 19.9241 95.3504 19.8645 95.6393 19.8896C95.8395 19.8661 96.0424 19.8829 96.2362 19.9392C96.4299 19.9955 96.6105 20.0901 96.7676 20.2175C96.9246 20.3449 97.0549 20.5025 97.1508 20.6812C97.2468 20.8598 97.3064 21.056 97.3264 21.2581V21.3601C96.8191 21.0915 96.2545 20.9514 95.6815 20.9521C94.18 20.9521 92.6447 21.8021 92.6447 23.3491C92.6596 23.678 92.7399 24.0004 92.8808 24.2974C93.0217 24.5943 93.2205 24.8597 93.4652 25.0777C93.7099 25.2957 93.9956 25.462 94.3053 25.5666C94.615 25.6712 94.9425 25.712 95.2681 25.6866C95.664 25.7087 96.0585 25.6243 96.4113 25.4421C96.7641 25.2598 97.0624 24.9863 97.2758 24.6496H97.3264V25.4996H98.8447V21.4111C98.8447 19.5496 97.4445 18.4701 95.6477 18.4701L95.614 18.4531ZM95.42 24.2756C94.9054 24.2756 94.1884 24.0121 94.1884 23.3746C94.1884 22.5246 95.0826 22.2356 95.8755 22.2356C96.3766 22.2232 96.8718 22.3465 97.3095 22.5926C97.2565 23.0542 97.0393 23.4809 96.6981 23.7934C96.3569 24.106 95.9148 24.2834 95.4537 24.2926L95.42 24.2756ZM104.378 18.6996L102.573 23.3066H102.523L100.65 18.6996H98.9628L101.772 25.1426L100.169 28.7211H101.814L106.133 18.6996H104.378ZM90.2069 25.4996H91.7759V14.8746H90.2069V25.4996Z" fill="white"/>
<path d="M8.8072 6.40911C8.52922 6.74029 8.38739 7.166 8.41073 7.59911V26.4011C8.38203 26.8349 8.52452 27.2626 8.8072 27.5911L8.86624 27.6591L19.3177 17.1276V16.8726L8.86624 6.34961L8.8072 6.40911Z" fill="url(#paint0_linear)"/>
<path d="M22.7753 20.6376L19.3168 17.1271V16.8721L22.7753 13.3616L22.8512 13.4126L26.993 15.7756C28.1739 16.4471 28.1739 17.5521 26.993 18.2321L22.8681 20.5951L22.7753 20.6376Z" fill="url(#paint1_linear)"/>
<path d="M22.8766 20.5869L19.3169 16.9999L8.8064 27.5909C9.04476 27.8047 9.34986 27.9277 9.66879 27.9385C9.98772 27.9494 10.3004 27.8475 10.5525 27.6504L22.8766 20.5869" fill="url(#paint2_linear)"/>
<path d="M22.8766 13.4126L10.5525 6.3576C10.302 6.15778 9.98961 6.05335 9.67024 6.06268C9.35088 6.07201 9.045 6.19449 8.8064 6.4086L19.3169 16.9996L22.8766 13.4126Z" fill="url(#paint3_linear)"/>
<path opacity="0.2" d="M22.7754 20.5107L10.5525 27.5232C10.3095 27.708 10.0134 27.808 9.70898 27.808C9.40456 27.808 9.10843 27.708 8.86544 27.5232V27.5232L8.8064 27.5827L8.86544 27.6507C9.10843 27.8355 9.40456 27.9355 9.70898 27.9355C10.0134 27.9355 10.3095 27.8355 10.5525 27.6507L22.8766 20.5872L22.7754 20.5107Z" fill="black"/>
<path opacity="0.12" d="M8.80556 27.4716C8.53461 27.1345 8.40183 26.7057 8.4344 26.2731V26.4006C8.4057 26.8344 8.54819 27.2621 8.83087 27.5906L8.88992 27.5311L8.80556 27.4716Z" fill="black"/>
<path opacity="0.12" d="M26.993 18.1049L22.7753 20.5104L22.8512 20.5869L26.993 18.2239C27.2374 18.1197 27.4495 17.951 27.6069 17.7356C27.7642 17.5202 27.861 17.2661 27.8871 16.9999C27.8344 17.2418 27.726 17.4678 27.5707 17.6597C27.4154 17.8516 27.2175 18.0041 26.993 18.1049Z" fill="black"/>
<path opacity="0.25" d="M10.5527 6.47652L26.9933 15.8945C27.2178 15.9953 27.4157 16.1478 27.571 16.3397C27.7263 16.5316 27.8347 16.7576 27.8875 16.9995C27.8614 16.7333 27.7646 16.4792 27.6072 16.2638C27.4499 16.0484 27.2378 15.8797 26.9933 15.7755L10.5527 6.35752C9.38023 5.67752 8.41016 6.23852 8.41016 7.59852V7.72602C8.43546 6.36602 9.38023 5.80502 10.5527 6.47652Z" fill="white"/>
</g>
<defs>
<linearGradient id="paint0_linear" x1="18.3898" y1="7.40361" x2="4.1272" y2="21.5578" gradientUnits="userSpaceOnUse">
<stop stop-color="#00A0FF"/>
<stop offset="0.01" stop-color="#00A1FF"/>
<stop offset="0.26" stop-color="#00BEFF"/>
<stop offset="0.51" stop-color="#00D2FF"/>
<stop offset="0.76" stop-color="#00DFFF"/>
<stop offset="1" stop-color="#00E3FF"/>
</linearGradient>
<linearGradient id="paint1_linear" x1="28.5366" y1="16.9996" x2="8.13145" y2="16.9996" gradientUnits="userSpaceOnUse">
<stop stop-color="#FFE000"/>
<stop offset="0.41" stop-color="#FFBD00"/>
<stop offset="0.78" stop-color="#FFA500"/>
<stop offset="1" stop-color="#FF9C00"/>
</linearGradient>
<linearGradient id="paint2_linear" x1="20.9449" y1="18.9549" x2="1.59954" y2="38.1448" gradientUnits="userSpaceOnUse">
<stop stop-color="#FF3A44"/>
<stop offset="1" stop-color="#C31162"/>
</linearGradient>
<linearGradient id="paint3_linear" x1="6.15769" y1="0.152602" x2="14.7934" y2="8.7227" gradientUnits="userSpaceOnUse">
<stop stop-color="#32A071"/>
<stop offset="0.07" stop-color="#2DA771"/>
<stop offset="0.48" stop-color="#15CF74"/>
<stop offset="0.8" stop-color="#06E775"/>
<stop offset="1" stop-color="#00F076"/>
</linearGradient>
<clipPath id="clip0">
<rect width="113.878" height="34" fill="white"/>
</clipPath>
</defs>
</svg>
