<svg width="301" height="42" viewBox="0 0 301 42" fill="none" xmlns="http://www.w3.org/2000/svg">
<g clip-path="url(#clip0_16_7209)">
<path d="M105.132 22.1763C105.132 18.0668 103.324 14.4503 97.2262 14.4503C94.0926 14.4503 91.6036 15.3082 90.2509 16.0685L91.2443 19.3716C92.4861 18.6113 94.4625 17.9794 96.3331 17.9794C99.4297 17.9743 99.937 19.6849 99.937 20.7791V21.0411C93.1889 21.0308 88.9245 23.3013 88.9245 27.9298C88.9245 30.7551 91.0964 33.4058 94.8746 33.4058C97.1945 33.4058 99.1391 32.5068 100.302 31.0633H100.418C100.418 31.0633 101.189 34.1969 105.438 33C105.216 31.6952 105.142 30.3031 105.142 28.6284V22.1815L105.132 22.1763ZM100.096 26.5171C100.096 26.851 100.064 27.1952 99.9687 27.4983C99.5777 28.7568 98.2408 29.815 96.5656 29.815C95.1706 29.815 94.0609 29.0445 94.0609 27.4161C94.0609 24.9246 96.8827 24.2363 100.096 24.2517V26.512V26.5171Z" fill="white"/>
<path d="M0 8.85614C0 8.85614 4.40712 26.4195 5.10993 29.2705C5.929 32.5993 7.4139 33.8219 11.6783 32.9948L14.4315 22.1044C15.129 19.3972 15.5993 17.4709 16.0485 14.7226H16.1277C16.4448 17.5017 16.894 19.4126 17.4647 22.1147C17.4647 22.1147 18.5849 27.0565 19.1609 29.6558C19.7369 32.25 21.3381 33.8887 25.518 32.9948L32.0758 8.85614H26.7809L24.5404 19.2945C23.938 22.3305 23.3937 24.7089 22.9709 27.488H22.8969C22.5165 24.7346 22.025 22.4589 21.4121 19.4948L19.0817 8.85614H13.5648L11.0706 19.2226C10.3625 22.3716 9.70201 24.9195 9.28455 27.601H9.21056C8.77725 25.0736 8.20654 21.8733 7.583 18.827C7.583 18.827 6.10339 11.4092 5.58024 8.85614H0V8.85614Z" fill="white"/>
<path d="M47.1308 22.1763C47.1308 18.0668 45.3236 14.4503 39.2255 14.4503C36.0919 14.4503 33.603 15.3082 32.2502 16.0685L33.2436 19.3716C34.4855 18.6113 36.4618 17.9794 38.3324 17.9794C41.4291 17.9743 41.9363 19.6849 41.9363 20.7791V21.0411C35.1883 21.0308 30.9238 23.3013 30.9238 27.9298C30.9238 30.7551 33.0957 33.4058 36.8687 33.4058C39.1938 33.4058 41.1331 32.5068 42.301 31.0633H42.4172C42.4172 31.0633 43.1887 34.1969 47.4373 33C47.2154 31.6952 47.1414 30.3031 47.1414 28.6284V22.1815L47.1308 22.1763ZM42.0949 26.5171C42.0949 26.851 42.0632 27.1952 41.9681 27.4983C41.577 28.7568 40.2401 29.815 38.565 29.815C37.1699 29.815 36.0602 29.0445 36.0602 27.4161C36.0602 24.9246 38.882 24.2363 42.0949 24.2517V26.512V26.5171Z" fill="white"/>
<path d="M55.5329 27.8733V8.85614H50.4917V33H55.5329V27.8733Z" fill="white"/>
<path d="M121.513 8.85614V26.6661C121.513 29.1216 121.988 30.8424 123.003 31.8904C123.891 32.8099 125.355 33.4058 127.109 33.4058C128.599 33.4058 130.068 33.1284 130.76 32.8818L130.697 29.0496C130.184 29.1729 129.593 29.2705 128.784 29.2705C127.067 29.2705 126.491 28.202 126.491 25.9983V19.1866H130.882V14.5685H126.491V8.86128H121.518L121.513 8.85614Z" fill="white"/>
<path d="M108.498 14.8613V32.9948H113.697V23.7072C113.697 23.2038 113.729 22.7671 113.808 22.3664C114.194 20.4195 115.721 19.1764 117.92 19.1764C118.522 19.1764 118.955 19.238 119.42 19.3048V14.5582C119.029 14.4811 118.76 14.4452 118.274 14.4452C116.334 14.4452 114.125 15.6627 113.195 18.2774H113.053V14.8561H108.487L108.498 14.8613Z" fill="white"/>
<path d="M59.0681 14.8613V32.9948H64.1357V22.3613C64.1357 21.863 64.1939 21.3339 64.3735 20.8767C64.7963 19.8082 65.8162 18.5548 67.4543 18.5548C69.4993 18.5548 70.4558 20.2346 70.4558 22.6643V33H75.5182V22.238C75.5182 21.7602 75.5869 21.19 75.7295 20.7688C76.147 19.5513 77.2514 18.5599 78.7733 18.5599C80.8448 18.5599 81.8435 20.214 81.8435 23.065V33H86.9112V22.3202C86.9112 16.6849 83.9678 14.4554 80.6492 14.4554C79.1802 14.4554 78.0176 14.815 76.9661 15.4417C76.0836 15.9657 75.2909 16.7157 74.604 17.702H74.53C73.7268 15.75 71.8456 14.4606 69.3884 14.4606C66.2336 14.4606 64.8174 16.0171 63.9561 17.3322H63.8821V14.8664H59.0681V14.8613Z" fill="white"/>
<path d="M158.186 14.137C159.201 14.137 160.03 13.6284 160.147 12.9658L161.145 1.97774C161.145 0.893836 159.835 0 158.191 0C156.548 0 155.243 0.893836 155.243 1.97774L156.241 12.9658C156.352 13.6284 157.187 14.137 158.197 14.137H158.186Z" fill="#FFC220"/>
<path d="M152.077 17.5736C152.585 16.7209 152.548 15.7654 152.014 15.339L142.724 9.00511C141.757 8.46059 140.309 9.11812 139.49 10.5C138.666 11.8818 138.814 13.4281 139.775 13.9726L150.064 18.6267C150.709 18.8579 151.586 18.4161 152.088 17.5633L152.077 17.5736Z" fill="#FFC220"/>
<path d="M164.3 17.5685C164.807 18.4213 165.679 18.863 166.324 18.6319L176.612 13.9778C177.579 13.4332 177.722 11.887 176.903 10.5052C176.079 9.11817 174.626 8.46577 173.664 9.01029L164.374 15.3442C163.84 15.7706 163.803 16.726 164.311 17.5788L164.3 17.5685Z" fill="#FFC220"/>
<path d="M158.186 27.863C159.201 27.863 160.03 28.3716 160.147 29.0343L161.145 40.0223C161.145 41.1113 159.835 42 158.191 42C156.548 42 155.243 41.1113 155.243 40.0223L156.241 29.0343C156.352 28.3716 157.187 27.863 158.197 27.863H158.186Z" fill="#FFC220"/>
<path d="M164.3 24.4315C164.807 23.5788 165.679 23.137 166.324 23.3733L176.612 28.0223C177.579 28.5668 177.722 30.113 176.903 31.5C176.079 32.8819 174.626 33.5394 173.664 32.9949L164.374 26.6661C163.84 26.2346 163.803 25.2791 164.311 24.4315H164.3Z" fill="#FFC220"/>
<path d="M152.077 24.4315C152.585 25.2843 152.548 26.2397 152.014 26.6661L142.724 32.9949C141.757 33.5343 140.309 32.8819 139.49 31.5C138.666 30.113 138.814 28.5668 139.775 28.0223L150.064 23.3733C150.709 23.137 151.586 23.5788 152.088 24.4315H152.077Z" fill="#FFC220"/>
<path d="M197.781 20.7585C199.663 21.5188 202.004 23.2089 202.004 26.3476C202.004 30.2106 198.918 33.0051 194.516 33.0051H186.177C185.786 33.0051 185.501 32.6969 185.501 32.3476V9.51367C185.501 9.1695 185.786 8.85614 186.177 8.85614H194.019C198.347 8.85614 201.222 11.5839 201.222 15.2055C201.222 18 199.409 19.726 197.781 20.6918V20.7585V20.7585ZM194.341 30.6935C197.216 30.6935 199.029 28.7979 199.029 26.3116C199.029 23.8253 196.899 22.0685 194.199 22.0685H188.095V30.6935H194.341ZM193.559 19.6849C196.471 19.6849 198.209 17.7894 198.209 15.3698C198.209 12.9503 196.471 11.2294 193.559 11.2294H188.164V19.6849H193.559Z" fill="white"/>
<path d="M204.841 17.8253C204.841 17.4452 205.158 17.0651 205.623 17.0651H206.691C207.119 17.0651 207.473 17.4452 207.473 17.8253V26.4503C207.473 29.625 208.54 31.0736 210.913 31.0736C213.286 31.0736 214.818 29.589 215.563 28.762V17.8253C215.563 17.4452 215.88 17.0651 216.308 17.0651H217.407C217.798 17.0651 218.152 17.4452 218.152 17.8253V32.5223C218.152 32.9024 217.904 33.1438 217.513 33.1438C216.451 33.1438 215.88 32.3836 215.775 31.3151C214.818 32.2808 213.328 33.3853 210.696 33.3853C205.977 33.3853 204.841 30.6267 204.841 26.4144V17.8253V17.8253Z" fill="white"/>
<path d="M221.239 31.4538C221.059 31.2791 220.99 31.0377 221.133 30.7654L221.63 29.8664C221.841 29.4863 222.126 29.3476 222.586 29.661C223.157 30.0771 224.573 31.0736 226.666 31.0736C228.335 31.0736 229.471 30.3134 229.471 29.0702C229.471 27.5497 228.193 26.9332 225.815 25.7928C223.648 24.7603 221.165 23.6199 221.165 20.8921C221.165 19.238 222.443 16.7158 226.237 16.7158C228.367 16.7158 230.143 17.4041 230.925 17.9589C231.279 18.2363 231.353 18.5805 231.104 19.0274L230.75 19.6849C230.502 20.1319 229.968 20.1678 229.614 19.9623C228.906 19.5462 227.77 19.0325 226.243 19.0325C224.43 19.0325 223.828 20.0343 223.828 20.7945C223.828 22.2072 224.964 22.726 226.951 23.625C229.789 24.899 232.24 25.9366 232.24 28.8339C232.24 31.351 230.005 33.3904 226.666 33.3904C223.934 33.3904 222.089 32.2192 221.233 31.4589L221.239 31.4538Z" fill="white"/>
<path d="M234.581 11.101C234.581 9.99655 235.432 9.16949 236.5 9.16949C237.567 9.16949 238.45 9.99655 238.45 11.101C238.45 12.1027 237.599 12.9657 236.5 12.9657C235.4 12.9657 234.581 12.1027 234.581 11.101ZM235.258 17.8305C235.258 17.4503 235.612 17.0702 236.04 17.0702H237.102C237.493 17.0702 237.884 17.4503 237.884 17.8305V32.2551C237.884 32.6712 237.493 33.0154 237.102 33.0154H236.04C235.612 33.0154 235.258 32.6712 235.258 32.2551V17.8305Z" fill="white"/>
<path d="M241.821 17.5531C241.821 17.1729 242.069 16.9315 242.46 16.9315C243.491 16.9315 244.056 17.6918 244.162 18.7243C245.192 17.8613 247.105 16.7209 249.663 16.7209C254.419 16.7209 255.592 19.7209 255.592 23.8305V32.25C255.592 32.6661 255.201 33.0103 254.81 33.0103H253.748C253.32 33.0103 252.966 32.6661 252.966 32.25V23.4863C252.966 20.4503 251.903 19.0377 249.488 19.0377C246.402 19.0377 244.447 21.2466 244.447 21.2466V32.2551C244.447 32.6712 244.056 33.0154 243.665 33.0154H242.603C242.175 33.0154 241.821 32.6712 241.821 32.2551V17.5582V17.5531Z" fill="white"/>
<path d="M266.271 16.7209C270.568 16.7209 273.691 19.7928 273.691 23.964C273.691 24.2414 273.654 24.6524 273.622 24.9298C273.585 25.3459 273.231 25.6182 272.877 25.6182H260.95C261.019 28.274 263.328 31.0685 266.308 31.0685C268.475 31.0685 269.823 30.3442 270.747 29.7586C271.318 29.3784 271.566 29.2397 271.989 29.8613L272.417 30.4469C272.734 30.9298 272.877 31.1045 272.274 31.5514C271.281 32.3116 269.114 33.3801 266.277 33.3801C261.309 33.3801 258.324 29.5839 258.324 25.0325C258.324 20.4812 261.304 16.7158 266.277 16.7158L266.271 16.7209ZM271.064 23.589C270.996 21.2414 269.077 19.0325 266.271 19.0325C263.465 19.0325 261.304 21.1027 260.982 23.589H271.064Z" fill="white"/>
<path d="M276.359 31.4538C276.18 31.2791 276.111 31.0377 276.254 30.7654L276.75 29.8664C276.962 29.4863 277.247 29.3476 277.707 29.661C278.277 30.0771 279.694 31.0736 281.786 31.0736C283.456 31.0736 284.592 30.3134 284.592 29.0702C284.592 27.5497 283.313 26.9332 280.935 25.7928C278.769 24.7603 276.285 23.6199 276.285 20.8921C276.285 19.238 277.564 16.7158 281.358 16.7158C283.488 16.7158 285.263 17.4041 286.045 17.9589C286.399 18.2363 286.473 18.5805 286.225 19.0274L285.871 19.6849C285.623 20.1319 285.089 20.1678 284.735 19.9623C284.027 19.5462 282.891 19.0325 281.363 19.0325C279.556 19.0325 278.949 20.0343 278.949 20.7945C278.949 22.2072 280.085 22.726 282.072 23.625C284.909 24.899 287.361 25.9366 287.361 28.8339C287.361 31.351 285.126 33.3904 281.786 33.3904C279.054 33.3904 277.21 32.2192 276.354 31.4589L276.359 31.4538Z" fill="white"/>
<path d="M289.998 31.4538C289.818 31.2791 289.75 31.0377 289.892 30.7654L290.389 29.8664C290.6 29.4863 290.886 29.3476 291.346 29.661C291.916 30.0771 293.332 31.0736 295.425 31.0736C297.095 31.0736 298.231 30.3134 298.231 29.0702C298.231 27.5497 296.952 26.9332 294.574 25.7928C292.408 24.7603 289.924 23.6199 289.924 20.8921C289.924 19.238 291.203 16.7158 294.997 16.7158C297.127 16.7158 298.902 17.4041 299.684 17.9589C300.038 18.2363 300.112 18.5805 299.864 19.0274L299.51 19.6849C299.261 20.1319 298.728 20.1678 298.374 19.9623C297.666 19.5462 296.529 19.0325 295.002 19.0325C293.19 19.0325 292.587 20.0343 292.587 20.7945C292.587 22.2072 293.723 22.726 295.71 23.625C298.548 24.899 301 25.9366 301 28.8339C301 31.351 298.765 33.3904 295.425 33.3904C292.693 33.3904 290.849 32.2192 289.993 31.4589L289.998 31.4538Z" fill="white"/>
</g>
<defs>
<clipPath id="clip0_16_7209">
<rect width="301" height="42" fill="white"/>
</clipPath>
</defs>
</svg>

