<svg width="16" height="16" xmlns="http://www.w3.org/2000/svg">
  <path d="M9.41 1.59l.88.87h1.25a2 2 0 011.35.53l-.7.71a1 1 0 00-.54-.23H9.88L8.7 2.28a1 1 0 00-1.32-.08l-.1.08-1.17 1.17H4.46a1 1 0 00-.99.89v1.77L2.28 7.29a1 1 0 00-.08 1.32l.08.1 1.17 1.17v1.66a1 1 0 00.89.99h1.77l1.17 1.18a1 1 0 001.32.08l.1-.08 1.17-1.18h1.66a1 1 0 00.99-.88V9.88l1.18-1.17a1 1 0 00.08-1.32l-.08-.1-.45-.44.71-.7.44.44a2 2 0 010 2.82l-.88.88v1.25a2 2 0 01-2 2H10.3l-.88.87a2 2 0 01-2.82 0l-.88-.88H4.46a2 2 0 01-2-2V10.3l-.87-.88a2 2 0 010-2.82l.87-.88V4.46c0-1.1.9-2 2-2h1.25l.88-.87a2 2 0 012.82 0zm5.44 1.56c.18.18.2.46.04.66l-.04.05-6.5 6.5a.5.5 0 01-.65.04l-.05-.04-2.5-2.43a.5.5 0 01.65-.76l.05.04L7.99 9.3l6.15-6.15c.2-.2.51-.2.7 0z" fill="#000" fill-rule="evenodd" />
</svg>
