<svg width="34" height="24" viewBox="0 0 34 24" fill="none" xmlns="http://www.w3.org/2000/svg">
  <path fill="#fff" d="M0 0h34v24H0z"/>
  <path d="M22.774 7.415l.594-1.57H26V3H8v18h18v-2.844h-2.505l-.934-1.062-.934 1.062H14.58v-5.689h-2.335l2.93-6.58h2.844l.68 1.486V5.887h3.523l.552 1.528zM20.82 8.476V7.84l.255.636 1.188 3.142h1.104l1.189-3.142.212-.636v3.736H26V6.777h-2.038l-.934 2.42-.254.68-.255-.68-.934-2.42h-2.038v4.798h1.274v-3.1zm-2.632 3.1h1.4l-2.122-4.798H15.81l-2.122 4.798h1.4l.383-.934h2.335l.382.934zm-1.783-3.142l.254-.594.255.594.51 1.231h-1.486l.467-1.231zm-.85 4.033v4.797h3.991v-1.019h-2.802v-.849h2.717v-1.019h-2.717v-.849h2.802V12.51l-3.99-.042zm8.491 4.755h1.57l-2.25-2.378 2.25-2.377h-1.57l-1.443 1.57-1.444-1.57h-1.613l2.25 2.42-2.25 2.377h1.529l1.443-1.57 1.528 1.528zm.595-2.378L26 16.245v-2.76l-1.358 1.36z" fill="#006FCF"/>
</svg>
