<svg width="34" height="24" viewBox="0 0 34 24" fill="none" xmlns="http://www.w3.org/2000/svg">
  <path fill="#fff" d="M0 0h34v24H0z"/>
  <path d="M20.826 5.752h-7.65v12.495h7.65V5.752z" fill="#FF5F00"/>
  <path d="M13.964 12a7.933 7.933 0 013.035-6.246 7.946 7.946 0 100 12.494A7.933 7.933 0 0113.964 12z" fill="#EB001B"/>
  <path d="M29.097 16.924v-.257h.11v-.053h-.263v.053h.104v.257h.049zm.51 0v-.31h-.08l-.092.221-.093-.22h-.08v.309h.058v-.235l.086.201h.06l.086-.2v.234h.055zM29.855 12A7.945 7.945 0 0117 18.248a7.945 7.945 0 000-12.495A7.946 7.946 0 0129.856 12z" fill="#F79E1B"/>
</svg>
