<svg width="34" height="24" viewBox="0 0 34 24" fill="none" xmlns="http://www.w3.org/2000/svg">
  <path fill="#fff" d="M0 0h34v24H0z"/>
  <path fill-rule="evenodd" clip-rule="evenodd" d="M10.189 16.222H8.794a.194.194 0 00-.191.163L8.04 19.96a.116.116 0 00.115.135h.666c.095 0 .176-.07.191-.164l.152-.964a.193.193 0 01.191-.164h.442c.918 0 1.448-.444 1.587-1.325.062-.385.002-.688-.178-.9-.198-.233-.55-.356-1.016-.356zm.16 1.306c-.076.5-.458.5-.828.5h-.21l.148-.934a.116.116 0 01.114-.098h.097c.252 0 .49 0 .612.143.073.086.095.213.068.389zm4.007-.016h-.668a.116.116 0 00-.114.098l-.03.186-.046-.067c-.145-.21-.467-.28-.79-.28-.737 0-1.367.559-1.49 1.342-.063.391.027.765.25 1.026.203.24.494.34.84.34.594 0 .924-.383.924-.383l-.03.186a.116.116 0 00.115.134h.601a.194.194 0 00.192-.163l.36-2.285a.116.116 0 00-.114-.134zm-.93 1.299a.744.744 0 01-.754.637c-.194 0-.349-.062-.448-.18a.568.568 0 01-.105-.469.747.747 0 01.748-.642c.19 0 .344.063.446.182.101.12.142.287.112.472zm4.486-1.3h-.671a.194.194 0 00-.16.086l-.926 1.362-.392-1.31a.194.194 0 00-.186-.137h-.66a.116.116 0 00-.11.153l.74 2.169-.695.98a.116.116 0 00.095.184h.67a.193.193 0 00.159-.083l2.231-3.221a.116.116 0 00-.095-.182z" fill="#0F3182"/>
  <path fill-rule="evenodd" clip-rule="evenodd" d="M20.133 16.222h-1.394a.194.194 0 00-.192.163l-.564 3.575a.116.116 0 00.115.134h.716a.136.136 0 00.133-.114l.16-1.013a.193.193 0 01.192-.164h.44c.92 0 1.45-.445 1.588-1.325.062-.386.002-.688-.178-.9-.198-.233-.55-.356-1.016-.356zm.16 1.306c-.075.5-.457.5-.827.5h-.21l.147-.934a.116.116 0 01.115-.099h.096c.252 0 .49 0 .612.144.073.086.096.213.068.389zm4.007-.016h-.667a.116.116 0 00-.115.098l-.03.186-.046-.067c-.145-.21-.467-.28-.788-.28-.738 0-1.368.558-1.49 1.342-.064.391.026.765.248 1.026.204.24.494.34.84.34.595 0 .925-.383.925-.383l-.03.186a.116.116 0 00.115.134h.601a.193.193 0 00.191-.163l.361-2.285a.116.116 0 00-.115-.134zm-.93 1.299a.744.744 0 01-.754.637c-.193 0-.348-.062-.448-.18-.099-.117-.136-.283-.105-.469a.748.748 0 01.748-.642c.19 0 .344.063.446.181.102.12.142.288.113.473zm1.717-2.491l-.572 3.64a.116.116 0 00.115.134h.575a.192.192 0 00.191-.163l.565-3.575a.116.116 0 00-.115-.134h-.644a.116.116 0 00-.115.098z" fill="#459BD9"/>
  <path fill-rule="evenodd" clip-rule="evenodd" d="M15.167 14.481l.206-1.308-.458-.01h-2.19l1.521-9.652a.124.124 0 01.124-.106h3.693c1.227 0 2.073.255 2.515.759.207.236.338.483.402.755.067.285.068.625.003 1.04l-.005.031v.266l.207.117c.175.093.314.199.42.32.177.202.291.459.34.763.05.313.033.686-.049 1.108a3.898 3.898 0 01-.453 1.253c-.19.318-.432.583-.719.787-.274.195-.6.342-.968.437-.356.093-.763.14-1.21.14h-.287a.872.872 0 00-.561.207.87.87 0 00-.293.522l-.022.118-.364 2.306-.016.084c-.005.027-.012.04-.023.05a.06.06 0 01-.038.013h-1.775z" fill="#28356A"/>
  <path fill-rule="evenodd" clip-rule="evenodd" d="M21.382 6.02a6.636 6.636 0 01-.038.217c-.487 2.501-2.153 3.365-4.282 3.365H15.98c-.26 0-.48.189-.52.446l-.712 4.515a.277.277 0 00.274.321h1.921a.462.462 0 00.457-.39l.019-.097.362-2.297.023-.126a.462.462 0 01.457-.39h.287c1.862 0 3.32-.756 3.746-2.944.178-.914.086-1.677-.385-2.214a1.838 1.838 0 00-.526-.405z" fill="#459BD9"/>
  <path fill-rule="evenodd" clip-rule="evenodd" d="M20.872 5.818a3.813 3.813 0 00-.473-.105 6.02 6.02 0 00-.956-.07H16.55a.46.46 0 00-.457.39l-.616 3.9-.017.115a.526.526 0 01.52-.446h1.083c2.129 0 3.795-.864 4.282-3.365.015-.074.027-.146.038-.216a2.59 2.59 0 00-.51-.203z" fill="#22284F"/>
  <path fill-rule="evenodd" clip-rule="evenodd" d="M16.091 6.033a.46.46 0 01.457-.39h2.895c.342 0 .663.023.955.07a4.346 4.346 0 01.474.105l.109.034c.144.048.277.104.4.169.145-.924 0-1.554-.5-2.123-.551-.628-1.546-.896-2.818-.896H14.37a.528.528 0 00-.522.446l-1.538 9.751a.317.317 0 00.313.367h2.28l1.188-7.533z" fill="#0F3182"/>
</svg>
