<svg width="34" height="24" viewBox="0 0 34 24" fill="none" xmlns="http://www.w3.org/2000/svg">
  <path fill="#fff" d="M0 0h34v24H0z"/>
  <path d="M13.872 8.153l-3.405 8.121h-2.22L6.57 9.792c-.101-.4-.19-.545-.5-.713-.504-.274-1.338-.531-2.071-.69l.05-.24h3.574a.979.979 0 01.97.826l.884 4.7 2.186-5.527 2.208.005zm8.701 5.47c.01-2.144-2.963-2.262-2.943-3.22.006-.292.284-.602.89-.68a3.958 3.958 0 012.072.36l.369-1.722A5.657 5.657 0 0020.996 8c-2.076 0-3.539 1.104-3.55 2.685-.014 1.17 1.043 1.822 1.839 2.21.818.399 1.094.653 1.09 1.01-.006.544-.653.785-1.258.794-1.055.017-1.67-.284-2.158-.513l-.38 1.78c.49.225 1.397.421 2.336.431 2.208 0 3.65-1.09 3.658-2.778v.004zm5.483 2.644H30l-1.696-8.121h-1.793a.954.954 0 00-.895.595l-3.152 7.526h2.206l.438-1.213h2.695l.253 1.213zm-2.344-2.878l1.107-3.036.632 3.043-1.739-.007zm-8.838-5.243l-1.738 8.121h-2.101l1.738-8.121h2.1z" fill="#1A1F71"/>
</svg>
