<svg width="50" height="50" viewBox="0 0 50 50" fill="none" xmlns="http://www.w3.org/2000/svg">
<mask id="mask0_1628_22531" style="mask-type:alpha" maskUnits="userSpaceOnUse" x="0" y="0" width="50" height="50">
<circle cx="25" cy="25" r="25" fill="white"/>
</mask>
<g mask="url(#mask0_1628_22531)">
<rect x="-0.312805" y="-1.25" width="51.875" height="51.875" fill="#D3EFF8"/>
<path fill-rule="evenodd" clip-rule="evenodd" d="M4.99969 28.6986H43.0819V33.3562H35.1768H31.5537V32.0254L20.3786 31.8591L18.7317 33.3562H10.2265V30.8611H4.99969V28.6986Z" fill="#041E42"/>
<path fill-rule="evenodd" clip-rule="evenodd" d="M32.9449 19.1507C32.9449 18.5984 33.3926 18.1507 33.9449 18.1507L40.0134 18.1507L41.8953 18.1507C42.2561 18.1507 42.5863 18.3461 42.7257 18.6788C43.0602 19.4773 43.6514 21.1941 43.9586 23.9155C44.0408 28.1156 44.0408 31.9863 44.0408 31.9863H40.5065V31.9863C39.4992 29.9677 37.4372 28.6921 35.1811 28.6921H32.9449V19.1507Z" fill="#BABBBE"/>
<path fill-rule="evenodd" clip-rule="evenodd" d="M34.7257 20.0413C34.7257 19.3754 35.2655 18.8356 35.9314 18.8356H41.0123C41.4057 18.8356 41.7744 19.0289 41.95 19.3809C42.1288 19.7396 42.354 20.2682 42.5377 20.9458C42.904 22.2972 42.9449 26.0959 42.9449 26.0959L37.1915 24.0411H35.2257C34.9496 24.0411 34.7257 23.8172 34.7257 23.5411V20.0413Z" fill="#041E42"/>
<mask id="mask1_1628_22531" style="mask-type:alpha" maskUnits="userSpaceOnUse" x="34" y="18" width="9" height="9">
<path fill-rule="evenodd" clip-rule="evenodd" d="M34.7257 19.3356C34.7257 19.0595 34.9496 18.8356 35.2257 18.8356H41.0123C41.4057 18.8356 41.7744 19.0289 41.95 19.3809C42.1288 19.7396 42.354 20.2682 42.5377 20.9458C42.904 22.2972 42.9449 26.0959 42.9449 26.0959L37.1915 24.0411H35.2257C34.9496 24.0411 34.7257 23.8172 34.7257 23.5411V19.3356Z" fill="white"/>
</mask>
<g mask="url(#mask1_1628_22531)">
<rect x="34.0408" y="17.3288" width="10.5479" height="2.46575" fill="#8CD1FC"/>
</g>
<ellipse cx="36.1753" cy="32.6491" rx="3.21918" ry="3.21918" fill="#002042"/>
<ellipse cx="36.1753" cy="32.649" rx="2.12329" ry="2.12329" fill="#E8E8E8"/>
<ellipse cx="36.1753" cy="32.649" rx="0.616438" ry="0.61644" fill="#041E42"/>
<ellipse cx="14.226" cy="32.6491" rx="3.21918" ry="3.21918" fill="#041E42"/>
<ellipse cx="14.2258" cy="32.6508" rx="2.12329" ry="2.12329" fill="#E8E8E8"/>
<ellipse cx="14.2258" cy="32.6479" rx="0.616438" ry="0.61644" fill="#041E42"/>
<rect x="34.7257" y="24.726" width="2.46574" height="0.821918" fill="#002042"/>
<rect x="42.5339" y="23.3562" width="0.958904" height="3.28767" fill="white"/>
<path d="M43.0819 31.1644H44.9997V31.4384C44.9997 32.4975 44.1411 33.3562 43.0819 33.3562V33.3562V31.1644Z" fill="#031D43"/>
<rect x="31.5522" y="25.1355" width="1.40393" height="3.63369" fill="#002042"/>
<rect x="4.99969" y="15" width="27.2603" height="13.6986" fill="#0071DC"/>
<path fill-rule="evenodd" clip-rule="evenodd" d="M19.2258 17.7412C18.8774 17.7412 18.6007 17.9271 18.6007 18.1522L18.8158 20.4469C18.8364 20.5839 19.0157 20.6915 19.2258 20.6915C19.441 20.6915 19.6203 20.5839 19.646 20.4469L19.856 18.1522C19.856 17.9271 19.5793 17.7412 19.2258 17.7412ZM15.9409 19.6212C15.7359 19.5087 15.4285 19.6457 15.2543 19.9343C15.0749 20.223 15.1057 20.5459 15.3157 20.6585L17.4986 21.6321C17.6369 21.6761 17.8214 21.5832 17.929 21.4071C18.0366 21.2309 18.0264 21.0303 17.9136 20.9423L15.9409 19.6212ZM23.1465 20.6585C23.3515 20.5459 23.3822 20.223 23.208 19.9343C23.0287 19.6457 22.7212 19.5087 22.5163 19.6212L20.5435 20.9423C20.4308 21.0303 20.4205 21.2309 20.5281 21.4071C20.6357 21.5832 20.8202 21.6761 20.9585 21.6321L23.1465 20.6585ZM15.3157 23.5902C15.1057 23.7076 15.0749 24.0306 15.2543 24.3192C15.4285 24.6079 15.7359 24.7449 15.9409 24.6324L17.9136 23.3113C18.0264 23.2184 18.0366 23.0177 17.929 22.8416C17.8214 22.6654 17.6369 22.5725 17.4986 22.6214L15.3157 23.5902ZM20.9585 22.6214C20.8202 22.5725 20.6357 22.6654 20.5281 22.8416C20.4205 23.0177 20.4308 23.2184 20.5435 23.3113L22.5163 24.6324C22.7212 24.7449 23.0287 24.6079 23.208 24.3192C23.3822 24.0306 23.3515 23.7076 23.1465 23.5902L20.9585 22.6214ZM19.2309 23.5588C19.0157 23.5588 18.8364 23.6616 18.8158 23.7986L18.6007 26.0933C18.6007 26.3233 18.8774 26.5092 19.2258 26.5092C19.5793 26.5092 19.856 26.3233 19.856 26.0933L19.646 23.7986C19.6203 23.6616 19.441 23.5588 19.2309 23.5588Z" fill="#FFC220"/>
</g>
</svg>
