<svg xmlns="http://www.w3.org/2000/svg" width="90" height="60" viewBox="0 0 90 60">
    <g fill="none" fill-rule="evenodd">
        <rect width="90" height="60" fill="#FFD76E" rx="2"/>
        <path fill="#000" d="M0 7.5H90V18.75H0z"/>
        <path fill="#FFF" d="M5.625 26.25H84.375V39.375H5.625z"/>
        <path fill="#000" fill-rule="nonzero" d="M69.702 30.816l-.843.187c-.094.019-.188-.037-.197-.131l-.056-.469c-.01-.103.009-.14.093-.206l1.2-1.013c.094-.084.197-.122.328-.122h.488c.103 0 .178.085.178.179v6.197c0 .103-.075.187-.178.187h-.825c-.113 0-.188-.084-.188-.188v-4.621zm4.21 3.778h2.063c.103 0 .187.084.187.178v.666c0 .103-.084.187-.187.187h-3.806c-.104 0-.179-.084-.179-.188v-.093c0-.103.047-.178.075-.216.657-.806 1.81-2.306 2.429-3.122.3-.365.487-.74.487-1.069 0-.43-.328-.871-1.022-.871-.46 0-.862.328-1.078.562-.084.084-.187.084-.262 0l-.47-.46c-.055-.055-.074-.177-.009-.252 0 0 .76-.947 1.904-.947 1.387 0 2.156.881 2.156 1.922 0 .628-.272 1.012-.647 1.556-.403.581-1.134 1.481-1.64 2.128v.019zm3.076.272c-.057-.075-.047-.178.01-.244l.496-.478c.084-.075.169-.075.244 0 .262.262.6.525 1.19.525.591 0 1.022-.375 1.022-.872 0-.619-.46-.994-1.331-.994h-.544c-.103 0-.178-.075-.178-.187v-.61c0-.131.066-.197.178-.197h.544c.797 0 1.2-.384 1.2-.88 0-.526-.45-.882-.938-.882-.506 0-.815.262-.975.46-.065.074-.178.084-.262.009l-.469-.441c-.084-.066-.065-.178 0-.253.281-.356.881-.853 1.81-.853 1.125 0 2.062.684 2.062 1.772 0 .834-.562 1.293-.994 1.49v.038c.516.197 1.163.712 1.163 1.565 0 1.097-.89 1.885-2.222 1.885-1.2 0-1.79-.61-2.006-.853z"/>
        <path stroke="red" d="M64.25 24.875H85.75V40.75H64.25z"/>
    </g>
</svg>
