<svg xmlns="http://www.w3.org/2000/svg" width="401" height="79" viewBox="0 0 401 79"><path d="M126.907 26.704l-1.193 6.471h14.608l-2.017 10.94h-14.608l-3.37 18.277h-12.874l8.609-46.695h36.954l-2.029 11.007h-24.08zm34.776 35.689l.43-2.334a20.006 20.006 0 01-4.342 2.201 13.722 13.722 0 01-4.763.868c-3.424 0-5.981-1.022-7.672-3.069-1.691-2.045-2.171-5.045-1.441-9.006.344-1.867.958-3.512 1.844-4.937a12.828 12.828 0 013.26-3.569c1.287-.956 2.743-1.678 4.369-2.168 1.624-.489 3.369-.734 5.237-.734 1.601 0 2.944.133 4.029.401 1.085.267 2.075.623 2.972 1.067l.32-1.735c.287-1.556.074-2.635-.638-3.235s-1.891-.9-3.535-.9c-1.824 0-3.516.189-5.074.567-1.561.378-3.271 1.034-5.132 1.967l-1.672-7.938a38.699 38.699 0 017.274-2.369c2.526-.555 5.323-.833 8.391-.833 4.892 0 8.247 1.157 10.065 3.469 1.816 2.312 2.352 5.493 1.607 9.539l-4.189 22.748h-11.34zm2.632-14.275a8.983 8.983 0 00-2.066-.734c-.768-.177-1.73-.267-2.886-.267-2.491 0-3.965 1.244-4.424 3.734-.205 1.112-.073 2.024.396 2.736.469.712 1.348 1.067 2.638 1.067a9.19 9.19 0 002.994-.5c.973-.333 1.793-.745 2.462-1.234l.886-4.802zm44.105 3.2c-.746 4.049-2.584 7.029-5.517 8.939-2.932 1.913-6.643 2.869-11.133 2.869-2.58 0-5.046-.256-7.396-.768a37.317 37.317 0 01-6.681-2.102l4.471-9.072a35.096 35.096 0 006.059 2.234c2.075.557 3.893.833 5.45.833 1.155 0 2.002-.133 2.541-.399.537-.268.856-.668.955-1.201.106-.578.009-1.012-.293-1.301-.304-.289-1.004-.59-2.104-.901-2.58-.71-4.731-1.411-6.449-2.101-1.719-.689-3.061-1.49-4.025-2.401-.965-.911-1.591-1.989-1.872-3.235-.282-1.244-.254-2.779.082-4.603.664-3.602 2.359-6.414 5.091-8.439 2.728-2.023 6.495-3.035 11.298-3.035 1.334 0 2.546.056 3.638.167 1.092.111 2.151.267 3.184.467 1.029.2 2.049.466 3.055.801 1.006.333 2.049.7 3.132 1.101l-4.378 9.272c-2.123-1.023-4.033-1.768-5.725-2.235-1.692-.467-3.317-.7-4.873-.7-1.158 0-1.958.123-2.404.367-.444.245-.717.634-.814 1.167a2.15 2.15 0 00-.029.7c.03.2.149.39.363.567.211.179.533.357.968.534.435.179 1.008.378 1.726.601 2.32.667 4.298 1.334 5.934 2 1.633.668 2.936 1.447 3.904 2.336.971.89 1.602 1.935 1.889 3.135.287 1.203.272 2.67-.047 4.403zm24.315 9.941c-1.265.579-2.658 1.034-4.188 1.367a22.564 22.564 0 01-4.828.501c-3.203 0-5.392-.855-6.564-2.568-1.176-1.711-1.393-4.569-.653-8.572l2.804-15.209h-5.336l1.734-9.406h5.336l1.636-8.872 12.548-4.736-2.51 13.608h7.604l-1.733 9.406h-7.604l-2.336 12.675c-.246 1.334-.17 2.246.229 2.735.396.489 1.108.733 2.131.733a6.48 6.48 0 002.39-.467c.789-.312 1.711-.778 2.758-1.401l-3.418 10.206zm35.722-38.691l-7.342 39.825h-6.936l7.342-39.825h-13.607l1.266-6.872h34.154l-1.268 6.872h-13.609zm30.367 12.075a9.627 9.627 0 00-2.161-.934c-.761-.222-1.72-.333-2.873-.333-2.183 0-4.011.757-5.489 2.268-1.479 1.512-2.494 3.758-3.044 6.738l-3.688 20.013h-6.938l6.457-35.022h6.938l-.615 3.336c1.014-1.156 2.294-2.123 3.837-2.902a10.79 10.79 0 014.918-1.167c1.424 0 2.567.123 3.437.367.864.245 1.609.612 2.23 1.101l-3.009 6.535zm19.446 27.75l.641-3.469a20.156 20.156 0 01-4.821 3.002 13.5 13.5 0 01-5.559 1.201c-1.425 0-2.82-.212-4.187-.634-1.367-.423-2.544-1.101-3.525-2.035-.984-.933-1.704-2.156-2.158-3.668-.454-1.511-.487-3.335-.094-5.472.359-1.955 1.027-3.646 2.002-5.068a12.941 12.941 0 013.588-3.536c1.415-.934 3.009-1.623 4.783-2.067 1.771-.444 3.658-.667 5.658-.667 3.202 0 5.721.445 7.56 1.333l.479-2.602c.354-1.912.056-3.379-.89-4.403-.945-1.022-2.485-1.534-4.619-1.534-1.824 0-3.492.178-5.002.534s-3.025.912-4.544 1.667l-1.706-5.203a26.16 26.16 0 015.831-2.335c2.011-.533 4.261-.8 6.752-.8 3.913 0 6.903.967 8.972 2.902 2.066 1.935 2.734 4.881 2.006 8.839l-4.429 24.015h-6.738zm2.753-14.942c-.842-.489-1.873-.867-3.092-1.135-1.22-.267-2.762-.399-4.63-.399-2.224 0-4.065.467-5.526 1.401-1.463.934-2.342 2.201-2.637 3.803-.32 1.734-.021 3.135.893 4.203s2.508 1.601 4.775 1.601c1.867 0 3.631-.467 5.293-1.399 1.664-.935 2.998-1.957 4.002-3.069l.922-5.006zm37.334-10.007c-1.152-1.468-2.344-2.545-3.572-3.235-1.23-.688-2.622-1.034-4.178-1.034-2.535 0-4.729 1.034-6.576 3.102-1.85 2.068-3.104 4.903-3.77 8.505-.318 1.735-.437 3.325-.347 4.77.09 1.446.394 2.692.912 3.736.521 1.045 1.248 1.856 2.187 2.435.938.579 2.098.868 3.477.868 1.646 0 3.102-.366 4.371-1.101 1.27-.733 2.723-1.812 4.365-3.235l3.604 4.336a27.991 27.991 0 01-2.662 2.501 18.866 18.866 0 01-3.084 2.068c-1.109.601-2.322 1.079-3.633 1.435s-2.766.534-4.365.534c-2.137 0-4.047-.434-5.73-1.301a10.922 10.922 0 01-4.127-3.669c-1.065-1.579-1.783-3.479-2.149-5.704-.369-2.225-.299-4.714.21-7.473.533-2.89 1.408-5.469 2.627-7.737 1.219-2.269 2.662-4.191 4.333-5.771 1.668-1.578 3.515-2.779 5.532-3.602a16.376 16.376 0 016.23-1.234c2.578 0 4.787.5 6.627 1.501 1.838 1.001 3.401 2.48 4.687 4.437l-4.969 4.868zm24.724 24.949l-4.527-17.41-6.639 7.072-1.906 10.338h-6.938l8.303-45.027 7.604-3.603-4.072 22.081-.338 1.834c-.127.69-.267 1.379-.414 2.068-.149.69-.282 1.347-.396 1.969-.113.623-.213 1.157-.295 1.601.619-.711 1.413-1.635 2.378-2.769s1.813-2.124 2.549-2.969l9.152-10.207h7.803l-11.032 11.741 6.246 23.282h-7.478v-.001z" fill="#343434"/><path fill="#CF9948" d="M61.463 76.346l-.084.607c-.602-.128-1.201-.258-1.802-.387-1.078-1.782-2.944-2.654-4.586-3.691-2.076-1.309-2.786-2.948-2.274-5.252-.034-1.686-.127-3.38.545-4.99 1.13-.059 2.084.24 2.979 1.03 1.111.973 2.183 2.088 3.742 2.384.234 1.969.228 3.987 1.166 5.818.131 1.492-1.61 3.115.314 4.481z"/><path fill="#E5B566" d="M7.958 7.114c1.07-.27 2.144-.565 3.079.354 1.955 1.917 4.268 1.753 6.656 1.143-.102 1.132.496 1.534 1.492 1.244 3.784-1.096 7.791-1.332 11.43-2.977.537.374 1.074.746 1.612 1.119l.451.66.023.06c-.034.186-.064.373-.096.56l-13.399 3.966-1.745-.188c-.715-.3-1.19-.747-.982-1.609 1.114-.771.299-1.027-.354-1.325-2.821.804-5.09-.263-7.168-2.069-.272-.234-.747-.231-1.127-.338l.128-.6z"/><path fill="#C68D3C" d="M16.478 11.446c-.208.863.267 1.31.982 1.608-.393.86-2.004.487-1.888 1.864l-1.681-.246c-.325-.23-.661-.671-.973-.657-2.893.134-4.749-1.148-5.604-3.901l.516-2.4c.38.106.855.104 1.126.337 2.078 1.807 4.347 2.874 7.168 2.069-.046.485-.135.982.354 1.326z"/><path fill="#CF9948" d="M32.227 7.997L30.615 6.88c-.189-.687-.554-1.223-1.253-1.474.151-1.73-.175-3.661 1.914-4.583l1.201.258c.715 1.678 2.821 1.789 3.703 3.278-2.329 1.295-.949 2.854-.312 4.362-.795 2.044-1.709-.204-2.552.071l-.615-.075-.023-.059c-.15-.22-.299-.442-.451-.661zM7.314 10.114c.855 2.753 2.711 4.035 5.604 3.901.312-.015.648.427.973.657l-.861 3.683c-1.633-1.119-3.204-2.344-4.915-3.325-1.681-.959-.054-2.676-1.059-3.716l.258-1.2z"/><path fill="#A9732D" d="M94.634 67.428c.271-1.072.542-2.144.816-3.214.179-1.43 1.673-1.339 2.428-2.104.532.957-.042 1.898-.047 2.848-.003.708-.096 1.448-.096 1.448-.086.401-1.768 2.013-3.101 1.022z"/><path fill="#242421" d="M85.743 48.286l-.758 2.991c-.711.343-.723 1.052-.885 1.683-.775-.19-1.088-.677-.931-1.464.615-.273.968-.729.612-1.367-.235-.416-.65-.252-.961.043l-.139.609a210.8 210.8 0 00-.713.46l-1.792-.378-1.973-.469a608.367 608.367 0 00-1.701-1.903c.115-.607.246-1.218-.362-1.668.292-1.068-.449-1.833-.8-2.714.212-1.154-.526-.889-1.164-.776a1.66 1.66 0 01-.498-.248c1.739-2.328-.51-3.585-1.398-5.207.392-.326.821-.355 1.28-.171.126 1.754 1.665 1.201 2.618 1.602l.652.817-.035-.041c.167.542.557.812 1.103.885l-.02-.024c.163.253.325.505.489.756l-.018-.021c.145.254.29.508.433.764.042.488.193.91.689 1.107.033.014.179-.115.187-.188.06-.565-.296-.821-.768-.981.053-.187.1-.374.144-.563.824-.319 1.327.041 1.72.756 1.401 2.527 1.958.835 2.575-.526l1.5 2.106c-.513.986-4.528 1.113-.772 3.148-.096.346-.383.877-.261.999.604.593 1.288.036 1.947-.017zm-8.792-3.95c.319.895.14 2.04 1.346 2.916.054-1.477.014-2.479-1.346-2.916zm1.439 4.068c-.043.068-.128.143-.125.21.019.28.148.319.318.099.042-.052.029-.172-.001-.243-.021-.043-.125-.045-.192-.066zm1.46-3.436l.167-.184-.19-.064.023.248z"/><path fill="#DCA85A" d="M83.945 57.283c.616 2.604 2.256.615 3.42.761l1.153.281c.205.519.626.745 1.138.858l.006.01c.448.899 1.214 1.398 2.134 1.703l.01.011c.231.874 1.821.858 1.411 2.151-1.268.006-2.569.7-3.792-.189.36-1.121-.374-1.749-1.201-1.471-3.43 1.135-7.022 1.601-10.489 2.641-1.923.578-4.003 2.078-6.312 1.138.105-.706-.214-1.12-.884-1.296.026-.5.179-.927.674-1.152.312-.172.623-.347.936-.52 1.352-.501 2.703-1.005 4.056-1.507l-.035.015c2.303-.271 4.543-.787 6.677-1.722l-.015.013c.649-.097.741-.561.726-1.098l.387-.627zM59.994 24.585c2.254 1.74 4.387 3.677 6.794 5.171 2.585 1.605 3.905 3.427 2.732 6.498-.251.654-.252 1.403-.369 2.108l-.746-.107c-.229-.676-1.102-1.089-.809-1.979 1.018-.95.728-1.701-.309-2.417-5.001-3.445-9.589-7.476-14.897-10.487.746-.423 2.096-.338 1.555-1.845l6.049 3.058z"/><path fill="#A9732D" d="M33.315 8.791c.843-.275 1.756 1.973 2.552-.071.564.124 1.129.246 1.695.368-.37 3.629-.361 3.594-3.435 2.853-.342-.083-1.547-.51-1.224.922.238 1.057.156 2.187.217 3.282-1.26.955-1.361-.18-1.448-.904-.149-1.217-.399-2.198-1.92-2.096-3.37-.702-6.31.976-9.42 1.706-.83-.218-1.297-.689-1.128-1.608l13.399-3.966c.238-.161.476-.324.712-.486zm50.63 48.492l-.387.626c-.496.198-.66.614-.726 1.098l.015-.013c-2.438-.243-4.705.171-6.677 1.722l.035-.015c-1.869-.652-3.708.841-5.58.074.194-1 .391-2 .586-3 1.961-.629 4.286-.125 5.873-1.903.704.34 1.45 1.396 2.048-.118 1.419-.388 3.136-.047 4.048-1.667l.667-.202a.567.567 0 01.385.356l-.287 3.042z"/><path fill="#CF9948" d="M34.18 16.459c1.484-.502 2.903-1.837 4.54-.349-.161.524-.219 1.028.266 1.432l-.004-.004c-.171.093-.381.309-.504.266-1.193-.414-2.728-1.406-3.486-.047-.664 1.189 1.379 1.352 1.914 2.234.141.232.087.579.123.875-.569.485-2.258-.186-1.607 1.558-.274 1.389-.55 2.778-.823 4.167-2.515-.494-3.754-1.802-2.877-4.477.263-.802.112-1.589-.137-2.366 3.076.648 1.229-2.589 2.595-3.289z"/><path fill="#312E2D" d="M59.994 24.585l-6.047-3.058c-.836-1.698-1.361-3.677-3.657-4.065l.002.003.128-.602c.647-.07 1.217-1.323 1.768-.544 1.052 1.486 2.544.711 3.789 1.092 2.045 1.997 3.84 4.133 4.017 7.174z"/><path fill="#373633" d="M43.242 17.151c.747-1.238 1.411-2.591 3.238-2.318.529 1.951 2.428 1.919 3.812 2.633l-.001-.003c1.421 1.815-.016 3.989.738 5.889-.091.137-.189.27-.293.396-1.806-.615-1.99-3.232-4.174-3.384l-.499-.706c-.717-1.085-2.281-1.22-2.821-2.507z"/><path fill="#CF9948" d="M88.519 58.324l-1.153-.281c.341-1.615.686-3.232 1.028-4.848 2.167 1.123 3.732 3.185 6.13 3.947.099 1.463.196 2.928.292 4.392l-.005.002-3.004-.63-.01-.01c-.189-1.222-1.079-1.565-2.134-1.705l-.006-.008c-.141-.602-.613-.765-1.138-.859z"/><path fill="#242421" d="M76.179 39.308c-.953-.401-2.492.153-2.618-1.602 4.161-.587 7.833-.082 9.769 4.341-.617 1.361-1.174 3.053-2.575.526-.393-.714-.896-1.076-1.722-.757l-.683-.137.018.021c-.164-.25-.326-.502-.489-.755l.02.023c-.111-.613-.569-.796-1.103-.885l.035.041-.652-.816z"/><path fill="#DCA85A" d="M43.242 17.151c.54 1.287 2.104 1.422 2.821 2.507-1.64-.123-3.279-.247-4.918-.372l-.914-.905c-.546.644.015 1.275.023 1.913-.722.252-1.44.505-2.162.758a8.668 8.668 0 01-.479-.055 19.105 19.105 0 01-.587-.125l.003-.007c-.037-.295.017-.642-.124-.875-.534-.882-2.578-1.045-1.914-2.234.758-1.359 2.293-.367 3.486.047.123.043.333-.172.504-.266.065-.073.132-.145.194-.216l-.19.22c-.485-.404-.427-.908-.266-1.432 1.666-.338 3.129.204 4.523 1.042z"/><path fill="#C68D3C" d="M34.18 16.459c-1.366.7.481 3.938-2.596 3.288-1.653-1.769-3.836.479-5.563-.734-.124-.649.274-.985.805-.992 3.644-.045 3.453-2.353 2.927-4.876 1.521-.103 1.771.879 1.92 2.096.087.724.188 1.858 1.448.904l1.059.314zm57.627 44.448c1.002.209 2.002.419 3.004.63l.058.827.258-.099-.312-.729c-.096-1.463-.193-2.929-.292-4.396.607.006 1.171-.074 1.422-.746 2.047 1.433 1.708 3.668 1.932 5.717-.754.765-2.249.674-2.427 2.101l-.757.489c-.46-.577-.466-1.562-1.475-1.643.41-1.292-1.179-1.277-1.411-2.151z"/><path fill="#312E2D" d="M72.28 37.878c.888 1.621 3.137 2.878 1.398 5.207-1.433-1.108-3.709-.796-4.637-2.753l.624-1.657 2.615-.797z"/><path fill="#1E1E1E" d="M55.978 17.413c-1.244-.381-2.736.394-3.789-1.092-.551-.779-1.121.474-1.768.544-.711-.574-1.423-1.147-2.136-1.72 2.952-1.689 6.475-.649 7.693 2.268z"/><path fill="#E5B566" d="M95.946 56.395c-.251.67-.815.752-1.422.746-2.398-.76-3.963-2.82-6.13-3.942 1.493-1.462 2.76-.605 3.996.403 1.17.951 2.719 1.419 3.556 2.793z"/><path fill="#C68D3C" d="M37.562 9.088l-1.695-.368c-.637-1.507-2.016-3.067.312-4.362 1.404 1.301 1.246 3.059 1.383 4.73z"/><path fill="#A9732D" d="M69.665 38.674c-.208.554-.417 1.105-.624 1.658l-3.256-.053c-.716-.186-1.435-.371-2.15-.56.968-.381 1.934-.764 2.903-1.146l1.868-.317.746.107c.196.063.368.168.513.311z"/><path fill="#373633" d="M84.058 47.305c-3.756-2.037.259-2.164.772-3.149.548.641.81 1.368.682 2.216-.172.798-.686 1.066-1.454.933z"/><path fill="#191816" d="M48.285 15.145c.712.572 1.424 1.146 2.136 1.72l-.128.602c-1.385-.713-3.283-.682-3.812-2.633.601.103 1.202.206 1.804.311z"/><path fill="#312E2D" d="M84.058 47.305c.768.133 1.282-.134 1.454-.935.386.603.459 1.241.231 1.916-.658.053-1.342.61-1.946.017-.122-.121.164-.655.261-.998zm.175 6.937a.565.565 0 00-.385-.356l.251-.927c.162-.631.173-1.339.885-1.682-.058 1.037.129 2.135-.751 2.965z"/><path fill="#A9732D" d="M41.628 51.436l-8.42-.414c-1.677-.373-2.351-1.082-2.159-3.104.254-2.698.687-5.341 1.22-7.982 1.857-.312 3.736.5 5.59-.091.231.069.465.14.695.211-.08.844-.787 1.826.315 2.434.478.264 1.279.431 1.708.205 1.168-.607.723-1.696.479-2.668 1.443.06 2.886.117 4.33.176 3.055 1.124 1.537 3.699 1.188 5.324-.306 1.427.336 1.15.937 1.418l-.09 1.264c-1.026-.221-2.004-.223-2.792.62-.923.494-1.766 1.069-2.207 2.073-.263.176-.529.354-.794.534zm3.094-5.038c-.218-.25-.435-.502-.654-.752-.315-.033-.632-.065-.947-.101-.537-1.114-.974-.886-1.354.101-.225-.03-.449-.062-.673-.094-.417-.83-.989-.965-1.721-.385a2.511 2.511 0 01-.581-.032c-.695-.157-1.406-.466-2.011.212l-1.9.764c3.533.787 6.663 1.164 9.841.287z"/><path fill="#CF9948" d="M32.27 39.935c-.534 2.642-.966 5.284-1.22 7.982-.192 2.022.482 2.731 2.159 3.104-3.247 2.106-4.969-.963-6.613-2.457-2.337-2.127-5.212-3.26-7.593-5.19l-.298-.931-.024-1.038c.221-.65.471-1.3-.085-1.913.274-.657.745-.441 1.205-.272.858 1.3.583 5.138 3.621 1.497.742-.888 2.111-.311 3.183.053.843.285 1.555 1.156 3.406.547-3.287-1.908-5.532-4.375-9.187-3.69-.38-.123-.761-.242-1.139-.364l-.002-.014a2347.2 2347.2 0 00-.034-3.761l.407-2.062 1.075-.736c-.178.69.141 1.16.67 1.548 3.489 2.565 6.978 5.132 10.469 7.697z"/><path fill="#242421" d="M41.783 58.253c.547-2.017-2.048-4.207.333-6.126 1.8.491 3.845-.253 5.476 1.085.048.863.093 1.726.137 2.588-1.494-.198-2.982-.295-4.271.692-.101.078.064.751.126.755 1.571.081 3.128.067 4.151-1.44.4.068.802.133 1.203.202l-.005.035c-1.029 1.354-.951 2.627.147 3.946.618.74 1.212 1.578.967 2.672-.879 3.156-2.871 3.125-5.298 1.855-1.077-.729-1.586-1.824-1.952-3.015.107-1.217.179-2.432-1.014-3.249zM4.886 36.535c-.623-1.11.08-2.276-.144-3.403.823-1.43 1.493-2.969 2.869-4.001l2.437.412-.012-.009c.059.665.499.854 1.081.866l-.013-.006c-.128.542-.257 1.084-.384 1.627-.5.205-.693.621-.763 1.116-.541 2.84-.469 5.401 2.954 6.418l-.155.613c-.752.252-.779.948-.95 1.559-1.525 1.709-2.896-.058-4.34-.191.188-.854-.151-1.327-1.022-1.415l.007.013c.559-1.673.961-3.275-1.565-3.599z"/><path fill="#262626" d="M7.61 29.13c-1.376 1.032-2.046 2.572-2.869 4.001-1.643-3.003 1.146-7.654 4.878-8.065 1.499-.164 3.015-.173 4.522-.253.785.215 1.569.432 2.354.646l1.158 1.128c-.927.842-1.368 2.148-2.584 2.714-.933-.674-1.955-1.842-2.196.541-.027.258-.794.443-1.216.661a14.71 14.71 0 01-.555-.11l.013.006c-.168-.529-.572-.763-1.081-.866l.012.009c-.673-.947-1.436-1.389-2.436-.412z"/><path fill="#1E1E1E" d="M50.047 62.663c.246-1.095-.349-1.933-.967-2.672-1.099-1.319-1.177-2.591-.147-3.946 3.406.121 3.686.459 2.837 3.824-.176.703.337.512.576.697.145.589.616.776 1.124.916-.07.384-.14.769-.208 1.151-.672 1.61-.579 3.306-.545 4.99-.897-.026-1.587 1.067-2.591.483.167-1.815.926-3.641-.079-5.443z"/><path fill="#DCA85A" d="M14.67 21.651c2.593-.973 2.636-3.123 2.477-5.366 1.266-.984 1.528.87 2.448.864.098 1.28.485 2.313 2.021 2.364-1.379.928-1.924 2.308-2.098 3.886a40.73 40.73 0 01-.146.578c-1.798-.309-3.045-1.73-4.702-2.326z"/><path fill="#1E1E1E" d="M7.467 41.534c1.444.134 2.815 1.899 4.34.192.94.037 1.578.618 2.203 1.223-1.643 1.101-.75 1.689.451 2.209-3.4.853-5.502-.797-6.994-3.624zm42.58 21.129c1.005 1.802.246 3.628.078 5.444-2.721.193-4.294-1.328-5.376-3.588 2.427 1.269 4.419 1.301 5.298-1.856z"/><path fill="#95692B" d="M19.595 17.15c-.919.005-1.182-1.849-2.448-.864-.314-.144-.63-.287-.946-.43l-.628-.938c-.116-1.376 1.495-1.003 1.888-1.864l1.745.188c-.169.918.298 1.39 1.128 1.608-.247.767-.494 1.534-.739 2.3z"/><path fill="#CF9948" d="M14.67 21.651c1.656.596 2.904 2.017 4.703 2.326.03.544.34 1.276-.715 1.117-.764-.116-1.556-.436-2.164.366-.784-.215-1.567-.432-2.353-.647.062-.213.125-.425.189-.638l.088-.743c.086-.593.17-1.186.252-1.781z"/><path fill="#A9732D" d="M15.572 14.918c.209.312.419.624.628.938-.907 1.025-.577 3.618-3.17 2.5l.861-3.683c.56.08 1.12.162 1.681.245z"/><path fill="#1E1E1E" d="M47.593 53.213c-1.631-1.338-3.676-.594-5.476-1.085-.164-.229-.325-.462-.488-.692.264-.179.53-.356.795-.535 2.009.132 4.46-.726 5.169 2.312z"/><path fill="#191816" d="M14.46 45.158c-1.201-.521-2.094-1.108-.45-2.209.56-.133.808-.54.925-1.059l.896-4.215.192-.074c.606 2.089-.556 3.931-.831 5.897l-.292 1.426a.439.439 0 01-.44.234z"/><path fill="#1E1E1E" d="M4.886 36.535c2.526.324 2.125 1.927 1.566 3.597-1.074-.959-1.588-2.162-1.566-3.597z"/><path fill="#242421" d="M14.9 44.925l.293-1.428c.357-.271.714-.539 1.07-.808.698.16 1.395.317 2.091.478l.209.358c-1.115.743-2.302 1.299-3.663 1.4z"/><path fill="#1E1E1E" d="M41.783 58.253c1.193.817 1.121 2.031 1.015 3.251-.806-.936-1.354-1.955-1.015-3.251zM6.445 40.119c.871.088 1.21.562 1.022 1.415-.676-.229-1.032-.688-1.022-1.415z"/><path fill="#DCA85A" d="M14.42 23.432l-.088.743c-.036-.177-.096-.353-.098-.531-.001-.069.119-.142.186-.212z"/><path fill="#242421" d="M18.704 42.445l.298.93a.439.439 0 01-.438.15 30.114 30.114 0 00-.208-.355c.116-.243.231-.484.348-.725z"/><path fill="#A9732D" d="M93.218 63.059c1.009.082 1.015 1.065 1.475 1.643l-1.524 1.465c-2.808-.271-5.316.994-7.949 1.583-5.017 1.123-9.997 2.41-14.991 3.628-.741-.689-.392-1.516-.293-2.309 1.483-.879 3.412-.549 4.782-1.745 1.108-.414 2.215-.825 3.324-1.235 3.885.393 7.319-1.426 10.959-2.236.465-.104.53-.556.48-.99l-.057.007c1.225.888 2.526.194 3.794.189z"/><path fill="#95692B" d="M69.937 69.066c-.099.795-.448 1.621.292 2.312-2.242.618-4.483 1.233-6.723 1.853.035-.567.089-1.141-.412-1.567.102-.384.205-.769.311-1.151 2.178-.486 4.354-.965 6.532-1.447z"/><path fill="#A9732D" d="M63.095 71.662c.5.427.446 1 .412 1.566-.52 1.146-.006 3.631-2.128 3.725-1.924-1.365-.098-3.596-.229-5.088l1.945-.203z"/><path fill="#CF9948" d="M93.169 66.166l1.524-1.465.757-.489c-.274 1.073-.545 2.144-.816 3.218-.581-.315-1.286-.485-1.465-1.264z"/><path fill="#DCA85A" d="M29.362 5.405c.7.251 1.064.787 1.253 1.474-3.639 1.644-7.646 1.879-11.43 2.976-.996.29-1.594-.112-1.492-1.244 3.768-1.518 7.8-2.062 11.669-3.206z"/><path fill="#C68D3C" d="M63.095 71.662l-1.946.203c-.938-1.831-.931-3.85-1.165-5.82.666-.008 1.214-.204 1.447-.9.386.028.769.054 1.152.078-.316.86.046 1.664.222 2.482.023.973.897 1.763.601 2.806-.106.384-.209.766-.311 1.151z"/><path fill="#DCA85A" d="M61.431 65.143c-.234.698-.782.896-1.448.902-1.56-.293-2.632-1.408-3.743-2.381-.895-.79-1.849-1.089-2.979-1.03l.208-1.151c1.17.367 2.444-.561 3.571.295.413.695 1.131.666 1.797.756.375 1.359 1.648 1.82 2.594 2.609zM16.478 11.446c-.489-.344-.4-.84-.354-1.325.653.298 1.468.554.354 1.325zm15.749-3.449c.152.22.301.441.451.661l-.451-.661zm1.088.794l-.711.485c.032-.188.062-.375.096-.56l.615.075zm32.471 31.488l3.256.053c.928 1.957 3.204 1.645 4.637 2.752.152.111.318.193.498.248.093.699.662.688 1.164.777.351.88 1.092 1.645.8 2.713-1.612.035-3.246-.049-4.712.822l-1.242-.045c-2.505-2.055-5.01-4.105-7.516-6.16 1.036-.387 2.076-.773 3.115-1.16zm17.395 13.809c-.912 1.62-2.628 1.279-4.048 1.667-2.662-1.807-5.819-3.004-7.476-6.051.492.044.973.062 1.331-.37l-.036.014c.508.082.995.09 1.365-.359l-.035.017c.523.112 1.001.058 1.392-.354.277-.053.551-.104.828-.158l1.701 1.902c.139 1.008.833 1.402 1.734 1.573 1.081.704 2.162 1.411 3.244 2.119z"/><path fill="#BD7F2C" d="M76.501 48.49c-.277.054-.551.104-.828.158-.53-.138-1.038-.195-1.392.354l.035-.017c-.52-.129-1.019-.18-1.365.359l.036-.014c-.874-.236-1.808-.416-1.56-1.689 1.466-.871 3.101-.785 4.712-.822.609.452.477 1.064.362 1.671z"/><path fill="#191816" d="M83.181 54.088l-3.245-2.122.239-1.104c.597.127 1.195.253 1.791.381.788.695.508-.262.714-.462l.139-.609c.431.358.434.829.349 1.324-.157.787.156 1.272.931 1.464l-.251.927-.667.201z"/><path fill="#1E1E1E" d="M76.951 44.336c1.36.438 1.4 1.439 1.346 2.916-1.206-.877-1.027-2.022-1.346-2.916z"/><path fill="#312E2D" d="M80.175 50.861l-.239 1.104c-.901-.171-1.595-.565-1.734-1.573.659.158 1.315.315 1.973.469zm2.993.634c.085-.495.082-.965-.349-1.324.311-.296.726-.459.961-.043.357.638.004 1.093-.612 1.367zm-7.828-7.386c-.502-.09-1.071-.078-1.164-.777.637-.112 1.376-.378 1.164.777z"/><path fill="#1E1E1E" d="M78.891 42.381c.471.16.828.416.768.98-.008.074-.153.203-.187.188-.496-.198-.648-.62-.689-1.108l.108-.06z"/><path fill="#312E2D" d="M78.39 48.404c.067.021.171.022.192.065.031.071.043.191.001.243-.17.223-.299.182-.318-.099-.004-.066.082-.14.125-.209z"/><path fill="#242421" d="M76.796 40.085c.533.089.992.271 1.103.885-.546-.074-.936-.343-1.103-.885z"/><path fill="#312E2D" d="M82.68 50.781c-.206.199.074 1.156-.714.462.24-.157.477-.309.714-.462z"/><path fill="#635D5C" d="M79.85 44.968l-.024-.248.191.064z"/><path fill="#1E1E1E" d="M78.349 41.68l.683.137a9.296 9.296 0 01-.142.564l-.108.061c-.143-.254-.288-.508-.433-.762z"/><path fill="#1E1E1E" d="M77.878 40.945c.163.253.325.505.489.756l-.489-.756zm-1.699-1.637l.652.817-.652-.817z"/><path fill="#5A3119" d="M78.043 66.088c-1.109.41-2.216.821-3.324 1.235-1.152-.476-2.269-.507-3.472-.035-.938.364-1.683-.438-2.33-.945-.454-.356.23-.801.423-1.22.778-1.676 1.387.572 2.083.052 2.309.94 4.389-.56 6.312-1.138 3.467-1.041 7.059-1.506 10.489-2.641.828-.277 1.562.351 1.201 1.471l.057-.008c-4.05.239-7.835 1.418-11.439 3.229z"/><path fill="#E5B566" d="M71.423 65.176c-.697.52-1.305-1.728-2.083-.052-.192.419-.877.862-.423 1.22.647.508 1.392 1.311 2.33.945 1.203-.473 2.319-.439 3.472.035-1.371 1.195-3.299.865-4.782 1.744-2.177.48-4.354.959-6.531 1.442.296-1.042-.578-1.833-.601-2.807l2.287.437c3.359 1.066 1.324-2.005 2.186-2.852l.032-.077c.205-.207.41-.41.615-.614.907.308 1.277-.16 1.414-.973.401.086.802.169 1.202.255.668.176.988.591.882 1.297z"/><path fill="#BD7F2C" d="M70.539 63.88c-.4-.086-.801-.169-1.202-.255-1.631-.846-2.86.047-4.087.945l.008-.098-.814-.098c.285-1.232-1.08-1.266-1.463-2.012 1.878.053 3.771.195 5.484-.828l1.823.384c.379.089.757.175 1.136.265a3.044 3.044 0 00-.211.545c-.495.225-.648.651-.674 1.152z"/><path fill="#95692B" d="M71.425 62.184c-.379-.09-.757-.176-1.136-.265l.337-1.142c1.871.765 3.711-.729 5.58-.076-1.353.501-2.704 1.006-4.058 1.506l-.723-.023z"/><path fill="#95692B" d="M76.17 60.716c1.972-1.551 4.239-1.965 6.677-1.722-2.133.936-4.374 1.451-6.677 1.722z"/><path fill="#C68D3C" d="M89.663 59.193c1.055.139 1.945.482 2.134 1.703-.921-.304-1.687-.803-2.134-1.703zm-1.144-.869c.526.094.997.257 1.138.859-.512-.113-.933-.34-1.138-.859z"/><path fill="#95692B" d="M82.833 59.007c.066-.483.23-.899.726-1.098.015.538-.077 1.001-.726 1.098z"/><path fill="#E5B566" d="M71.425 62.184l.722.024-.934.521c.053-.19.125-.372.212-.545zm-3.019-23.928l-1.868.317c-.268-1.126-.361-2.415-2.139-1.533-.886.44-1.88.669-2.826.993-1.326.076-1.848-.928-2.53-1.797-1.222-1.555-2.535-3.041-3.807-4.555l.188-1.125c1.034-.018 2.336.95 2.907-.784 1.197.466 2.543.491 3.47 1.674 1.573 2.012 3.7 3.418 5.797 4.831-.294.89.579 1.303.808 1.979z"/><path fill="#BD7F2C" d="M67.598 36.277c-2.097-1.413-4.224-2.819-5.797-4.831-.926-1.183-2.272-1.208-3.47-1.674-1.965-2.234-4.535-3.666-6.998-5.238l-.598-.786c.104-.126.202-.26.293-.396l1.363.021c5.308 3.011 9.896 7.042 14.897 10.487 1.037.716 1.328 1.467.31 2.417z"/><path fill="#191816" d="M52.392 23.373l-1.363-.021c-.754-1.9.684-4.074-.738-5.889 2.294.387 2.819 2.366 3.656 4.064.541 1.507-.809 1.422-1.555 1.846z"/><path fill="#DCA85A" d="M77.084 55.872c-1.587 1.778-3.912 1.274-5.873 1.903-2.979-1.021-4.757-3.967-7.805-4.875.017-.226.038-.452.057-.682 1.707-.803 3.527-1.179 5.384-1.417 2.902 1.438 4.955 4.254 8.237 5.071z"/><path fill="#CF9948" d="M63.406 52.9c3.048.908 4.826 3.854 7.805 4.875-.195 1-.392 2-.586 3l-.337 1.144-1.823-.384.003.01c-.3-2.133-2.02-2.686-3.68-3.309l-.025-.033c.312-1.215-.582-1.611-1.401-2.053-.659-.567-.401-1.269-.283-1.95l.327-1.3z"/><path fill="#BD7F2C" d="M77.084 55.872c-3.282-.817-5.336-3.633-8.238-5.067.088-.348.175-.695.265-1.041l2.546-.061c1.657 3.047 4.814 4.244 7.476 6.051-.598 1.516-1.344.458-2.049.118z"/><path fill="#A9732D" d="M41.145 19.286c1.639.125 3.278.25 4.918.372l.499.706-1.46 4.476c1.828.919 3.699-1.766 5.401.227l-.2 1.186a2.342 2.342 0 00-.108.53c-.228 2.533-3.327 4.838-3.895 4.657-3.011-.972-4.857-.035-6.547 2.226-.163.217-.765.103-1.164.144v.022c.032-1.292 1.086-2.121 1.766-3.239-1.388-.205-2.22.102-2.623 1.22-2.756 1.4-3.548-1.262-5.057-2.443l.339-1.02c1.195-.204 2.41-.346 3.432-1.092.452-.081.904-.158 1.355-.238-.04-.182-.017-.433-.129-.537-.647-.596-1.004.067-1.442.37l-1.634-.26c.273-1.389.549-2.778.823-4.167 2.027-.58 1.422 1.316 2.005 2.694l.667-4.065c.722-.253 1.44-.506 2.162-.758.595-.076.713-.57.892-1.011zm2.288 6.732c-1.282.393-2.903.373-2.898 2.346 0 .483.307.729.748.706 1.981-.098 1.821-1.75 2.163-3.032l.191-.236c-.067.073-.137.144-.204.216z"/><path fill="#DCA85A" d="M36.448 27.259c-1.023.743-2.238.885-3.434 1.089-.419-.152-.84-.3-1.26-.449-1.854-2.293-4.476-3.619-6.74-5.396-.747-.584-2.238-1.051-.99-2.5.887.132 1.631-.053 2.056-.939l-.06-.052c1.726 1.213 3.909-1.034 5.562.735.249.777.4 1.564.137 2.366-.877 2.675.362 3.983 2.877 4.477l1.634.26c.078.133.151.269.218.409z"/><path fill="#CA9647" d="M38.092 21.052c-.191 1.166-.384 2.334-.667 4.065-.583-1.377.022-3.274-2.005-2.694-.651-1.744 1.039-1.073 1.607-1.558l-.001.007c.103.477.303.495.587.125.16.024.32.041.479.055z"/><path fill="#E5B566" d="M50.502 25.066c-1.702-1.992-3.573.692-5.401-.227l1.46-4.476c2.184.152 2.368 2.769 4.174 3.384l.597.786-.83.533z"/><path fill="#CF9948" d="M41.145 19.286c-.179.44-.297.935-.891 1.008-.008-.638-.569-1.269-.023-1.913l.914.905zm-2.159-1.744l.19-.22c-.062.071-.129.143-.194.216l.004.004zm-1.372 3.456c-.285.371-.485.352-.587-.125.194.044.39.087.587.125zm57.202 40.537l.312.73-.258.098c-.021-.275-.039-.549-.058-.827l.004-.001z"/><path fill="#95692B" d="M65.786 40.279c-1.039.386-2.079.772-3.116 1.16-.792-.107-1.454.151-2.01.711-2.278-.131-4.343.806-6.494 1.308-1.602 1.12-.923 3.004-1.502 4.466l-.82-.1.141-5.377c1.257-.279 2.599-.374 3.757-.883 1.432-.625 3.604.321 4.284-1.932.593.129 1.186.376 1.784.016l1.827.07c.714.19 1.433.376 2.149.561z"/><path fill="#DCA85A" d="M63.636 39.72c-.608-.022-1.219-.046-1.826-.071l-.236-1.616c.946-.324 1.94-.553 2.826-.993 1.778-.881 1.871.407 2.139 1.533-.97.383-1.935.766-2.903 1.147zM32.677 29.368c1.509 1.181 2.301 3.844 5.057 2.442-.125.848-.339 1.733.856 2.021v-.022l2.587 2.312c1.196 1.573 3.655 1.844 4.21 4.081-1.443-.06-2.887-.116-4.33-.175a2.174 2.174 0 00-.569-.204c-.467-.846-1.321-1.226-2.054-1.771-3.839-2.851-7.64-5.747-11.454-8.628 1.208-.982 2.574-.75 3.94-.509.585.15 1.172.301 1.757.453zm-.407 10.567c-3.491-2.564-6.98-5.131-10.47-7.697-.529-.388-.848-.858-.67-1.548.766.114 1.262-.198 1.487-.94l2.358.467 12.884 9.627c-1.854.59-3.732-.222-5.589.091z"/><path fill="#CA9647" d="M45.387 40.202c-.555-2.237-3.015-2.508-4.21-4.081.1-.167.194-.336.284-.507 2.839.589 4.428 3.37 7.187 4.101.159.535.585.73 1.07.854l2.265 1.883-.14 5.374c-.809.194-1.414-1.241-2.319-.291-.537-.657-1.062-1.353-2.014-.589-.6-.269-1.242.007-.936-1.418.35-1.628 1.868-4.202-1.187-5.326z"/><path fill="#BD7F2C" d="M37.859 39.844l-12.884-9.627c.492-.709 1.159-.979 2.004-.792 3.815 2.88 7.617 5.777 11.456 8.627.733.545 1.586.925 2.054 1.771-.586.569-1.272.306-1.934.233a55.819 55.819 0 00-.696-.212z"/><path fill="#191816" d="M52.346 60.566c-.238-.187-.752.006-.576-.697.848-3.365.568-3.704-2.837-3.824l.005-.035c.934-4.044.669-5.99-4.308-7.182.787-.842 1.765-.842 2.792-.62.421.097.842.194 1.264.295-.156.828.205 1.274 1.024 1.388l.955.94-.021-.03c.754 1.405 1.461 2.848 2.721 3.903-.209 1.034.496 1.675 1.025 2.396l-.211.702c-.938.511-.956 1.253-.719 2.208.368 1.486-.742.353-1.114.556zm-1.714-6.616c-.121-.241.448-.78-.319-.741l.326.736.046.846.265-.102a71.37 71.37 0 00-.318-.739z"/><path fill="#242421" d="M44.631 48.828c4.977 1.191 5.241 3.138 4.308 7.182-.4-.068-.802-.134-1.203-.201l-.004-.007c-.045-.864-.091-1.726-.139-2.589-.708-3.038-3.16-2.18-5.169-2.312.441-1.005 1.284-1.579 2.207-2.073z"/><path fill="#5A3119" d="M43.121 45.546c.314.035.631.067.948.101.217.25.436.5.652.752-3.178.877-6.308.5-9.841-.287.889-.354 1.395-.561 1.9-.764.688.094 1.397.401 2.011-.212.192.033.386.044.581.032l1.721.385.673.094c.467.173.93.287 1.355-.101z"/><path fill="#95692B" d="M38.555 40.057c.662.072 1.348.336 1.934-.233.199.043.389.108.569.204.243.971.689 2.06-.479 2.668-.429.225-1.23.058-1.708-.206-1.103-.608-.396-1.592-.316-2.433z"/><path fill="#242421" d="M48.686 48.503a153.1 153.1 0 00-1.264-.295l.09-1.265c.95-.76 1.475-.065 2.012.592.341.393.683.785 1.225 1.412l-2.063-.444z"/><path fill="#BD7F2C" d="M43.121 45.546c-.425.386-.888.274-1.354.101.38-.986.817-1.215 1.354-.101zm-2.027.007c-.574-.127-1.148-.256-1.721-.385.732-.58 1.304-.445 1.721.385zm-2.302-.417c-.614.613-1.324.306-2.011.212.605-.678 1.317-.369 2.011-.212zm5.93 1.262l-.652-.752.652.752z"/><path fill="#191816" d="M18.704 42.445c-.117.24-.232.481-.348.725-.698-.163-1.395-.318-2.088-.479 1.045-1.393.293-3.163.965-4.619.257-.56 1.337-1.1.344-1.656-.901-.505-1.421.267-1.553 1.187l-.192.074c-.577-.129-1.155-.255-1.732-.385-.815-1.013.615-2.114-.126-3.125 1.413-1.857-1.59-1.038-1.329-2.196.25-.12.807.466.764-.332l-.754.352c-.332-.495-.664-.991-.994-1.487.422-.218 1.189-.403 1.216-.661.241-2.383 1.264-1.214 2.196-.541.675.525.972 1.188.877 2.063-.125 1.175.298 1.759 1.52 1.129 1.18-.608 1.288 1.035 2.18.994l.034 3.761c-.087.016-.182.014-.253.056-.042.023-.046.117-.067.179l.323-.221c.378.122.759.241 1.139.364-.086.697-.125 1.421-1.023 1.594-.46-.168-.931-.385-1.205.272-.139.644-.42 1.296.085 1.913.005.346.012.694.021 1.039z"/><path fill="#C68D3C" d="M22.616 29.75c-.225.741-.721 1.053-1.487.939l-1.074.736c-.556-.872-1.11-1.744-1.667-2.614.131-.666.573-1.375-.271-1.902a1.052 1.052 0 00-.463-.322l-1.158-1.128c.606-.8 1.398-.48 2.162-.364 1.055.159.745-.573.715-1.117l.145-.578c.905-.2 1.623-.691 2.192-1.413 1.772 2.414-.302 5.282.906 7.763zm-1.242-3.364c.05-.526.143-1.016-.399-1.092-.498-.07-.67.352-.664.783.006.423.155.854.622.886.152.011.336-.431.441-.577z"/><path fill="#5A3119" d="M19.799 39.22c.899-.173.938-.896 1.023-1.594 3.655-.685 5.899 1.783 9.187 3.69-1.851.609-2.562-.262-3.406-.547-1.072-.363-2.441-.94-3.183-.053-3.038 3.641-2.763-.195-3.621-1.496z"/><path fill="#242421" d="M17.655 26.587c.184.065.338.173.463.322-.089.66-.4 1.351.271 1.902l1.667 2.614-.407 2.062c-.893.041-1-1.602-2.18-.994-1.221.63-1.644.046-1.52-1.129.095-.875-.203-1.538-.877-2.063 1.215-.565 1.656-1.872 2.583-2.714zm1.024 14.819c-.505-.617-.224-1.27-.085-1.913.556.614.306 1.262.085 1.913z"/><path fill="#1E1E1E" d="M47.736 55.809c-1.023 1.508-2.581 1.521-4.151 1.439-.062-.004-.227-.678-.126-.755 1.289-.988 2.777-.892 4.271-.692a.165.165 0 01.006.008z"/><path fill="#312E2D" d="M12.912 39.555c-3.423-1.017-3.495-3.578-2.954-6.418 1.228.087 1.113 1.15 1.444 1.924.492 1.151.819 2.494 2.384 2.726.492.371.563.874.456 1.434l.01-.006c-.502-.104-.97-.079-1.34.34z"/><path fill="#312E2D" d="M14.936 41.891c-.117.52-.365.926-.925 1.06-.626-.604-1.263-1.185-2.204-1.224.171-.609.198-1.307.95-1.561 1.57 1.366 1.143-.401 1.494-.952l-.01.006c.876.723-.216 1.957.695 2.671z"/><path fill="#1E1E1E" d="M13.973 34.166c-1.755.3-1.636-2.239-3.252-2.146.127-.543.256-1.085.384-1.627.184.04.369.077.555.11.33.497.663.992.994 1.487l-.009-.021c-.263 1.159 2.74.34 1.328 2.197z"/><path fill="#46403E" d="M14.251 39.213c-.351.551.076 2.318-1.494.952.052-.202.103-.408.154-.611.371-.418.839-.443 1.34-.341z"/><path fill="#1E1E1E" d="M7.61 29.13c1-.977 1.762-.536 2.437.412L7.61 29.13z"/><path fill="#635D5C" d="M10.036 29.534c.509.103.913.336 1.081.866-.583-.012-1.022-.201-1.081-.866z"/><path fill="#242421" d="M52.346 60.566c.372-.203 1.481.93 1.114-.557-.237-.955-.218-1.697.719-2.208 1.509.763 3.572-.924 4.796 1.089-.413 1.116-1.974 1.465-1.935 2.887-1.126-.855-2.4.072-3.571-.295-.507-.139-.978-.327-1.123-.916z"/><path fill="#CF9948" d="M21.71 21.986c-.569.722-1.288 1.213-2.192 1.413.174-1.578.718-2.958 2.098-3.886l.59-.161-.496 2.634z"/><path fill="#1E1E1E" d="M16.023 37.602c.131-.919.651-1.691 1.553-1.187.993.556-.086 1.096-.344 1.656-.671 1.457.081 3.228-.965 4.619a177 177 0 00-1.074.808c.274-1.965 1.436-3.807.83-5.896zm-1.087 4.289c-.91-.713.181-1.948-.694-2.671.107-.56.036-1.062-.456-1.434.06-.194.164-.358.313-.495l1.732.385c-.298 1.407-.598 2.81-.895 4.215z"/><path fill="#E5B566" d="M78.043 66.088c3.604-1.811 7.389-2.99 11.439-3.227.05.436-.016.886-.48.99-3.64.811-7.074 2.629-10.959 2.237z"/><path fill="#242421" d="M64.29 64.369s.16.004.157.006c.269.032.54.064.81.098-.854 1.188-.779 2.416-.165 3.668l-2.287-.437c-.177-.817-.539-1.621-.223-2.481l-.024-.009c.704-.021 1.253-.362 1.732-.845z"/><path fill="#312E2D" d="M60.262 61.564c-.251.074-.504.146-.754.219-.353-.086-.623-.719-1.069-.161l.644.394c-.1.166-.181.336-.245.521-.665-.093-1.383-.062-1.796-.759-.039-1.42 1.521-1.771 1.935-2.887l.328-1.312c.836 1.204-.521 2.935.957 3.985z"/><path fill="#BD7F2C" d="M60.659 42.15c.557-.561 1.218-.819 2.01-.711 2.505 2.054 5.01 4.104 7.517 6.158-.471.276-.942.555-1.416.832-.161-.031-.321-.062-.484-.087-2.541-2.067-5.084-4.129-7.627-6.192z"/><path fill="#95692B" d="M68.771 48.43c.473-.275.945-.555 1.416-.832.412.017.828.032 1.241.047-.248 1.272.687 1.453 1.56 1.688-.357.431-.839.415-1.331.37l-2.546.061c-.425-.368-.466-.826-.34-1.334zm5.511.573c.354-.55.862-.493 1.392-.354-.391.413-.869.466-1.392.354z"/><path fill="#95692B" d="M72.952 49.346c.346-.539.845-.486 1.365-.359-.37.451-.858.443-1.365.359z"/><path fill="#5A3119" d="M65.091 68.141c-.614-1.252-.689-2.479.165-3.668.002 0-.006.1-.006.1.676.238 1.35.478 2.026.718-.861.845 1.175 3.916-2.185 2.85z"/><path fill="#242421" d="M67.277 65.289l-2.026-.719c1.227-.898 2.456-1.791 4.087-.945-.137.812-.507 1.28-1.414.973-.406.002-.666.15-.615.614l-.032.077z"/><path fill="#5A3119" d="M67.309 65.212c-.051-.463.208-.612.615-.614-.206.204-.41.407-.615.614z"/><path fill="#CA9647" d="M62.981 62.363l-1.496-.526c.737-1.66.082-3.771 1.668-5.153.353.705.501 1.621 1.61 1.521l.025.033c.288 2.147 2.548 2.1 3.68 3.309l-.003-.01c-1.713 1.022-3.606.879-5.484.826z"/><path fill="#95692B" d="M41.461 35.614c-.09.171-.184.34-.284.507l-2.587-2.312c.398-.042 1 .073 1.164-.144 1.69-2.261 3.536-3.197 6.547-2.226.567.182 3.667-2.124 3.895-4.657.181.085.365.164.552.235l-.023-.031c.174.583.663.779 1.169.954.989 1.126 2.096 2.095 3.532 2.616l-.187 1.126a1.195 1.195 0 00-.5-.057l-.706.453.027-.042c-2.481-.159-4.738.63-6.944 1.638-2.034.212-4.254-.115-5.655 1.94z"/><path fill="#DCA85A" d="M55.424 30.556c-1.437-.521-2.543-1.49-3.534-2.617-.152-.608-.607-.846-1.168-.953l.023.031c-.147-.256-.295-.51-.444-.766l.2-1.186.83-.532c2.464 1.572 5.033 3.003 6.999 5.238-.569 1.735-1.872.768-2.906.785z"/><path fill="#BD7F2C" d="M54.737 31.625c.171-.017.338.002.5.057 1.271 1.514 2.584 3 3.806 4.554.682.869 1.204 1.873 2.53 1.797l.236 1.616c-.599.361-1.191.114-1.785-.015a5.941 5.941 0 00-.592-.085c-.131-.578-.562-.785-1.087-.871-1.472-2.186-3.353-4.109-4.287-6.641l-.027.042.706-.454z"/><path fill="#CA9647" d="M21.71 21.986l.496-2.633c.683-.351 1.376-.653 2.17-.423l-.351 1.074c-1.248 1.448.244 1.915.99 2.5 2.264 1.776 4.886 3.103 6.74 5.396-.515.145-.734.532-.833 1.016-1.367-.241-2.732-.473-3.94.509-.847-.187-1.514.083-2.006.793l-2.358-.467c-1.21-2.482.864-5.35-.908-7.765z"/><path fill="#C68D3C" d="M24.025 20.003l.351-1.074c.583-.129 1.208-.775 1.705.137-.425.885-1.169 1.07-2.056.937z"/><path fill="#CA9647" d="M52.664 47.925c.579-1.462-.1-3.347 1.502-4.466 1.899 3.133 5.593 4.127 7.969 6.691.114.9-1.382 2.834 1.329 2.069-.019.229-.04.456-.057.683l-.326 1.3c-1.448.56-1.457 2.149-2.169 3.337-.438-.646-.272-1.396-.944-1.682.623-1.318-.693-1.265-1.243-1.752l-.928-1.186c-.902-2.497-3.013-3.752-5.133-4.994z"/><path fill="#A9732D" d="M63.463 52.22c-2.71.765-1.214-1.169-1.329-2.069 2.05-.604 4.103-1.207 6.152-1.808.163.026.323.058.484.087-.126.508-.085.967.34 1.334-.09.348-.177.693-.265 1.041-1.855.236-3.676.612-5.382 1.415zm-3.498 3.635c.674.285.508 1.037.946 1.683.712-1.188.721-2.777 2.169-3.337-.121.682-.378 1.382.281 1.949a8.268 8.268 0 01-.208.533c-1.586 1.383-.931 3.494-1.668 5.153-.407-.09-.816-.183-1.223-.272-1.478-1.051-.121-2.781-.958-3.985.104-.568.206-1.136.308-1.702l.17-.119.183.097z"/><path fill="#95692B" d="M68.468 61.545c-1.132-1.208-3.392-1.16-3.68-3.309 1.66.623 3.38 1.177 3.68 3.309zm-5.315-4.861c.076-.176.145-.354.208-.533.819.442 1.713.839 1.401 2.054-1.108.098-1.256-.818-1.609-1.521zM43.448 26.039c-.343 1.281-.183 2.934-2.165 3.031-.441.023-.749-.223-.748-.706-.005-1.974 1.616-1.954 2.898-2.346l.015.021zM38.59 33.83c-1.195-.288-.981-1.173-.856-2.021.402-1.117 1.234-1.423 2.622-1.218-.68 1.118-1.734 1.947-1.766 3.239z"/><path fill="#C68D3C" d="M30.921 28.915c.1-.484.319-.872.833-1.016.42.149.841.297 1.26.449l-.338 1.02c-.584-.152-1.171-.303-1.755-.453z"/><path fill="#DCA85A" d="M36.231 26.851c.438-.303.795-.965 1.442-.37.112.104.089.355.129.537l-1.355.238a5.826 5.826 0 00-.216-.405z"/><path fill="#E5B566" d="M50.302 26.251l.444.766a8.386 8.386 0 01-.552-.235c.016-.182.052-.358.108-.531z"/><path fill="#95692B" d="M43.433 26.018l.205-.216c-.065.08-.128.158-.19.237l-.015-.021z"/><path fill="#DCA85A" d="M68.287 48.342c-2.049.602-4.102 1.203-6.152 1.807-2.376-2.562-6.07-3.558-7.969-6.69 2.15-.502 4.216-1.438 6.494-1.308 2.542 2.062 5.085 4.124 7.627 6.191z"/><path fill="#1E1E1E" d="M52.664 47.925c2.121 1.242 4.231 2.497 5.132 4.994-.591.101-.805.54-.942 1.046l-1.758-.339-1.268-.257c-1.202-.684-1.752-2.171-3.183-2.567l.021.03c.024-.664.188-1.464-.955-.941-.819-.111-1.18-.559-1.024-1.387l2.063.443c-.542-.627-.884-1.021-1.225-1.412.905-.95 1.51.484 2.319.291.273.031.546.067.82.099z"/><path fill="#DCA85A" d="M59.433 39.549c.198.019.396.047.592.085-.68 2.253-2.853 1.306-4.284 1.931-1.158.51-2.5.604-3.757.884-.755-.625-1.51-1.253-2.266-1.88l.026-.02 2.28.549c1.308.01 2.641.094 3.502-1.199l-.025.009c.549.269 1.063.389 1.35-.352l-.019.007c.87.399 1.736.537 2.601-.014zm-17.972-3.935c1.401-2.055 3.621-1.729 5.655-1.939.307.084.613.17.918.255l.472.715-.003-.011c-.456 1.702-.901 3.405.175 5.056l-.03.025c-2.759-.731-4.348-3.512-7.187-4.101z"/><path fill="#DCA85A" d="M49.718 40.568c-.485-.123-.912-.318-1.07-.854l.03-.025c.49.12.919.317 1.066.86l-.026.019z"/><path fill="#242421" d="M56.854 53.965c.137-.506.351-.945.942-1.046l.928 1.185c-.115.569-.248 1.145.221 1.639.225.047.452.094.676.143l-.011-.008c-.102.566-.204 1.134-.308 1.702-.108.437-.218.873-.328 1.312-1.225-2.013-3.287-.326-4.796-1.089l.211-.702c.792-.181.5-.981.816-1.437 1.578.428 1.781-.473 1.649-1.699z"/><path fill="#1E1E1E" d="M50.645 50.801c1.431.396 1.981 1.885 3.183 2.567l-.153 1.179a2.18 2.18 0 01-.313.157c-1.257-1.056-1.964-2.498-2.717-3.903z"/><path fill="#1E1E1E" d="M55.207 55.663c-.317.455-.024 1.256-.816 1.437-.53-.72-1.235-1.361-1.025-2.396.107-.045.209-.097.31-.157.367.107.738.214 1.105.322l.004-.018c-.004.349.065.649.474.729l-.052.083z"/><path fill="#635D5C" d="M49.71 49.891c1.143-.523.979.276.955.94l-.955-.94z"/><path fill="#46403E" d="M50.632 53.95c.107.245.212.491.317.739l-.265.102-.046-.846-.006.005z"/><path fill="#242421" d="M50.639 53.945a236.23 236.23 0 00-.326-.736c.767-.04.199.5.319.741l.007-.005z"/><path fill="#46403E" d="M12.653 31.991l.754-.352c.043.797-.513.212-.764.332l.01.02z"/><path fill="#5A3119" d="M19.684 37.262l-.323.221c.021-.062.026-.155.067-.179.072-.042.167-.04.253-.056l.003.014z"/><path fill="#CF9948" d="M21.374 26.386c-.105.146-.289.587-.44.578-.467-.032-.616-.463-.622-.886-.007-.432.166-.854.664-.783.54.075.448.565.398 1.091z"/><path fill="#46403E" d="M18.389 28.812c-.671-.552-.359-1.242-.271-1.902.844.527.402 1.236.271 1.902z"/><path fill="#DCA85A" d="M64.29 64.369c-.479.482-1.028.824-1.731.844.142-1.167.957-.963 1.731-.844z"/><path fill="#373633" d="M59.082 62.016l-.644-.394c.447-.558.717.073 1.069.161-.08.192-.221.269-.425.233z"/><path fill="#E5B566" d="M48.034 33.93c-.306-.084-.611-.171-.918-.255 2.205-1.008 4.462-1.797 6.943-1.638.934 2.532 2.815 4.455 4.287 6.641-.506.294-1.008.59-1.513.886l.019-.007c-.525-.173-1.008-.181-1.35.352l.025-.009c-1.195-.333-2.311-.122-3.367.493-1.054-2.024-2.06-4.081-3.657-5.759l.003.011-.472-.715zm2.689-6.944c.561.107 1.016.345 1.168.953-.505-.174-.995-.37-1.168-.953z"/><path fill="#E5B566" d="M54.737 31.625l-.706.453.706-.453z"/><path fill="#95692B" d="M56.833 39.564c.504-.296 1.007-.592 1.513-.886.525.086.956.293 1.087.871-.865.551-1.731.413-2.6.015z"/><path fill="#312E2D" d="M58.945 55.742c-.469-.495-.336-1.069-.221-1.639.549.488 1.866.435 1.243 1.754l-.186-.1-.17.119.011.008a41.186 41.186 0 00-.085-.486c-.199.114-.396.228-.592.344zm-2.091-1.777c.132 1.227-.071 2.127-1.647 1.698l.051-.082c-.158-.243-.314-.486-.474-.729l-.004.018c.107-.414.211-.828.315-1.243l1.759.338z"/><path fill="#242421" d="M55.096 53.625c-.104.415-.208.829-.315 1.243l-1.105-.322.153-1.179c.42.087.843.173 1.267.258z"/><path fill="#CA9647" d="M48.503 34.634c1.597 1.678 2.604 3.733 3.657 5.759l-.136.705-2.28-.548c-.147-.543-.576-.74-1.066-.86-1.076-1.651-.631-3.355-.175-5.056z"/><path fill="#95692B" d="M52.024 41.098c.045-.234.089-.471.136-.705 1.056-.615 2.172-.826 3.367-.493-.862 1.291-2.195 1.207-3.503 1.198z"/><path fill="#95692B" d="M55.501 39.909c.342-.533.825-.525 1.35-.352-.287.741-.8.621-1.35.352z"/><path fill="#CA9647" d="M48.034 33.93l.472.715-.472-.715z"/><path fill="#A9732D" d="M58.945 55.742a57 57 0 01.591-.344c.029.162.058.324.085.486l-.676-.142z"/><path fill="#242421" d="M54.784 54.852c.16.243.316.486.474.729-.409-.08-.478-.381-.474-.729z"/><path fill="#FFF" d="M49.242 58.312c.722 1.284.977 2.511.57 2.738-.407.229-1.321-.627-2.043-1.911-.721-1.287-.976-2.513-.569-2.742.406-.227 1.32.629 2.042 1.915z"/></svg>