<svg xmlns="http://www.w3.org/2000/svg" width="31" height="31" viewBox="0 0 31 31"><defs><style>.a{fill:#5855b1;}.b,.d{fill:none;}.b{stroke:#5855b1;stroke-width:2px;}.c{stroke:none;}</style></defs><g transform="translate(-3187 357.3)"><path class="a" d="M98.13,86.207a.868.868,0,0,0-.7-.589l-6.795-.987L87.6,78.473a.866.866,0,0,0-1.552,0L83.007,84.63l-6.794.987a.866.866,0,0,0-.48,1.476l4.917,4.793L79.49,98.654a.865.865,0,0,0,1.255.912l6.077-3.2,6.077,3.2a.865.865,0,0,0,1.256-.912l-1.161-6.768,4.917-4.793A.87.87,0,0,0,98.13,86.207Z" transform="translate(3115.528 -430.991)"/><g class="b" transform="translate(3187 -357.3)"><circle class="c" cx="15.5" cy="15.5" r="15.5"/><circle class="d" cx="15.5" cy="15.5" r="14.5"/></g></g></svg>