<?xml version="1.0" encoding="UTF-8"?> <svg xmlns="http://www.w3.org/2000/svg" width="250" height="250" viewBox="0 0 53.012 61.151"><path d="M439.387,38a23.789,23.789,0,0,1,8.511,2.04,32.718,32.718,0,0,1,10.755,7.121,17.515,17.515,0,0,1,4.02,5.754,7.1,7.1,0,0,1,.584,3.787,4.485,4.485,0,0,1-2.541,3.425,9.068,9.068,0,0,1-3.976.934,22.92,22.92,0,0,1-9.458-1.943,32.683,32.683,0,0,1-10.939-7.162,17.115,17.115,0,0,1-4.226-6.284,6.483,6.483,0,0,1-.381-3.444,4.593,4.593,0,0,1,2.891-3.463A11.236,11.236,0,0,1,439.387,38Zm9.464,14.081c.8-.028,1.431-.131,1.769-.76a1.636,1.636,0,0,0-.172-1.734,5.746,5.746,0,0,0-4.732-2.557c-.938.047-1.581.623-1.519,1.439a2.193,2.193,0,0,0,.313.981A5.8,5.8,0,0,0,448.851,52.081Z" transform="translate(-411.36 -38)"></path><path d="M149.7,581.481c.985,2.036,1.116,4.534-.378,6.2a6.223,6.223,0,0,1-3.7,1.868,16.334,16.334,0,0,1-7.123-.411,32.585,32.585,0,0,1-14.843-8.32,17.333,17.333,0,0,1-4.348-6.231,6.85,6.85,0,0,1-.5-3.425,4.389,4.389,0,0,1,1.553-2.856,7.11,7.11,0,0,1,3.663-1.482c-.222.6-.438,1.183-.659,1.769a.387.387,0,0,1-.106.15,4.537,4.537,0,0,0-1.272,4.652,10.858,10.858,0,0,0,2.613,4.852,25.781,25.781,0,0,0,15.053,8.569,10.743,10.743,0,0,0,5.517-.265,4.533,4.533,0,0,0,3.2-3.316.7.7,0,0,1,.125-.262C148.9,582.471,149.319,581.976,149.7,581.481Z" transform="translate(-117.434 -534.908)"></path><path d="M694.569,548.3c.284-.536.55-1.031.813-1.532.116-.221.266-.234.491-.143a2.664,2.664,0,0,1,1.591,3.522,13.16,13.16,0,0,1-2.1,4.048c-.672.971-1.407,1.909-2.022,2.915a12.062,12.062,0,0,0-1.016,2.23c-.266.754-.072,1.087.722,1.214a14.01,14.01,0,0,0,2.6.193c1.947-.05,3.866-.529,5.826-.383a11.216,11.216,0,0,1,2.21.336,2.668,2.668,0,0,1,2.032,3.615,12,12,0,0,1-1.857,3.737c-.647.934-1.369,1.84-1.988,2.8a20.358,20.358,0,0,0-1.163,2.211,2.934,2.934,0,0,0-.219.822c-.081.455,0,.654.438.766a9.3,9.3,0,0,0,2.057.336c.938,0,1.875-.109,2.813-.174.15,0,.3-.04.447-.043a1,1,0,0,1,1.016.872.972.972,0,0,1-.775,1.115,14.993,14.993,0,0,1-5.626,0,4.3,4.3,0,0,1-.938-.339,2.6,2.6,0,0,1-1.332-3.288,12.352,12.352,0,0,1,1.957-3.92c.75-1.1,1.563-2.18,2.282-3.282a6.309,6.309,0,0,0,1-2.354c.088-.5,0-.685-.484-.859a7.918,7.918,0,0,0-2.994-.333c-2.022.059-4.016.56-6.048.4a9.8,9.8,0,0,1-2.022-.342,2.6,2.6,0,0,1-1.947-3.425,11.992,11.992,0,0,1,1.928-3.933c.666-.978,1.394-1.915,2.05-2.9a8.081,8.081,0,0,0,1.232-2.622c.169-.719.081-.862-.625-1.109Z" transform="translate(-654.26 -515.88)"></path><path d="M97.215,652.416c.075.526.109.934.194,1.348a13.677,13.677,0,0,0,2.788,5.6,30.686,30.686,0,0,0,10.039,8.14,29.7,29.7,0,0,0,8.97,3.158,14.756,14.756,0,0,0,7.189-.262c.388-.128.763-.311,1.25-.5-.109.165-.169.271-.247.364a5.961,5.961,0,0,1-3.535,1.946,16.116,16.116,0,0,1-7.27-.33,32.72,32.72,0,0,1-14.521-7.925,19.063,19.063,0,0,1-4.545-5.994,8.29,8.29,0,0,1-.825-3.307A4.393,4.393,0,0,1,97.215,652.416Z" transform="translate(-96.699 -615.331)"></path><path d="M410.07,126.839a14,14,0,0,0,3.9,7.94,32.712,32.712,0,0,0,13.849,9.118,22.191,22.191,0,0,0,8.064,1.42,10.206,10.206,0,0,0,4.351-.956c.063-.031.131-.05.2-.075l.081.09a13.123,13.123,0,0,1-1.016.984,6.976,6.976,0,0,1-3.413,1.339,18.631,18.631,0,0,1-8.517-.978,32.258,32.258,0,0,1-14.231-9.052,14.948,14.948,0,0,1-3.438-5.764,5.9,5.9,0,0,1-.031-3.6C409.929,127.147,410,126.995,410.07,126.839Z" transform="translate(-390.647 -121.477)"></path><path d="M278.647,506.129a3.646,3.646,0,0,1-1.653,1.706,7.041,7.041,0,0,1-3.063.757,17.592,17.592,0,0,1-7.292-1.411,25.06,25.06,0,0,1-10.339-7.305,10.406,10.406,0,0,1-2.288-4.394,4.034,4.034,0,0,1,.253-2.731c.075-.153.172-.293.3-.5.088.433.141.788.228,1.134a11.993,11.993,0,0,0,3,5.178,26.128,26.128,0,0,0,13.974,7.978,12.046,12.046,0,0,0,5.535.031C277.732,506.446,278.15,506.288,278.647,506.129Z" transform="translate(-244.359 -464.83)"></path><path d="M214.665,619.835a3.764,3.764,0,0,1-2.079,1.868,8.783,8.783,0,0,1-3.666.554c-5.539-.153-12.837-3.986-16.631-8.763a10.49,10.49,0,0,1-2.275-4.481,4.013,4.013,0,0,1,.256-2.553c.059-.121.134-.237.2-.358a1.189,1.189,0,0,0,.047-.15l.109.056c.031.19.056.377.091.567a11.292,11.292,0,0,0,2.622,5.088,24.833,24.833,0,0,0,7.814,6.128,23.255,23.255,0,0,0,7.289,2.491,11.055,11.055,0,0,0,6.11-.479C214.556,619.819,214.584,619.828,214.665,619.835Z" transform="translate(-184.265 -571.673)"></path><path d="M299.569,415.377c.206.729.353,1.436.606,2.1a13.543,13.543,0,0,0,3.126,4.649,26.507,26.507,0,0,0,12.815,7.3,13.1,13.1,0,0,0,6.192.193c.444-.106.875-.271,1.353-.42a2.509,2.509,0,0,1-.788,1.109,5.6,5.6,0,0,1-3.254,1.28,16.88,16.88,0,0,1-8.273-1.488,25.154,25.154,0,0,1-9.758-6.879,11.111,11.111,0,0,1-2.5-4.5,4.171,4.171,0,0,1,.184-2.846A4.916,4.916,0,0,1,299.569,415.377Z" transform="translate(-286.669 -392.599)"></path><path d="M387.859,314.759a8.659,8.659,0,0,1-.778.934,5.182,5.182,0,0,1-2.972,1.286,15.121,15.121,0,0,1-7.133-.9,24.967,24.967,0,0,1-11.6-7.878,10.066,10.066,0,0,1-2.16-4.257,4.035,4.035,0,0,1,.313-2.759c.059-.118.138-.23.266-.439.053.311.087.52.128.732a11.244,11.244,0,0,0,2.582,4.982,25.8,25.8,0,0,0,9.545,6.988,21.383,21.383,0,0,0,6.2,1.775,10.5,10.5,0,0,0,5.52-.585Z" transform="translate(-346.96 -284.884)"></path><path d="M408.372,250.958a27.505,27.505,0,0,0,9.88,9.46,29.5,29.5,0,0,0,13.059,4.428c-.2.1-.313.168-.419.215a8.469,8.469,0,0,1-3.676.529,21.156,21.156,0,0,1-9.023-2.706,23.463,23.463,0,0,1-7.926-6.539,9.46,9.46,0,0,1-1.913-4.085,11.521,11.521,0,0,1-.084-1.277Z" transform="translate(-389.393 -238.104)"></path><path d="M324.043,378.954c.038.23.063.42.1.623a10.46,10.46,0,0,0,2.46,4.883,25.735,25.735,0,0,0,15.178,8.825,11.1,11.1,0,0,0,5.448-.2,5.015,5.015,0,0,1,.863-.237,6,6,0,0,1-.391.492,5.056,5.056,0,0,1-2.951,1.411,14.3,14.3,0,0,1-6.676-.673,25.6,25.6,0,0,1-11.565-7.286,11.483,11.483,0,0,1-2.754-4.733,4.384,4.384,0,0,1,.028-2.644,3.329,3.329,0,0,1,.147-.343C323.94,379.035,323.974,379.016,324.043,378.954Z" transform="translate(-309.821 -358.375)"></path><path d="M278.87,455.566c.528,3.469,2.547,5.916,4.973,8.1a26.027,26.027,0,0,0,12.221,6.228,11.983,11.983,0,0,0,6.073-.106,3.614,3.614,0,0,1,.828-.212,8.218,8.218,0,0,1-.625.691,5.521,5.521,0,0,1-3.179,1.264,16.063,16.063,0,0,1-7.58-1.189,25.72,25.72,0,0,1-9.849-6.418,12.362,12.362,0,0,1-3.085-5.007,4.6,4.6,0,0,1-.047-2.684A5.919,5.919,0,0,1,278.87,455.566Z" transform="translate(-267.414 -430.363)"></path><path d="M388.182,265.455a19.653,19.653,0,0,0,.566,2.033,13.529,13.529,0,0,0,3.144,4.727,26.522,26.522,0,0,0,12.674,7.29,13.442,13.442,0,0,0,6.195.265c.494-.106.972-.283,1.563-.455-.122.174-.191.293-.281.4a5.066,5.066,0,0,1-3.3,1.579,15.565,15.565,0,0,1-7.029-.884,26.052,26.052,0,0,1-10.261-6.321,13.011,13.011,0,0,1-3.385-5.172,4.735,4.735,0,0,1-.112-2.862A4.352,4.352,0,0,1,388.182,265.455Z" transform="translate(-370.15 -251.726)"></path><path d="M238.662,582.776a3.432,3.432,0,0,1-1.41,1.317,7.3,7.3,0,0,1-3.36.775,18.434,18.434,0,0,1-7.814-1.741,24.9,24.9,0,0,1-9.273-6.639,11.327,11.327,0,0,1-2.5-4.384,4.4,4.4,0,0,1,.019-2.715c.053-.146.122-.286.228-.529.087.452.134.794.219,1.13a11.607,11.607,0,0,0,2.744,4.907,25.965,25.965,0,0,0,14.562,8.33,11.768,11.768,0,0,0,5.351-.053C237.808,583.075,238.18,582.932,238.662,582.776Z" transform="translate(-206.986 -536.819)"></path><path d="M344.632,346.555a11.9,11.9,0,0,0,3.3,6.134,25.967,25.967,0,0,0,14.174,7.965,11.4,11.4,0,0,0,5.92-.187c.269-.09.528-.2.788-.311l.084.1a10.581,10.581,0,0,1-1,.934,5.778,5.778,0,0,1-2.941,1,17.1,17.1,0,0,1-8.2-1.492,25.207,25.207,0,0,1-9.555-6.592,11.684,11.684,0,0,1-2.682-4.609,4.579,4.579,0,0,1-.044-2.538C344.52,346.823,344.579,346.689,344.632,346.555Z" transform="translate(-329.316 -327.931)"></path><path d="M235.442,538.111a12.12,12.12,0,0,0,2.969,5.786,21.469,21.469,0,0,0,3.519,3.294,26.551,26.551,0,0,0,10.661,4.982,12.36,12.36,0,0,0,5.939-.037,7.207,7.207,0,0,1,1.113-.311,6.856,6.856,0,0,1-.563.623,5.323,5.323,0,0,1-2.985,1.261,15.717,15.717,0,0,1-7.5-1.046,25.056,25.056,0,0,1-11.186-7.732,10.29,10.29,0,0,1-2.147-4.145,4.449,4.449,0,0,1,.034-2.326C235.352,538.338,235.392,538.22,235.442,538.111Z" transform="translate(-226.737 -507.925)"></path></svg> 