<?xml version="1.0" encoding="UTF-8"?> <svg xmlns="http://www.w3.org/2000/svg" width="250" height="250" viewBox="0 0 46.087 63.59"><g transform="translate(0)"><path d="M177.171,130.122c.066-1.255.13-2.389.183-3.524.014-.291,0-.583-.006-.874-.009-.355-.24-.539-.56-.387-.77.367-1.521.774-2.28,1.164-.459.235-.908.5-1.385.69a1.9,1.9,0,0,1-.8.084.642.642,0,0,1-.547-.685,7.748,7.748,0,0,1,.249-1.52,23.636,23.636,0,0,1,.928-2.711,19.828,19.828,0,0,1,1.371-2.607c.59-.946,1.254-1.848,1.928-2.738a17.5,17.5,0,0,1,2.493-2.844.758.758,0,0,0,.222-.382,8.638,8.638,0,0,1,1.39-2.846c.416-.612.824-1.229,1.244-1.838a7.06,7.06,0,0,1,.487-.617c.577-.664,1.145-1.337,1.749-1.977a4.049,4.049,0,0,0,.726-1.188,18.39,18.39,0,0,1,1.033-1.989c.394-.655.842-1.28,1.3-1.9.344-.468.727-.907,1.1-1.349.328-.385.7-.736,1-1.143a7.647,7.647,0,0,0,.455-.931c.323-.6.63-1.215,1-1.786.444-.682.937-1.332,1.431-1.979a9.624,9.624,0,0,1,.926-1.06,5.811,5.811,0,0,0,.967-1.536c.352-.657.734-1.3,1.139-1.927.305-.471.659-.913,1.007-1.355.324-.411.7-.782,1-1.211.307-.444.528-.946.817-1.4.516-.815,1.035-1.629,1.592-2.415.362-.511.819-.955,1.188-1.461a6.355,6.355,0,0,0,.666-1.171,12.613,12.613,0,0,1,2.01-2.91,11.668,11.668,0,0,0,1.291-2,13.887,13.887,0,0,1,.964-1.415c.184-.259.373-.517.582-.757.467-.535.929-1.075,1.426-1.581.746-.759,1.326-.614,1.682.392l.009.027c.275.79.4.878,1.19.6.818-.291,1.612-.653,2.417-.981,1-.406,2.053-.08,2.2,1.085.108.846.213,1.693.325,2.539a4.587,4.587,0,0,0,.1.526.614.614,0,0,0,.789.518,5.829,5.829,0,0,1,.9-.08.724.724,0,0,1,.758.936,22.285,22.285,0,0,1-.761,2.47,23.576,23.576,0,0,1-1.065,2.236,5.958,5.958,0,0,1-.645.991,7.963,7.963,0,0,0-1.085,2.056A16.2,16.2,0,0,1,212.151,89a4.53,4.53,0,0,0-.49,1.1,18.756,18.756,0,0,1-2.447,4.353,5.923,5.923,0,0,0-.6,1.238,17.22,17.22,0,0,1-1.649,3.3c-.371.529-.744,1.057-1.111,1.589a2.52,2.52,0,0,0-.22.39c-.561,1.239-1.071,2.5-1.7,3.711-.4.768-.991,1.431-1.445,2.173a18.53,18.53,0,0,0-.939,1.817c-.43.916-.757,1.89-1.265,2.759-.7,1.2-1.542,2.305-2.281,3.479a11.527,11.527,0,0,0-.6,1.386c-.6,1.307-1.123,2.654-1.828,3.9-.6,1.064-1.431,2-2.121,3.014a7.579,7.579,0,0,0-.509,1.147c-.78,1.718-1.544,3.444-2.36,5.146a8.807,8.807,0,0,1-.924,1.31c-.327.446-.647.9-1,1.328-.668.822-1.352,1.632-2.035,2.442a1.6,1.6,0,0,1-.325.269,1.089,1.089,0,0,1-1.079.244,1.035,1.035,0,0,1-.522-1c-.014-.628.058-1.257.068-1.886.01-.692.008-1.386-.024-2.077-.015-.331-.185-.424-.5-.294a7.858,7.858,0,0,0-1.037.508c-.946.559-1.866,1.163-2.825,1.7a6.907,6.907,0,0,1-1.46.568c-1.052.3-1.576-.541-1.672-1.335C177.2,130.849,177.192,130.426,177.171,130.122Zm6.522-3.035.031,0c0-.263,0-.525,0-.788,0-.177-.07-.238-.248-.177a8.052,8.052,0,0,1-.912.282c-.8.17-1.588.188-2.034-.792a4.76,4.76,0,0,1-.2-.556c-.062-.2-.155-.238-.355-.146-.434.2-.875.384-1.324.548a.374.374,0,0,0-.276.416c-.021.938-.071,1.875-.1,2.813-.024.7-.084,1.411-.039,2.111.057.875.273,1.011,1.142.577,1.036-.517,2.014-1.153,3.019-1.733a7.671,7.671,0,0,1,1.087-.587.475.475,0,0,0,.355-.6C183.78,128,183.74,127.544,183.693,127.087Zm8.934-16.877h.027c-.022-.421-.036-.843-.068-1.264-.034-.443-.176-.551-.6-.466a3.02,3.02,0,0,0-.486.139c-.911.349-1.815.72-2.733,1.049-.258.093-.36.2-.358.474.007.779-.015,1.559-.015,2.338,0,.524,0,1.049.029,1.573.033.691.361.926.978.627,1-.487,1.983-1.028,2.961-1.567a.566.566,0,0,0,.252-.4C192.639,111.877,192.627,111.044,192.627,110.21Zm-5.284,8.437.088,0c-.033-.4-.043-.807-.1-1.2-.132-.876-.389-1.011-1.215-.674-.035.014-.069.029-.1.046-.65.333-1.293.683-1.955.993a.583.583,0,0,0-.373.589c-.024.74-.1,1.48-.1,2.22,0,.6.076,1.195.128,1.792a.313.313,0,0,0,.414.306,3.781,3.781,0,0,0,.846-.286c.626-.317,1.24-.659,1.848-1.009.253-.145.533-.278.524-.661C187.331,120.054,187.343,119.35,187.343,118.647Zm5.364-13.662h0c0,.555-.036,1.112.01,1.663.051.622.11.673.68.549a3.921,3.921,0,0,0,.566-.165c1.015-.389,2.029-.781,3.038-1.186.085-.034.2-.172.187-.248-.112-.921-.223-1.844-.377-2.759-.159-.946-.434-1.071-1.345-.725-.824.313-1.653.613-2.49.89-.2.067-.277.147-.275.346C192.71,103.9,192.707,104.441,192.707,104.986Zm4.812,1.759c-.318.128-.646.236-.952.389-.738.369-1.455.784-2.2,1.133-.658.307-.662.277-.584,1,.088.821.122,1.649.242,2.465.131.889.246,1.012,1.151.418.719-.472,1.384-1.028,2.058-1.566a.958.958,0,0,0,.372-.5c.138-.889.236-1.784.331-2.679A.55.55,0,0,0,197.519,106.744Zm-9.654,1.263.154.617.619-.219c.017-.006.031-.022.048-.03.864-.405,1.724-.82,2.6-1.208.191-.085.22-.167.193-.357-.09-.639-.16-1.281-.232-1.922-.064-.575-.115-1.152-.18-1.727-.028-.246-.166-.354-.41-.248-.429.186-.869.352-1.278.575a1.565,1.565,0,0,0-.93,1.392,2.477,2.477,0,0,1-.085.384C188.193,106.177,188.03,107.088,187.865,108.007Zm5.436,7.907-.031,0c0-.019,0-.038,0-.056-.009-.977-.162-1.1-1.058-.717-.821.346-1.62.747-2.433,1.114a.439.439,0,0,0-.291.485c.062.918.108,1.836.177,2.753.054.716.355.853.937.433.537-.388,1.08-.772,1.588-1.2a2.377,2.377,0,0,0,.8-.9A11.414,11.414,0,0,0,193.3,115.915Zm4.957-10.867h.057c.007.056.012.112.021.167.063.419.138.457.5.238a7.168,7.168,0,0,0,.732-.474q1.008-.79,1.992-1.611a.553.553,0,0,0,.171-.31c.1-.6.215-1.2.275-1.808.086-.871-.317-1.139-1.1-.749-.806.4-1.608.811-2.4,1.239a.53.53,0,0,0-.238.381C198.249,103.1,198.258,104.073,198.258,105.048ZM186,112.418l.089-.009c-.065-.519-.117-1.041-.2-1.557-.039-.241-.209-.325-.443-.2s-.506.242-.743.39a1.741,1.741,0,0,0-1.024,1.262,23.091,23.091,0,0,0-.511,3.357c0,.578.171.715.7.508.69-.267,1.373-.557,2.04-.877a.594.594,0,0,0,.258-.464C186.141,114.022,186.065,113.221,186,112.418Zm25.679-31.89c-.023-.242-.042-.486-.071-.727-.081-.669-.145-1.342-.259-2.006-.079-.463-.266-.559-.719-.482a16.947,16.947,0,0,0-2.943,1.169c-.054.02-.1.172-.085.248.1.468.222.93.327,1.4.111.492.1.485.6.444a1.319,1.319,0,0,1,1.309.6.377.377,0,0,0,.311.122c.361-.058.712-.176,1.074-.224C211.566,81.022,211.763,80.908,211.684,80.528Zm.3-3.9c.182-.036.364-.073.547-.107.569-.106,1.137-.219,1.708-.313.193-.032.255-.116.233-.3-.093-.8-.156-1.6-.277-2.4-.086-.566-.253-.955-.972-.7-.839.294-1.662.636-2.484.975a.328.328,0,0,0-.127.29c.18.67.37,1.337.583,2A.727.727,0,0,0,211.985,76.63ZM195.752,98.416l.013,0c-.022-.308-.053-.615-.065-.924-.033-.829-.3-1.015-1.087-.752-.471.158-.938.329-1.418.454a.448.448,0,0,0-.375.418c-.093.535-.215,1.065-.307,1.6q-.16.928-.278,1.862c-.008.061.114.187.188.2s.188-.065.28-.11c.91-.44,1.825-.871,2.724-1.332a.67.67,0,0,0,.312-.432A6.616,6.616,0,0,0,195.752,98.416Zm2.022,1.324a.455.455,0,0,0,.155,0c.863-.31,1.725-.62,2.583-.944a.265.265,0,0,0,.128-.218c-.1-.656-.208-1.313-.342-1.963-.119-.578-.429-.61-.876-.481-.675.195-1.335.441-2,.662-.619.205-.619.2-.578.841a.972.972,0,0,0,0,.112c.1.523.173,1.052.31,1.565A.535.535,0,0,0,197.773,99.739Zm-13.108,26.422c.058.826.084,1.446.15,2.062.055.511.284.615.723.326a18.249,18.249,0,0,0,1.553-1.109c.291-.239.7-.412.734-.878.047-.636.114-1.272.134-1.909.015-.479-.175-.609-.614-.423-.648.274-1.274.6-1.92.877C184.855,125.352,184.529,125.712,184.665,126.162Zm30.318-48.186-.042,0a2.6,2.6,0,0,0,0-.366c-.073-.5-.211-.678-.68-.562-.59.145-1.189.255-1.784.381-.194.041-.245.165-.226.355.1.913.153,1.832.28,2.74.108.77.158,1.222,1.148.941.009,0,.019,0,.028,0,.913-.211.815,0,.926-.89.01-.084.037-.165.048-.249Q214.833,79.147,214.983,77.976ZM206.227,76.8c.03.24.041.485.093.72.061.278.237.436.536.327q.72-.261,1.43-.552c.631-.258,1.261-.521,1.883-.8a.34.34,0,0,0,.158-.283c-.129-.548-.282-1.09-.435-1.632-.129-.457-.325-.556-.761-.4a.769.769,0,0,0-.178.082c-.718.494-1.431,1-2.152,1.486C206.425,76,206.092,76.266,206.227,76.8Zm-26.05,44.558h0c0-.4.012-.807-.005-1.209a1.345,1.345,0,0,0-.125-.514.317.317,0,0,0-.279-.131c-.681.3-1.439.536-1.455,1.489a.813.813,0,0,1-.026.109c-.152.914-.316,1.826-.451,2.743-.086.583.165.792.705.585a13.425,13.425,0,0,0,1.4-.645.512.512,0,0,0,.226-.373C180.189,122.726,180.177,122.041,180.177,121.357Zm22.217-24.472-.021.007c.06.549.1,1.1.187,1.646.071.446.2.5.547.231.693-.531,1.379-1.072,2.048-1.634a.764.764,0,0,0,.286-.523,12.784,12.784,0,0,0-.252-1.687c-.067-.319-.319-.407-.614-.268-.688.322-1.376.646-2.053.991-.079.04-.114.219-.121.336C202.383,96.284,202.394,96.585,202.394,96.885Zm-29.522,28.99c.03.241.149.251.294.177.25-.128.488-.279.739-.407.826-.422,1.642-.869,2.491-1.239a.672.672,0,0,0,.452-.645c.079-.717.184-1.431.274-2.147a1.651,1.651,0,0,0-.008-.262c-.081.037-.166.068-.243.112a1.457,1.457,0,0,0-.156.12q-1.445,1.1-2.889,2.193c-.074.056-.17.112-.2.19C173.366,124.6,173.121,125.238,172.872,125.875Zm26.435-33.4c-.018-.217-.038-.46-.06-.7-.006-.065-.02-.13-.032-.194-.1-.509-.23-.609-.737-.491-.466.109-.918.28-1.386.369-.333.063-.437.239-.486.542-.127.786-.276,1.569-.427,2.351-.05.258.053.324.267.239.252-.1.493-.225.736-.346.466-.231.918-.5,1.4-.694C199.191,93.295,199.313,93.157,199.307,92.473Zm7.389.19a3.969,3.969,0,0,0,.7-.331c.387-.3.751-.623,1.113-.95a.335.335,0,0,0,.1-.269c-.116-.462-.251-.919-.388-1.375a.409.409,0,0,0-.6-.29c-.461.18-.913.386-1.358.6a.349.349,0,0,0-.163.271c.05.643.1,1.288.2,1.924C206.331,92.394,206.549,92.512,206.7,92.663Zm1.861-8.524c-.09-.487-.169-.976-.273-1.46-.064-.3-.253-.51-.582-.424a11.3,11.3,0,0,0-1.241.417.338.338,0,0,0-.145.276c.047.648.1,1.3.184,1.942a.369.369,0,0,0,.5.328c.382-.116.748-.285,1.127-.411A.564.564,0,0,0,208.557,84.139ZM185.757,133h.008c0,.178-.007.357,0,.535a.719.719,0,0,0,.071.2.658.658,0,0,0,.163-.1c.361-.392.723-.783,1.07-1.188a.37.37,0,0,0,.074-.306,3.668,3.668,0,0,1-.007-1.918c.068-.464.171-.923.251-1.385a.75.75,0,0,0-.026-.216.814.814,0,0,0-.2.068c-.429.285-.861.565-1.273.873a.477.477,0,0,0-.113.354c.013.345.091.69.083,1.033C185.85,131.629,185.8,132.312,185.757,133Zm-4.411-11.489h-.036c0,.432,0,.863,0,1.3,0,.23.1.275.3.191.294-.121.6-.212.891-.343a.349.349,0,0,0,.167-.259c.019-1.16.021-2.32.035-3.48,0-.232-.084-.3-.289-.2-.345.168-.693.33-1.024.522a.4.4,0,0,0-.154.307C181.261,120.2,181.307,120.852,181.346,121.507Zm-1.031-5.18c-.029.285.049.324.314.207.4-.177.823-.319,1.22-.509a.593.593,0,0,0,.292-.345c.067-.28.051-.579.1-.866.1-.619.229-1.234.339-1.851a.85.85,0,0,0-.017-.217.4.4,0,0,0-.147.037c-.6.465-1.2.93-1.8,1.4a.424.424,0,0,0-.144.261C180.412,115.075,180.366,115.7,180.315,116.327Zm23.508-24.038c-.115-.436-.2-.82-.319-1.192a.519.519,0,0,0-.7-.35c-.542.147-1.08.306-1.613.483a.338.338,0,0,0-.178.266,5.7,5.7,0,0,0,.157.965.654.654,0,0,0,.892.535c.509-.119,1.01-.275,1.507-.439C203.673,92.525,203.74,92.382,203.823,92.289Zm-1.293-5.037c-.055-.357-.088-.646-.146-.931a.352.352,0,0,0-.45-.313c-.515.1-1.034.178-1.542.3a.485.485,0,0,0-.281.315c-.121.529-.2,1.067-.3,1.6-.054.294.027.379.313.278.33-.117.653-.255.971-.4.416-.192.828-.393,1.232-.61C202.424,87.439,202.482,87.31,202.529,87.253ZM190.413,126.3c-.035-.071-.061-.17-.09-.171a.319.319,0,0,0-.2.072c-.34.281-.689.553-1,.86a1.314,1.314,0,0,0-.344.552c-.1.368-.142.754-.214,1.132-.113.6-.233,1.2-.345,1.8a.538.538,0,0,0,.03.178.474.474,0,0,0,.132-.086,6.67,6.67,0,0,0,1.526-2.457C190.05,127.547,190.242,126.927,190.413,126.3Zm-4.543-18.238h.012a4.621,4.621,0,0,0,.006.506c.007.065.1.183.126.176a9.148,9.148,0,0,0,.9-.281c.049-.018.082-.147.081-.224a13.2,13.2,0,0,1,.426-2.9.805.805,0,0,0-.012-.214.752.752,0,0,0-.223.076c-.357.273-.712.55-1.057.839a.422.422,0,0,0-.135.261C185.948,106.886,185.911,107.475,185.869,108.063Zm19.3-18.789c-.084-.41-.164-.822-.254-1.231a.352.352,0,0,0-.444-.318,6.947,6.947,0,0,0-.968.251.412.412,0,0,0-.158.339c.031.436.1.87.153,1.3a.489.489,0,0,0,.657.452c.208-.052.4-.15.607-.218C205.039,89.762,205.237,89.624,205.165,89.275Zm-2.193,12.2h-.019a4.234,4.234,0,0,0,.053.532c.045.2.145.317.343.113.221-.229.463-.439.671-.679a3.552,3.552,0,0,0,1.07-1.843,1.726,1.726,0,0,0-.013-.3,1.7,1.7,0,0,0-.313.053c-.5.183-1,.367-1.5.571a.4.4,0,0,0-.22.26C203,100.614,202.994,101.046,202.972,101.477Zm6.475-16.047a8.611,8.611,0,0,0,.2.99c.045.145.237.37.329.355a8.774,8.774,0,0,0,1.3-.341.326.326,0,0,0,.13-.288,10.219,10.219,0,0,0-.34-1.045c-.186-.49-.343-.556-.842-.381a3.718,3.718,0,0,1-.365.149A.478.478,0,0,0,209.447,85.429Zm-2.9,10.492.038.144a.739.739,0,0,0,.239-.108,5.064,5.064,0,0,0,1.706-2.706c.036-.242-.106-.241-.248-.2a3.781,3.781,0,0,0-.894.335c-.258.161-.586.392-.648.649A13.35,13.35,0,0,0,206.545,95.921Zm8.914-15.176a1.642,1.642,0,0,0-.013.295,2.936,2.936,0,0,0,.089.3,1.009,1.009,0,0,0,.185-.225c.378-.907.807-1.8,1.1-2.732.29-.909.44-.989-.756-.781-.21.036-.273.142-.282.343-.017.384-.047.767-.094,1.148C215.621,79.677,215.529,80.259,215.459,80.745Zm-31.83,43.683c-.006-.087-.008-.153-.016-.218-.068-.54-.256-.705-.776-.586-.361.083-.7.264-1.055.371a.462.462,0,0,0-.349.627c.165.625.208.8.851.638a11.423,11.423,0,0,0,1.082-.382C183.583,124.8,183.724,124.666,183.629,124.428Zm28.559-41.715c-.013-.121-.019-.243-.039-.362-.078-.465-.218-.57-.691-.478-.3.059-.6.158-.9.231a.342.342,0,0,0-.281.462c.039.173.11.339.151.511.186.793.343.873,1.071.535a.114.114,0,0,0,.026-.011C211.815,83.358,212.253,83.224,212.188,82.713Zm-12.942,24.8c.04.354.075.708.125,1.06a1.277,1.277,0,0,0,.117.289.936.936,0,0,0,.285-.145,12.556,12.556,0,0,0,1.009-1.162,5.943,5.943,0,0,0,.516-1.041c.033-.073,0-.176-.005-.265a1.243,1.243,0,0,0-.289.058c-.467.215-.923.458-1.4.655C199.338,107.07,199.2,107.216,199.246,107.51Zm-21.482,11.173-.062-.239a1.144,1.144,0,0,0-.326.124c-.373.3-.728.619-1.1.921a3.762,3.762,0,0,0-1.393,1.748c-.049.156-.112.307-.168.461a3.88,3.88,0,0,0,.464-.282c.676-.548,1.344-1.107,2.016-1.661.126-.1.316-.176.375-.308A4.266,4.266,0,0,0,177.764,118.682Zm24.913-28.9c-.04-.4-.082-.726-.1-1.053-.015-.238-.1-.3-.32-.192-.344.171-.692.333-1.04.494-.645.3-.646.3-.481.991.015.064.008.15.048.188.078.075.2.191.272.172.5-.126.992-.275,1.482-.435C202.611,89.922,202.657,89.806,202.677,89.782Zm.966-6.855a1.2,1.2,0,0,0,.249-.06c.395-.163.776-.362,1.18-.5.34-.113.367-.337.318-.618a.455.455,0,0,0-.549-.4c-.224.019-.446.062-.668.1-.9.146-.9.146-.994,1.063C203.143,82.853,203.212,82.927,203.643,82.926Zm-13.788,39.4a6.225,6.225,0,0,0-.117-.861c-.03-.111-.222-.275-.309-.258a3.376,3.376,0,0,0-.811.294.385.385,0,0,0-.183.292,11.465,11.465,0,0,0,.129,1.283.365.365,0,0,0,.261.231A.931.931,0,0,0,189.855,122.323ZM211.616,87.6c-.012-.244-.124-.3-.306-.159-.379.292-.755.589-1.12.9a.5.5,0,0,0-.148.289c-.075.491-.135.985-.193,1.478a.857.857,0,0,0,.036.229.721.721,0,0,0,.21-.11c.217-.234.417-.482.632-.717A3.8,3.8,0,0,0,211.616,87.6Zm-20.941,33.5c.058.331.11.608.153.887.031.2.112.234.284.128.376-.23.763-.442,1.137-.676a.4.4,0,0,0,.162-.244c.076-.416.133-.834.191-1.253a.817.817,0,0,0-.022-.2,1.641,1.641,0,0,0-.168.088c-.528.357-1.057.712-1.579,1.076A.8.8,0,0,0,190.674,121.1Zm17.947-47.656c-.083-.233-.164-.442-.232-.656-.105-.333-.23-.37-.483-.118a6.427,6.427,0,0,0-.487.544q-.812,1.02-1.612,2.051a.59.59,0,0,0-.061.146c.052-.005.114.007.153-.018.236-.149.471-.3.7-.463.449-.317.891-.643,1.34-.96.19-.133.392-.248.583-.38C208.568,73.558,208.59,73.492,208.622,73.444Zm-2.229,7.59a2.634,2.634,0,0,0,.547-.116c.093-.04.214-.2.2-.283-.113-.549-.242-1.1-.408-1.633a.446.446,0,0,0-.377-.224c-.16.038-.387.192-.413.33a8.571,8.571,0,0,0-.129,1.4C205.8,80.93,205.969,81.056,206.393,81.034ZM193.545,120.79l.054.22a.98.98,0,0,0,.19-.127,3.071,3.071,0,0,0,.969-1.693c.054-.415.2-.818.288-1.23.012-.055-.087-.133-.135-.2-.321.3-.79.554-.932.927A12.5,12.5,0,0,0,193.545,120.79Zm5.9-25.695c-.038-.207-.064-.326-.082-.446-.045-.289-.158-.349-.439-.206-.716.364-1.451.688-2.171,1.043a.4.4,0,0,0-.188.271c-.031.263.154.374.46.279.714-.221,1.427-.444,2.134-.687C199.278,95.308,199.367,95.164,199.441,95.1ZM205.675,84.9c-.037-.239-.073-.424-.091-.611s-.006-.4-.032-.591c-.079-.593-.083-.592-.635-.355-.663.286-.663.286-.508,1,.014.064.024.129.04.193.2.781.2.781.978.564a.252.252,0,0,0,.105-.036A1.981,1.981,0,0,0,205.675,84.9Zm-11.1,9.951-.085-.018c-.031-.484-.057-.968-.1-1.451a1.168,1.168,0,0,0-.114-.3c-.1.077-.245.133-.289.233-.325.756-.631,1.519-.936,2.283a.753.753,0,0,0-.012.239.835.835,0,0,0,.232-.06c.377-.227.751-.458,1.119-.7A.958.958,0,0,0,194.571,94.854Zm4.019-6.162c-.066-.387-.116-.7-.175-1.012-.032-.165-.081-.327-.122-.49-.166.139-.333.277-.5.418a.2.2,0,0,0-.041.073c-.248.586-.5,1.17-.739,1.759a.87.87,0,0,0-.021.261,1.133,1.133,0,0,0,.274-.084c.39-.239.777-.483,1.157-.737A.745.745,0,0,0,198.59,88.692Zm-8.728,11.563.026,0c0-.094.007-.189,0-.282s-.036-.212-.055-.319c-.077.085-.184.156-.226.256q-.373.9-.719,1.8a3.42,3.42,0,0,0-.178.648c-.033.194.04.3.254.169.264-.162.526-.328.8-.473a.42.42,0,0,0,.226-.489C189.934,101.131,189.9,100.692,189.861,100.255ZM195.3,115.49a4.181,4.181,0,0,0,.029.449,1.709,1.709,0,0,0,.11.306,1.045,1.045,0,0,0,.308-.156,9.412,9.412,0,0,0,.814-.929,5.862,5.862,0,0,0,.488-.9c.032-.066-.011-.169-.019-.255a.842.842,0,0,0-.236.054c-.35.2-.682.432-1.043.606A.678.678,0,0,0,195.3,115.49Zm17.512-30.514.046.142a.594.594,0,0,0,.184-.1c.185-.209.353-.434.54-.642a3.775,3.775,0,0,0,.817-1.7.709.709,0,0,0-.015-.212.671.671,0,0,0-.226.067c-.333.257-.665.517-.983.792a.564.564,0,0,0-.18.306C212.92,84.056,212.873,84.484,212.809,84.976ZM202.225,83.1c-.066-.38-.113-.694-.178-1-.019-.093-.069-.224-.137-.25s-.183.058-.253.122a5.046,5.046,0,0,0-1.06,2.044c-.017.042.01.1.017.153a.587.587,0,0,0,.127-.041c.449-.266.9-.528,1.34-.807C202.161,83.265,202.2,83.142,202.225,83.1Zm-11.309,17.03-.04,0c.028.43.046.861.093,1.288.01.1.12.18.184.269a.94.94,0,0,0,.141-.266c.1-.618.173-1.239.27-1.856.055-.352.142-.7.205-1.048a.959.959,0,0,0-.017-.241.746.746,0,0,0-.221.073,4.888,4.888,0,0,0-.543.445.452.452,0,0,0-.113.3C190.875,99.438,190.9,99.784,190.915,100.13Zm14.5-22.65-.2-.54c-.145.105-.293.206-.432.317a.614.614,0,0,0-.164.191q-.392.774-.769,1.555a.892.892,0,0,0-.043.235,1.089,1.089,0,0,0,.244-.082c.352-.22.7-.441,1.044-.678a.511.511,0,0,0,.183-.268C205.338,77.995,205.363,77.77,205.414,77.48Zm.151,9.543a8.263,8.263,0,0,0,.849-.174.347.347,0,0,0,.179-.277c-.039-.544-.257-.745-.794-.7a3.447,3.447,0,0,0-.815.2.315.315,0,0,0-.168.244A.76.76,0,0,0,205.565,87.024Zm-18.412,25.625-.053,0c.037.6.067,1.2.121,1.8.008.084.134.157.2.235a.843.843,0,0,0,.1-.277c-.008-.3-.063-.6-.06-.9.008-.948.039-1.9.049-2.845,0-.142.09-.4-.185-.374-.206.018-.392.1-.345.422C187.073,111.355,187.1,112,187.153,112.649Zm14.208-17.782c-.035-.212-.057-.428-.106-.636-.091-.385-.283-.511-.647-.449-.4.069-.49.186-.44.625.024.213.077.422.118.633.062.325.257.422.574.364S201.417,95.261,201.361,94.867Zm-13.979,28.059c.012-.582-.094-.648-.531-.407-.377.207-.747.427-1.128.624-.323.168-.672.291-.982.479a.473.473,0,0,0-.161.4c.041.213.217.134.361.07.741-.334,1.484-.662,2.223-1A1.031,1.031,0,0,0,187.382,122.926Zm21.75-35.136c0-.457-.1-.647-.38-.62a5.176,5.176,0,0,0-.9.184.3.3,0,0,0-.148.25,4.617,4.617,0,0,0,.212.75.356.356,0,0,0,.2.184C208.46,88.663,209.133,88.162,209.132,87.79ZM182.346,116.9a4.46,4.46,0,0,0-.536.164c-.433.2-.857.417-1.289.619-.2.095-.341.222-.248.457s.3.211.478.132q.854-.389,1.689-.821a.367.367,0,0,0,.169-.3C182.583,117.047,182.433,116.976,182.346,116.9Zm14.928-4.859a.377.377,0,0,0-.071-.161c-.02-.021-.134.029-.19.068-.6.426-1.211.849-1.8,1.294-.071.053-.043.237-.06.36.1.014.224.072.3.035.459-.233.891-.523,1.362-.723C197.209,112.749,197.245,112.445,197.275,112.042Zm-14.247-1.336c-.046-.082-.072-.185-.115-.193a.32.32,0,0,0-.229.062c-.391.306-.755.65-1.165.926a1.834,1.834,0,0,0-.748.949,1.373,1.373,0,0,0-.039.209.849.849,0,0,0,.187-.079c.188-.138.369-.286.555-.428.446-.342.9-.672,1.333-1.03C182.916,111.033,182.953,110.854,183.027,110.707Zm22.861-22.584c.049.292.09.6.16.9a.248.248,0,0,0,.219.1,4.637,4.637,0,0,0,.714-.326.308.308,0,0,0,.12-.258,2.328,2.328,0,0,0-.2-.613c-.045-.089-.207-.2-.281-.18a5.687,5.687,0,0,0-.736.3C205.88,88.057,205.887,88.09,205.889,88.122ZM202.2,94.1c0,.5.179.639.557.477a12.493,12.493,0,0,0,1.226-.6c.073-.041.089-.244.069-.361a.287.287,0,0,0-.25-.128c-.478.135-.951.288-1.42.452C202.292,93.966,202.231,94.068,202.2,94.1Zm-17.341,13.35.078,0-.054-.266a1.032,1.032,0,0,0-.174.226c-.23.583-.456,1.168-.668,1.758a1.464,1.464,0,0,0-.028.4c.121-.023.245-.039.363-.073a.884.884,0,0,0,.308-.132.421.421,0,0,0,.166-.261C184.864,108.551,184.856,108,184.856,107.45ZM203.707,85.2c-.116-.373-.219-.751-.356-1.116a.346.346,0,0,0-.272-.171c-.067,0-.181.145-.188.232-.028.371-.026.744-.029,1.117,0,.248.105.4.377.366C203.487,85.6,203.727,85.565,203.707,85.2Zm-5.467,27.193a1.114,1.114,0,0,0,.062.156.191.191,0,0,0,.117-.04,2.391,2.391,0,0,0,.483-.639,10.391,10.391,0,0,0,.316-1.422c.008-.043-.157-.162-.163-.157-.179.157-.44.3-.5.5A15.558,15.558,0,0,0,198.24,112.394Zm-7.449,11.632a.532.532,0,0,0,.009.14c.037.11.084.217.127.325a1.274,1.274,0,0,0,.27-.177q.477-.527.934-1.072a1.258,1.258,0,0,0,.174-.318.6.6,0,0,0,.017-.186.492.492,0,0,0-.178.03c-.324.2-.63.436-.967.612A.619.619,0,0,0,190.791,124.026Zm14.528-32.045-.053-.087c-.011-.205-.025-.41-.033-.615-.03-.717-.053-.737-.7-.451a.324.324,0,0,0-.152.263,4.916,4.916,0,0,0,.2.9.377.377,0,0,0,.314.159A1.466,1.466,0,0,0,205.319,91.981Zm-.31-11.905a1.662,1.662,0,0,0-.007-.351c-.011-.044-.129-.11-.15-.1q-.622.43-1.229.882c-.041.031-.048.109-.071.165a.651.651,0,0,0,.183.026,6.691,6.691,0,0,1,.83-.128C204.957,80.566,205.088,80.4,205.009,80.075ZM189.1,125.329l-.045.007.087.256a1.135,1.135,0,0,0,.244-.1,3.056,3.056,0,0,0,.387-.321c.116-.115.111-.789-.026-.832a.828.828,0,0,0-.5.08c-.072.029-.13.171-.139.267C189.083,124.9,189.1,125.115,189.1,125.329Zm19.527-39.378c0-.422-.035-.443-.394-.31-.228.084-.458.163-.689.239-.2.065-.222.194-.173.376s.149.247.331.2a2.728,2.728,0,0,1,.573-.132C208.559,86.313,208.663,86.188,208.623,85.952Zm.606-3.269c.057.449.087.8.156,1.15.02.1.15.181.23.27.07-.105.214-.223.2-.313a8.129,8.129,0,0,0-.272-1.055,1.115,1.115,0,0,0-.212-.288Zm-20.7,36.874-.051,0a4.785,4.785,0,0,0,.008.59c.011.085.1.16.161.239.051-.085.151-.173.145-.254-.077-1.055-.168-2.109-.261-3.162-.005-.058-.06-.112-.091-.167a.662.662,0,0,0-.04.175C188.438,117.84,188.483,118.7,188.527,119.557Zm13.552-35.02c-.048-.023-.146-.1-.178-.08-.35.231-.69.476-1.029.724-.035.025-.039.091-.058.138a.551.551,0,0,0,.161.018,4.856,4.856,0,0,1,.49-.109C202.111,85.174,201.97,85.139,202.079,84.537Zm.942,19.214-.14-.24c-.071.054-.187.1-.2.164-.09.351-.159.708-.224,1.065a.881.881,0,0,0,.03.254c.074-.05.192-.085.214-.153C202.817,104.485,202.914,104.12,203.021,103.752Zm2.419-10.828-.578.37c.113.153.253.446.334.43a1.1,1.1,0,0,0,.524-.358C205.745,93.339,205.565,93.117,205.439,92.923Zm-19.386,11.822a.968.968,0,0,0,.107-.054c.473-.381.946-.761,1.415-1.146.031-.025.027-.094.039-.142-.052.007-.117,0-.155.022-.315.219-.632.435-.932.672a4.068,4.068,0,0,0-.469.474C186.032,104.6,186.054,104.671,186.054,104.745Zm7.87-2.979c.036-.01.064-.016.09-.026.564-.2,1.131-.4,1.69-.618.061-.023.086-.141.127-.215-.086-.027-.177-.085-.256-.073a1.115,1.115,0,0,0-.308.135q-.654.33-1.307.665a.461.461,0,0,0-.095.092Zm1.792-9.51a1.345,1.345,0,0,0-.139-.116c-.11.1-.29.214-.3.333a4.477,4.477,0,0,0,.083.838c0,.03.035.057.054.086.02-.028.051-.053.058-.083C195.554,92.976,195.63,92.637,195.716,92.256Zm7.975-6c-.192.2-.354.3-.4.431a.212.212,0,0,0,.263.285.8.8,0,0,0,.386-.3C203.969,86.633,203.822,86.467,203.691,86.256Zm-24.465,30.018-.056-.176a.714.714,0,0,0-.122.172c-.087.266-.172.534-.236.806a.99.99,0,0,0,.027.308c.088-.083.229-.153.255-.252A8.2,8.2,0,0,0,179.226,116.274ZM201.456,97h0a4.861,4.861,0,0,0-.008-.589c-.01-.085-.1-.159-.157-.238-.047.093-.142.193-.131.278.047.36.125.716.195,1.073a1.309,1.309,0,0,0,.061.178.8.8,0,0,0,.042-.169C201.46,97.358,201.456,97.18,201.456,97Zm-7.808,16.714.4.467c.06-.084.188-.193.168-.248a2.53,2.53,0,0,0-.272-.454Zm3-12.94.352.426c.042-.047.128-.116.117-.136-.087-.169-.192-.33-.292-.493Zm1.623-10.414.5-.376a1.341,1.341,0,0,0-.116-.142c-.178.112-.35.235-.523.356Zm13.788-5.914-.115-.245c-.082.092-.233.186-.23.277a1.179,1.179,0,0,0,.177.408Zm-10.571,20.488-.035-.12c-.06,0-.134-.035-.176-.01a1.992,1.992,0,0,0-.311.238,3.069,3.069,0,0,0-.214.235,1.31,1.31,0,0,0,.29-.073C201.194,105.13,201.337,105.028,201.485,104.937Z" transform="translate(217.864 135.155) rotate(180)"></path></g></svg> 