<?xml version="1.0" encoding="UTF-8"?> <svg xmlns="http://www.w3.org/2000/svg" width="250" height="250" viewBox="0 0 60.498 62.093"><path d="M377.442,261.341c.086-.065.091-.069.072-.055l-.064.049Z" transform="translate(-358.627 -248.81)"></path><g transform="translate(-101.322 -113.737)"><g transform="translate(115.047 123.906)"><path d="M299.415,466.159c-9.776-3.249-10.193-18.6-10.193-18.6s-3.578,16.709,9.148,21.994a18.225,18.225,0,0,0,15.033-.042,34.14,34.14,0,0,0,3.076-6.766C311.38,467.063,305.655,468.233,299.415,466.159Z" transform="translate(-288.759 -433.28)"></path><path d="M791.04,253.027c-1.889-.806-2.856-.329-3.211.662a147.657,147.657,0,0,1-5.192,15.009c-.044,1.317-.1,2.52-.16,3.548a45.968,45.968,0,0,1-.953,6.52,34.2,34.2,0,0,0,2.974-5.01c2.566-5.525,7.583-18.794,7.583-18.794C792.323,254.252,792.373,253.6,791.04,253.027Zm-.7,2.376-.481,1.227a.513.513,0,0,1-.534.3.681.681,0,0,1-.192-.044l-.109-.042a.581.581,0,0,1-.391-.676h0l.376-1.261a.465.465,0,0,1,.24-.282.617.617,0,0,1,.484-.02l.214.076a.654.654,0,0,1,.378.337A.485.485,0,0,1,790.337,255.4Z" transform="translate(-745.442 -252.619)"></path></g><path d="M151.477,115.833c-.041-1.024-.289-1.9-2.164-2.064-2.658-.235-3.6.8-3.566,2.237.017.663,1.63,17.956.327,27.155-2.6,18.313-10.62,27.759-23.725,27.739-13.326-.02-21.027-19.765-21.027-19.765s3.126,23.232,21.354,24.612c23.235,1.759,28.03-25.329,28.457-32.273C151.64,135.2,151.477,115.833,151.477,115.833Zm-1.922,3.106a.6.6,0,0,1-.192.438.756.756,0,0,1-.558.194l-.151-.007h-.023a.777.777,0,0,1-.737-.669l-.137-1.8a.6.6,0,0,1,.166-.463.744.744,0,0,1,.56-.219l.294.007a.767.767,0,0,1,.783.719Z" transform="translate(0 0)"></path></g></svg> 