<?xml version="1.0" encoding="UTF-8"?>
<svg width="128px" height="112px" viewBox="0 0 128 112" version="1.1" xmlns="http://www.w3.org/2000/svg" xmlns:xlink="http://www.w3.org/1999/xlink">
    <!-- Generator: Sketch 61.2 (89653) - https://sketch.com -->
    <title>dots-pattern</title>
    <desc>Created with Sketch.</desc>
    <g id="Page-1" stroke="none" stroke-width="1" fill="none" fill-rule="evenodd">
        <g id="A5" transform="translate(-145.000000, -265.000000)">
            <g id="dots-pattern" transform="translate(145.000000, 265.000000)">
                <rect id="Rectangle" fill-opacity="0" fill="#FFFFFF" x="0" y="0" width="64" height="56"></rect>
                <circle id="Ellipse_43-32" fill="#9F325D" fill-rule="nonzero" cx="3.5" cy="3.5" r="3.5"></circle>
                <circle id="Ellipse_43-32" fill="#9F325D" fill-rule="nonzero" cx="19.5" cy="3.5" r="3.5"></circle>
                <circle id="Ellipse_43-32" fill="#9F325D" fill-rule="nonzero" cx="3.5" cy="17.5" r="3.5"></circle>
                <circle id="Ellipse_43-32" fill="#9F325D" fill-rule="nonzero" cx="19.5" cy="17.5" r="3.5"></circle>
                <circle id="Ellipse_43-32" fill="#9F325D" fill-rule="nonzero" cx="35.5" cy="3.5" r="3.5"></circle>
                <circle id="Ellipse_43-32" fill="#9F325D" fill-rule="nonzero" cx="51.5" cy="3.5" r="3.5"></circle>
                <circle id="Ellipse_43-32" fill="#9F325D" fill-rule="nonzero" cx="35.5" cy="17.5" r="3.5"></circle>
                <circle id="Ellipse_43-32" fill="#9F325D" fill-rule="nonzero" cx="51.5" cy="17.5" r="3.5"></circle>
                <circle id="Ellipse_43-32" fill="#9F325D" fill-rule="nonzero" cx="3.5" cy="31.5" r="3.5"></circle>
                <circle id="Ellipse_43-32" fill="#9F325D" fill-rule="nonzero" cx="19.5" cy="31.5" r="3.5"></circle>
                <circle id="Ellipse_43-32" fill="#9F325D" fill-rule="nonzero" cx="3.5" cy="45.5" r="3.5"></circle>
                <circle id="Ellipse_43-32" fill="#9F325D" fill-rule="nonzero" cx="19.5" cy="45.5" r="3.5"></circle>
                <circle id="Ellipse_43-32" fill="#9F325D" fill-rule="nonzero" cx="35.5" cy="31.5" r="3.5"></circle>
                <circle id="Ellipse_43-32" fill="#9F325D" fill-rule="nonzero" cx="51.5" cy="31.5" r="3.5"></circle>
                <circle id="Ellipse_43-32" fill="#9F325D" fill-rule="nonzero" cx="35.5" cy="45.5" r="3.5"></circle>
                <circle id="Ellipse_43-32" fill="#9F325D" fill-rule="nonzero" cx="51.5" cy="45.5" r="3.5"></circle>
                <rect id="Rectangle" fill-opacity="0" fill="#FFFFFF" x="64" y="0" width="64" height="56"></rect>
                <circle id="Ellipse_43-32" fill="#9F325D" fill-rule="nonzero" cx="67.5" cy="3.5" r="3.5"></circle>
                <circle id="Ellipse_43-32" fill="#9F325D" fill-rule="nonzero" cx="83.5" cy="3.5" r="3.5"></circle>
                <circle id="Ellipse_43-32" fill="#9F325D" fill-rule="nonzero" cx="67.5" cy="17.5" r="3.5"></circle>
                <circle id="Ellipse_43-32" fill="#9F325D" fill-rule="nonzero" cx="83.5" cy="17.5" r="3.5"></circle>
                <circle id="Ellipse_43-32" fill="#9F325D" fill-rule="nonzero" cx="99.5" cy="3.5" r="3.5"></circle>
                <circle id="Ellipse_43-32" fill="#9F325D" fill-rule="nonzero" cx="115.5" cy="3.5" r="3.5"></circle>
                <circle id="Ellipse_43-32" fill="#9F325D" fill-rule="nonzero" cx="99.5" cy="17.5" r="3.5"></circle>
                <circle id="Ellipse_43-32" fill="#9F325D" fill-rule="nonzero" cx="115.5" cy="17.5" r="3.5"></circle>
                <circle id="Ellipse_43-32" fill="#9F325D" fill-rule="nonzero" cx="67.5" cy="31.5" r="3.5"></circle>
                <circle id="Ellipse_43-32" fill="#9F325D" fill-rule="nonzero" cx="83.5" cy="31.5" r="3.5"></circle>
                <circle id="Ellipse_43-32" fill="#9F325D" fill-rule="nonzero" cx="67.5" cy="45.5" r="3.5"></circle>
                <circle id="Ellipse_43-32" fill="#9F325D" fill-rule="nonzero" cx="83.5" cy="45.5" r="3.5"></circle>
                <circle id="Ellipse_43-32" fill="#9F325D" fill-rule="nonzero" cx="99.5" cy="31.5" r="3.5"></circle>
                <circle id="Ellipse_43-32" fill="#9F325D" fill-rule="nonzero" cx="115.5" cy="31.5" r="3.5"></circle>
                <circle id="Ellipse_43-32" fill="#9F325D" fill-rule="nonzero" cx="99.5" cy="45.5" r="3.5"></circle>
                <circle id="Ellipse_43-32" fill="#9F325D" fill-rule="nonzero" cx="115.5" cy="45.5" r="3.5"></circle>
                <rect id="Rectangle" fill-opacity="0" fill="#FFFFFF" x="0" y="56" width="64" height="56"></rect>
                <circle id="Ellipse_43-32" fill="#9F325D" fill-rule="nonzero" cx="3.5" cy="59.5" r="3.5"></circle>
                <circle id="Ellipse_43-32" fill="#9F325D" fill-rule="nonzero" cx="19.5" cy="59.5" r="3.5"></circle>
                <circle id="Ellipse_43-32" fill="#9F325D" fill-rule="nonzero" cx="3.5" cy="73.5" r="3.5"></circle>
                <circle id="Ellipse_43-32" fill="#9F325D" fill-rule="nonzero" cx="19.5" cy="73.5" r="3.5"></circle>
                <circle id="Ellipse_43-32" fill="#9F325D" fill-rule="nonzero" cx="35.5" cy="59.5" r="3.5"></circle>
                <circle id="Ellipse_43-32" fill="#9F325D" fill-rule="nonzero" cx="51.5" cy="59.5" r="3.5"></circle>
                <circle id="Ellipse_43-32" fill="#9F325D" fill-rule="nonzero" cx="35.5" cy="73.5" r="3.5"></circle>
                <circle id="Ellipse_43-32" fill="#9F325D" fill-rule="nonzero" cx="51.5" cy="73.5" r="3.5"></circle>
                <circle id="Ellipse_43-32" fill="#9F325D" fill-rule="nonzero" cx="3.5" cy="87.5" r="3.5"></circle>
                <circle id="Ellipse_43-32" fill="#9F325D" fill-rule="nonzero" cx="19.5" cy="87.5" r="3.5"></circle>
                <circle id="Ellipse_43-32" fill="#9F325D" fill-rule="nonzero" cx="3.5" cy="101.5" r="3.5"></circle>
                <circle id="Ellipse_43-32" fill="#9F325D" fill-rule="nonzero" cx="19.5" cy="101.5" r="3.5"></circle>
                <circle id="Ellipse_43-32" fill="#9F325D" fill-rule="nonzero" cx="35.5" cy="87.5" r="3.5"></circle>
                <circle id="Ellipse_43-32" fill="#9F325D" fill-rule="nonzero" cx="51.5" cy="87.5" r="3.5"></circle>
                <circle id="Ellipse_43-32" fill="#9F325D" fill-rule="nonzero" cx="35.5" cy="101.5" r="3.5"></circle>
                <circle id="Ellipse_43-32" fill="#9F325D" fill-rule="nonzero" cx="51.5" cy="101.5" r="3.5"></circle>
                <rect id="Rectangle" fill-opacity="0" fill="#FFFFFF" x="64" y="56" width="64" height="56"></rect>
                <circle id="Ellipse_43-32" fill="#9F325D" fill-rule="nonzero" cx="67.5" cy="59.5" r="3.5"></circle>
                <circle id="Ellipse_43-32" fill="#9F325D" fill-rule="nonzero" cx="83.5" cy="59.5" r="3.5"></circle>
                <circle id="Ellipse_43-32" fill="#9F325D" fill-rule="nonzero" cx="67.5" cy="73.5" r="3.5"></circle>
                <circle id="Ellipse_43-32" fill="#9F325D" fill-rule="nonzero" cx="83.5" cy="73.5" r="3.5"></circle>
                <circle id="Ellipse_43-32" fill="#9F325D" fill-rule="nonzero" cx="99.5" cy="59.5" r="3.5"></circle>
                <circle id="Ellipse_43-32" fill="#9F325D" fill-rule="nonzero" cx="115.5" cy="59.5" r="3.5"></circle>
                <circle id="Ellipse_43-32" fill="#9F325D" fill-rule="nonzero" cx="99.5" cy="73.5" r="3.5"></circle>
                <circle id="Ellipse_43-32" fill="#9F325D" fill-rule="nonzero" cx="115.5" cy="73.5" r="3.5"></circle>
                <circle id="Ellipse_43-32" fill="#9F325D" fill-rule="nonzero" cx="67.5" cy="87.5" r="3.5"></circle>
                <circle id="Ellipse_43-32" fill="#9F325D" fill-rule="nonzero" cx="83.5" cy="87.5" r="3.5"></circle>
                <circle id="Ellipse_43-32" fill="#9F325D" fill-rule="nonzero" cx="67.5" cy="101.5" r="3.5"></circle>
                <circle id="Ellipse_43-32" fill="#9F325D" fill-rule="nonzero" cx="83.5" cy="101.5" r="3.5"></circle>
                <circle id="Ellipse_43-32" fill="#9F325D" fill-rule="nonzero" cx="99.5" cy="87.5" r="3.5"></circle>
                <circle id="Ellipse_43-32" fill="#9F325D" fill-rule="nonzero" cx="115.5" cy="87.5" r="3.5"></circle>
                <circle id="Ellipse_43-32" fill="#9F325D" fill-rule="nonzero" cx="99.5" cy="101.5" r="3.5"></circle>
                <circle id="Ellipse_43-32" fill="#9F325D" fill-rule="nonzero" cx="115.5" cy="101.5" r="3.5"></circle>
            </g>
        </g>
    </g>
</svg>