<?xml version="1.0" encoding="UTF-8"?> <svg xmlns:svg="http://www.w3.org/2000/svg" xmlns="http://www.w3.org/2000/svg" xmlns:xlink="http://www.w3.org/1999/xlink" version="1.1" id="svg1077" x="0px" y="0px" viewBox="0 0 682.67 682.67" style="enable-background:new 0 0 682.67 682.67;" xml:space="preserve"> <style type="text/css"> .st0{clip-path:url(#SVGID_00000085224204766436348070000007796842758392798357_);} .st1{fill:none;stroke:#000000;stroke-width:20;stroke-linecap:round;stroke-linejoin:round;stroke-miterlimit:13.3333;} </style> <g id="g1083" transform="matrix(1.3333333,0,0,-1.3333333,0,682.66667)"> <g id="g1085"> <g> <defs> <rect id="SVGID_1_" x="-100.7" y="-101.14" transform="matrix(0.4782 -0.8783 0.8783 0.4782 -85.3854 336.6726)" width="682.67" height="682.67"></rect> </defs> <clipPath id="SVGID_00000042720143748962385360000018176312231922261691_"> <use xlink:href="#SVGID_1_" style="overflow:visible;"></use> </clipPath> <g id="g1087" style="clip-path:url(#SVGID_00000042720143748962385360000018176312231922261691_);"> <g id="g1093" transform="translate(256,7.5)"> <path id="path1095" class="st1" d="M-134.2,14.44l107.33,197.13"></path> </g> <g id="g1097" transform="translate(272.0322,330.9006)"> <path id="path1099" class="st1" d="M18.5-32.59l-39.65-72.82c-4.23-7.78-13.97-10.65-21.75-6.41 c-7.78,4.23-10.65,13.97-6.41,21.75l39.65,72.82"></path> </g> <g id="g1101" transform="translate(281.5513,336.1614)"> <path id="path1103" class="st1" d="M19.85-37.79l55-29.95c7.78-4.23,10.65-13.97,6.41-21.75l-19.17-35.2 c-4.23-7.78-13.97-10.65-21.75-6.41l-63.36,34.5"></path> </g> <g id="g1105" transform="translate(207.9028,264.0161)"> <path id="path1107" class="st1" d="M-5.68,6.22l-35.2,19.17c-7.78,4.23-10.65,13.97-6.41,21.75l19.17,35.2 c4.23,7.78,13.97,10.65,21.75,6.41l55.22-30.07"></path> </g> <g id="g1109" transform="translate(296.0806,368.2258)"> <path id="path1111" class="st1" d="M33.42-48.64C22.83-68.08-1.51-75.26-20.95-64.67C-40.39-54.09-47.57-29.75-36.99-10.3 S-2.06,16.32,17.38,5.73C36.82-4.85,44-29.2,33.42-48.64z"></path> </g> <g id="g1113" transform="translate(239.9678,456.4033)"> <path id="path1115" class="st1" d="M82.41-32.54l-23-42.24"></path> </g> <g id="g1117" transform="translate(272.0322,456.4033)"> <path id="path1119" class="st1" d="M78.51-47.87l-23-42.24"></path> </g> <g id="g1121" transform="translate(272.0322,456.4033)"> <path id="path1123" class="st1" d="M78.51-47.87L50.35-32.54c-3.89,2.12-5.32,6.99-3.21,10.87L62.47,6.5 c2.12,3.89,6.99,5.32,10.87,3.21l28.16-15.33c3.89-2.12,5.32-6.99,3.21-10.87L89.38-44.66C87.27-48.55,82.4-49.99,78.51-47.87z "></path> </g> <g id="g1125" transform="translate(256,376.2419)"> <path id="path1127" class="st1" d="M42.13-30.45l-7.67-14.08"></path> </g> </g> </g> </g> </g> </svg> 