<svg xmlns="http://www.w3.org/2000/svg" width="208.454" height="47.912" viewBox="0 0 208.454 47.912"><g transform="translate(54.48 -219.86)"><path d="M-8.044,246.274a.845.845,0,0,0-.018-.118.827.827,0,0,0-.08-.174.8.8,0,0,0-.06-.109c-.005-.007-.007-.016-.012-.023l-13.276-16.384a.851.851,0,0,0-.234-.2.688.688,0,0,0-.08-.034.844.844,0,0,0-.217-.069c-.016,0-.028-.012-.043-.014l-11.963-1.288h0c-.019,0-.037,0-.056,0s-.036-.01-.057-.009a.821.821,0,0,0-.115.027c-.014,0-.028,0-.042,0s-.047,0-.069.007h-.005l-19.508,6.073a.7.7,0,0,0-.095.052.8.8,0,0,0-.131.065l-.041.03a.823.823,0,0,0-.1.1.882.882,0,0,0-.089.1l-.031.049a.783.783,0,0,0-.05.124.823.823,0,0,0-.045.133c0,.012-.011.022-.013.035s0,.016,0,.023a.883.883,0,0,0,0,.135.807.807,0,0,0,0,.108l4.6,29.446c0,.014.01.024.012.037a.92.92,0,0,0,.033.1.856.856,0,0,0,.041.109.875.875,0,0,0,.054.092c.01.013.011.03.021.043a.96.96,0,0,0,.068.071c.014.014.026.03.041.043l.01.01c.006.005.01.013.017.019a.834.834,0,0,0,.221.131c.008,0,.012.01.019.012l27.423,10.675c.01,0,.021,0,.031.006a.819.819,0,0,0,.179.038c.017,0,.032.012.049.013h.056a.89.89,0,0,0,.229-.034c.02-.005.038-.014.058-.021l.058-.023a.952.952,0,0,0,.1-.052.715.715,0,0,0,.07-.049.826.826,0,0,0,.067-.05l.017-.02c.009-.009.016-.021.025-.03a.9.9,0,0,0,.063-.073c.01-.014.022-.023.031-.037L-10.131,258.9l0,0,0-.008c0-.006,0-.013.008-.019a.956.956,0,0,0,.052-.118.8.8,0,0,0,.053-.118c0-.01,0-.021,0-.032A.349.349,0,0,0-10,258.56l0-.006,1.961-12.024a.478.478,0,0,0,0-.054A.823.823,0,0,0-8.044,246.274Zm-42.925-.021,0-.032,0-.012L-52.6,235.823l13.777,2.158,4.243,5.436.238,8.753L-48.4,262.7Zm12.5-9.957-11.378-1.782,14.9-4.638.131,4.8Zm3.7.238.109,3.99-2.341-3Zm1.482,16.992,8.254,2.125,3.468,4.443-.829,13.592L-47.275,264Zm12.638,4.95-1.657-2.123,2.874.739Zm.8,1.692,2.281-2.6,5.349,1.376-8.334,12.776Zm3.553-4.043,6.082-6.921-1.328,8.144Zm-16.335-4.2-.17-6.222,6.034,7.731Zm-.607-22.243,7.8.84-7.687,3.407Zm15.077,25.967-5.879-1.512-8.84-11.327-.192-7.024,10.657-4.723,12.406,15.309Z" transform="translate(0 -8)" fill="#e11d73"/><g transform="translate(3.977 228.606)"><path d="M39.789,259.865a10.953,10.953,0,0,1-7.8,3.208c-6.026,0-11.011-4.161-11.011-10.923s4.812-10.923,11.011-10.923a11.137,11.137,0,0,1,7.8,3.208L38.4,245.777a9.079,9.079,0,0,0-6.415-2.557c-4.856,0-8.93,3.164-8.93,8.929s4.074,8.929,8.93,8.929a9.068,9.068,0,0,0,6.372-2.644Z" transform="translate(-20.976 -232.383)" fill="#e11d73"/><path d="M56.693,228.547v12.918a8.569,8.569,0,0,1,7.716-4.291c5.982,0,8.973,3.858,8.973,9.449V258.89H71.3V246.623c0-4.421-2.08-7.412-6.892-7.412-4.508,0-7.628,3.468-7.628,7.932V258.89H54.656V228.547Z" transform="translate(-31.512 -228.417)" fill="#e11d73"/><path d="M110.034,241.423v21.414H107.91v-4.552a10.009,10.009,0,0,1-8.756,4.9,11.011,11.011,0,0,1,0-22.02,9.714,9.714,0,0,1,8.756,4.942v-4.682ZM90.4,252.13a8.6,8.6,0,0,0,8.756,8.973c11.921,0,11.921-17.9,0-17.9A8.563,8.563,0,0,0,90.4,252.13Z" transform="translate(-42.028 -232.364)" fill="#e11d73"/><path d="M160.056,262.758v-12.83c0-4.118-2.775-7.023-6.849-7.023s-6.892,3.035-6.892,7.152v12.7H144.19v-12.7a6.728,6.728,0,0,0-6.892-7.109c-4.074,0-6.848,2.991-6.848,7.109v12.7h-2.124V241.344h1.994l.044,3.555a7.542,7.542,0,0,1,6.978-3.988c3.251,0,6.676,1.474,7.934,5.289a8.274,8.274,0,0,1,7.932-5.289,8.614,8.614,0,0,1,8.973,9.017v12.83Z" transform="translate(-54.557 -232.285)" fill="#e11d73"/><path d="M187.512,258.831V239.455h-4.378v-1.864h4.378v-1.908c0-4.248,1.691-7.325,6.416-7.325a7,7,0,0,1,4.248,1.474l-1.04,1.56a5.86,5.86,0,0,0-3.294-1.083c-2.688,0-4.247,1.647-4.247,5.374v1.908h7.066v1.864h-7.066v19.376Z" transform="translate(-71.702 -228.358)" fill="#e11d73"/><path d="M211.431,241.441l.087,3.815c1.343-2.9,4.379-4.032,7.11-4.032a8.362,8.362,0,0,1,4.594,1.257l-.953,1.734a6.89,6.89,0,0,0-3.641-1,7.113,7.113,0,0,0-7.066,7.152v12.484h-2.124V241.441Z" transform="translate(-79.93 -232.382)" fill="#e11d73"/></g><g transform="translate(148.394 232.088)"><path d="M231.357,235.1a2.75,2.75,0,0,1,.6-.876,2.823,2.823,0,0,1,.891-.582,2.788,2.788,0,0,1,3.64,1.458,2.66,2.66,0,0,1,.223,1.091,2.723,2.723,0,0,1-.223,1.11,2.821,2.821,0,0,1-.6.883,2.7,2.7,0,0,1-.883.583,2.912,2.912,0,0,1-2.156,0,2.754,2.754,0,0,1-1.718-2.576A2.671,2.671,0,0,1,231.357,235.1Zm.457,2.038a2.289,2.289,0,0,0,.482.752,2.239,2.239,0,0,0,1.636.683,2.208,2.208,0,0,0,.9-.181,2.235,2.235,0,0,0,.724-.5,2.314,2.314,0,0,0,.482-.752,2.523,2.523,0,0,0,.175-.947,2.445,2.445,0,0,0-.175-.927,2.253,2.253,0,0,0-1.206-1.244,2.22,2.22,0,0,0-.9-.181,2.247,2.247,0,0,0-2.118,1.425,2.432,2.432,0,0,0-.175.927A2.51,2.51,0,0,0,231.814,237.133Zm2.289-2.557a1.334,1.334,0,0,1,.857.23.854.854,0,0,1,.278.7.788.788,0,0,1-.245.642,1.1,1.1,0,0,1-.608.241l.927,1.433h-.542l-.883-1.4h-.534v1.4h-.505v-3.243Zm-.223,1.44c.113,0,.221,0,.322-.011a.834.834,0,0,0,.271-.063.424.424,0,0,0,.189-.159.549.549,0,0,0,.071-.3.472.472,0,0,0-.063-.26.431.431,0,0,0-.163-.148.712.712,0,0,0-.23-.071,1.815,1.815,0,0,0-.256-.019h-.669v1.031Z" transform="translate(-231.134 -233.426)" fill="#e11d73"/></g></g></svg>