<svg width="91" height="32" viewBox="0 0 91 32" fill="none" xmlns="http://www.w3.org/2000/svg">
<path d="M38.775 4.58228H42.3293V23.3439H38.775V4.58228Z" fill="#282230"/>
<path d="M44.1615 16.1225C44.1615 11.9335 47.2654 8.86011 51.5806 8.86011C55.8957 8.86011 58.9996 11.9318 58.9996 16.1225C58.9996 20.3132 55.8974 23.3849 51.5806 23.3849C47.2637 23.3849 44.1615 20.3132 44.1615 16.1225ZM55.4178 16.1225C55.4178 13.6095 53.8667 11.9045 51.5806 11.9045C49.2945 11.9045 47.7434 13.6077 47.7434 16.1225C47.7434 18.6373 49.2669 20.3406 51.5806 20.3406C53.8943 20.3406 55.4178 18.6373 55.4178 16.1225Z" fill="#282230"/>
<path d="M60.804 8.86011H64.3582V10.7035C65.1484 9.61351 66.6995 8.86011 68.5888 8.86011C72.6796 8.86011 75.19 11.8208 75.19 16.1225C75.19 20.4243 72.5105 23.3849 68.3352 23.3849C66.6995 23.3849 65.176 22.7699 64.3582 21.7654V27.6764H60.804V8.86011ZM71.6651 16.1225C71.6651 13.5804 70.1692 11.9045 67.9125 11.9045C65.6557 11.9045 64.1322 13.5804 64.1322 16.1225C64.1322 18.6646 65.6281 20.3406 67.9125 20.3406C70.1968 20.3406 71.6651 18.6646 71.6651 16.1225Z" fill="#282230"/>
<path d="M83.9934 20.4243C81.9626 20.4243 80.5806 19.1669 80.2701 17.045H90.8207C90.8483 16.7649 90.8776 16.1516 90.8776 15.6493C90.8776 12.3811 88.5363 8.86182 83.7415 8.86182C78.9467 8.86182 76.7175 12.4648 76.7175 16.1242C76.7175 19.7836 79.2279 23.3866 83.9399 23.3866C86.6263 23.3866 88.7606 22.3684 89.8993 20.5797L87.5062 18.5279C86.8109 19.5701 85.51 20.426 83.9951 20.426L83.9934 20.4243ZM83.7398 11.5423C85.7981 11.5423 86.8989 12.7997 87.068 14.4756H80.3546C80.7497 12.5759 81.9902 11.5423 83.7398 11.5423Z" fill="#282230"/>
<path d="M30.4708 11.7883C28.6022 11.3134 27.1253 10.9392 27.1253 9.74505C27.1253 8.55088 28.1226 7.93586 29.7945 7.93586C31.6095 7.93586 32.9156 8.71147 33.5212 10.1294L36.2387 7.81115C35.1155 5.82428 32.7121 4.57031 29.7945 4.57031C25.9883 4.57031 23.2277 6.74681 23.2277 9.74505C23.2277 13.6095 26.5249 14.5849 29.1751 15.3691C31.2231 15.9756 32.9933 16.4984 32.9933 18.0838C32.9933 19.3736 31.8114 20.2056 29.9808 20.2056C28.1502 20.2056 26.5094 18.9636 25.626 16.9255L22.9637 19.1976C23.9938 21.8029 26.6716 23.5711 29.8479 23.5711C34.1061 23.5711 36.9685 21.3348 36.9685 18.0052C36.9685 13.4369 33.366 12.5229 30.4708 11.7883Z" fill="#282230"/>
<g clip-path="url(#clip0_166_10702)">
<path d="M16.2939 0L6.23027 20.4069L0 14.1428L16.2939 0Z" fill="#FF7D52"/>
<path d="M0.504272 32.0001L10.5659 11.5933L16.7982 17.8574L0.504272 32.0001Z" fill="#FF7D52"/>
<path d="M6.23027 20.407L10.5758 11.5952L0 14.1429L6.23027 20.407Z" fill="#F0511C"/>
</g>
<defs>
<clipPath id="clip0_166_10702">
<rect width="16.7981" height="32" fill="white"/>
</clipPath>
</defs>
</svg>
