<?xml version="1.0" encoding="UTF-8"?>
<svg width="96px" height="96px" viewBox="0 0 96 96" version="1.1" xmlns="http://www.w3.org/2000/svg" xmlns:xlink="http://www.w3.org/1999/xlink">
    <title>Icon / Bold / Shopping / Cart</title>
    <g id="Symbols" stroke="none" stroke-width="1" fill="none" fill-rule="evenodd">
        <g id="*Icon-/-Bold-/-Shopping-/-Cart" fill="#000000" fill-rule="nonzero">
            <path d="M72.8479333,70.24955 C78.9226568,70.24955 83.8479333,75.1752802 83.8479333,81.24955 C83.8479333,87.3252734 78.9232032,92.24955 72.8479333,92.24955 C66.7726635,92.24955 61.8479333,87.3252734 61.8479333,81.24955 C61.8479333,75.1752802 66.7732099,70.24955 72.8479333,70.24955 Z M37.8479333,70.24955 C43.9226568,70.24955 48.8479333,75.1752802 48.8479333,81.24955 C48.8479333,87.3252734 43.9232032,92.24955 37.8479333,92.24955 C31.7733902,92.24955 26.8479333,87.3250003 26.8479333,81.24955 C26.8479333,75.1755534 31.7739367,70.24955 37.8479333,70.24955 Z M72.8479333,77.24955 C70.6393474,77.24955 68.8479333,79.0411291 68.8479333,81.24955 C68.8479333,83.4591358 70.6385124,85.24955 72.8479333,85.24955 C75.0573543,85.24955 76.8479333,83.4591358 76.8479333,81.24955 C76.8479333,79.0411291 75.0565192,77.24955 72.8479333,77.24955 Z M37.8479333,77.24955 C35.63993,77.24955 33.8479333,79.0415466 33.8479333,81.24955 C33.8479333,83.4587184 35.6390949,85.24955 37.8479333,85.24955 C40.0573543,85.24955 41.8479333,83.4591358 41.8479333,81.24955 C41.8479333,79.0411291 40.0565192,77.24955 37.8479333,77.24955 Z M13.8918638,3.75045 C16.179428,3.75045 18.2683665,5.3008178 18.9503871,7.47072773 L19.0138547,7.68974939 L21.9841638,18.87675 L90.1118638,18.87745 C93.2162217,18.87745 95.4343108,21.6692513 94.7732945,24.6633874 L94.7249396,24.8632678 L85.1661619,61.1544232 C84.5832248,63.3695845 82.5484688,64.995697 80.2722461,65.0983024 L80.0438638,65.10345 L30.0608638,65.10345 C27.7739587,65.10345 25.6836309,63.5536991 25.0013614,61.383232 L24.9378729,61.1641506 L11.8141638,11.75075 L1.11405472,11.7574494 L1.10967287,3.7574506 L13.8918638,3.75045 Z M85.9211638,26.87675 L24.1091638,26.87675 L32.1361638,57.10275 L77.9591638,57.10275 L85.9211638,26.87675 Z" id="Icon-/-Bold-/-Shopping-/-Cart"></path>
        </g>
    </g>
</svg>