<?xml version="1.0" encoding="utf-8"?>
<!-- Generator: Adobe Illustrator 22.1.0, SVG Export Plug-In . SVG Version: 6.00 Build 0)  -->
<svg version="1.1" id="Layer_1" xmlns="http://www.w3.org/2000/svg" xmlns:xlink="http://www.w3.org/1999/xlink" x="0px" y="0px"
	 viewBox="0 0 40 40" style="enable-background:new 0 0 40 40;" xml:space="preserve">
<style type="text/css">
	.st0{fill:#FFFFFF;}
</style>
<g>
	<path class="st0" d="M23.8,20c0,2.1-1.7,3.8-3.8,3.8s-3.8-1.7-3.8-3.8s1.7-3.8,3.8-3.8S23.8,17.9,23.8,20z"/>
	<path class="st0" d="M29,13.2c-0.2-0.5-0.5-1-0.9-1.3c-0.4-0.4-0.8-0.7-1.3-0.9c-0.4-0.2-1-0.3-2.1-0.4c-1.2-0.1-1.6-0.1-4.6-0.1
		c-3.1,0-3.4,0-4.6,0.1c-1.1,0.1-1.7,0.2-2.1,0.4c-0.5,0.2-1,0.5-1.3,0.9c-0.4,0.4-0.7,0.8-0.9,1.3c-0.2,0.4-0.3,1-0.4,2.1
		c-0.1,1.2-0.1,1.6-0.1,4.6c0,3.1,0,3.4,0.1,4.6c0.1,1.1,0.2,1.7,0.4,2.1c0.2,0.5,0.5,1,0.9,1.3c0.4,0.4,0.8,0.7,1.3,0.9
		c0.4,0.2,1,0.3,2.1,0.4c1.2,0.1,1.6,0.1,4.6,0.1c3.1,0,3.4,0,4.6-0.1c1.1-0.1,1.7-0.2,2.1-0.4c1-0.4,1.8-1.2,2.2-2.2
		c0.2-0.4,0.3-1,0.4-2.1c0.1-1.2,0.1-1.6,0.1-4.6c0-3.1,0-3.4-0.1-4.6C29.3,14.2,29.1,13.6,29,13.2z M20,25.9
		c-3.3,0-5.9-2.6-5.9-5.9s2.6-5.9,5.9-5.9c3.3,0,5.9,2.6,5.9,5.9S23.3,25.9,20,25.9z M26.1,15.2c-0.8,0-1.4-0.6-1.4-1.4
		s0.6-1.4,1.4-1.4s1.4,0.6,1.4,1.4C27.5,14.6,26.9,15.2,26.1,15.2z"/>
	<path class="st0" d="M20,0C9,0,0,9,0,20s9,20,20,20s20-9,20-20S31,0,20,0z M31.4,24.7c-0.1,1.2-0.2,2.1-0.5,2.8
		c-0.6,1.5-1.8,2.8-3.4,3.4c-0.7,0.3-1.6,0.5-2.8,0.5c-1.2,0.1-1.6,0.1-4.7,0.1c-3.1,0-3.5,0-4.7-0.1c-1.2-0.1-2.1-0.2-2.8-0.5
		c-0.8-0.3-1.5-0.7-2-1.3c-0.6-0.6-1-1.3-1.3-2c-0.3-0.7-0.5-1.6-0.5-2.8c-0.1-1.2-0.1-1.6-0.1-4.7s0-3.5,0.1-4.7
		c0.1-1.2,0.2-2.1,0.5-2.8c0.3-0.8,0.7-1.5,1.3-2c0.6-0.6,1.3-1,2-1.3c0.7-0.3,1.6-0.5,2.8-0.5c1.2-0.1,1.6-0.1,4.7-0.1
		s3.5,0,4.7,0.1c1.2,0.1,2.1,0.2,2.8,0.5c0.8,0.3,1.5,0.7,2,1.3c0.6,0.6,1,1.3,1.3,2c0.3,0.7,0.5,1.6,0.5,2.8
		c0.1,1.2,0.1,1.6,0.1,4.7S31.5,23.5,31.4,24.7z"/>
</g>
</svg>
