<?xml version="1.0" encoding="utf-8"?>
<!-- Generator: Adobe Illustrator 22.1.0, SVG Export Plug-In . SVG Version: 6.00 Build 0)  -->
<svg version="1.1" id="Layer_1" xmlns="http://www.w3.org/2000/svg" xmlns:xlink="http://www.w3.org/1999/xlink" x="0px" y="0px"
	 viewBox="0 0 40 40" style="enable-background:new 0 0 40 40;" xml:space="preserve">
<style type="text/css">
	.st0{fill:#FFFFFF;}
</style>
<path class="st0" d="M20,0C9,0,0,9,0,20s9,20,20,20s20-9,20-20S31,0,20,0z M29.1,15.6c0,0.2,0,0.4,0,0.6c0,6.1-4.6,13.1-13.1,13.1h0
	h0c-2.6,0-5-0.8-7-2.1c0.4,0,0.7,0.1,1.1,0.1c2.2,0,4.1-0.7,5.7-2c-2,0-3.7-1.4-4.3-3.2c0.3,0.1,0.6,0.1,0.9,0.1
	c0.4,0,0.8-0.1,1.2-0.2c-2.1-0.4-3.7-2.3-3.7-4.5c0,0,0,0,0-0.1c0.6,0.3,1.3,0.6,2.1,0.6c-1.2-0.8-2-2.2-2-3.8
	c0-0.8,0.2-1.6,0.6-2.3c2.3,2.8,5.6,4.6,9.5,4.8c-0.1-0.3-0.1-0.7-0.1-1c0-2.5,2.1-4.6,4.6-4.6c1.3,0,2.5,0.6,3.4,1.5
	c1-0.2,2-0.6,2.9-1.1c-0.3,1.1-1.1,2-2,2.5c0.9-0.1,1.8-0.4,2.6-0.7C30.8,14.1,30,14.9,29.1,15.6z"/>
</svg>
