<?xml version="1.0" encoding="utf-8"?>
<!-- Generator: Adobe Illustrator 22.1.0, SVG Export Plug-In . SVG Version: 6.00 Build 0)  -->
<svg version="1.1" id="Layer_1" xmlns="http://www.w3.org/2000/svg" xmlns:xlink="http://www.w3.org/1999/xlink" x="0px" y="0px"
	 viewBox="0 0 40 40" style="enable-background:new 0 0 40 40;" xml:space="preserve">
<style type="text/css">
	.st0{fill:#FFFFFF;}
</style>
<g>
	<path class="st0" d="M17.5,23.7L24,20l-6.5-3.7V23.7z"/>
	<path class="st0" d="M20,0C9,0,0,9,0,20s9,20,20,20s20-9,20-20S31,0,20,0z M32.5,20c0,0,0,4.1-0.5,6c-0.3,1.1-1.1,1.9-2.2,2.2
		c-2,0.5-9.8,0.5-9.8,0.5s-7.8,0-9.8-0.5C9.2,27.9,8.3,27.1,8,26c-0.5-1.9-0.5-6-0.5-6s0-4.1,0.5-6c0.3-1.1,1.2-1.9,2.2-2.2
		c2-0.5,9.8-0.5,9.8-0.5s7.8,0,9.8,0.5c1.1,0.3,1.9,1.1,2.2,2.2C32.5,15.9,32.5,20,32.5,20z"/>
</g>
</svg>
