<?xml version="1.0" encoding="utf-8"?>
<!-- Generator: Adobe Illustrator 22.1.0, SVG Export Plug-In . SVG Version: 6.00 Build 0)  -->
<svg version="1.1" id="Layer_1" xmlns="http://www.w3.org/2000/svg" xmlns:xlink="http://www.w3.org/1999/xlink" x="0px" y="0px"
	 viewBox="0 0 40 40" style="enable-background:new 0 0 40 40;" xml:space="preserve">
<style type="text/css">
	.st0{fill:#FFFFFF;}
</style>
<path class="st0" d="M20,0C9,0,0,9,0,20s9,20,20,20s20-9,20-20S31,0,20,0z M9.3,20.8l0.4-0.3c0.8-0.5,1.4-1.2,1.7-2.1
	c0.2-0.5,0.5-1.1,0.9-1.6c-0.2-0.4-0.4-0.8-0.6-1.2c-0.2-0.7-0.8-1.3-1.5-1.5L9.8,14l0.3-0.3c1.4-1,3.1-1.6,4.8-1.8
	c0-1.3,0.4-2.6,1.1-3.6l0.2-0.4l0.2,0.4c0.1,0.2,0.3,0.4,0.4,0.5c0.2,0.3,0.5,0.5,0.9,0.7c0.4,0.2,0.9,0.3,1.3,0.4
	c0.4,0.1,0.8,0.2,1.2,0.4c1.1,0.6,2,1.5,2.6,2.6c0.4,0.9,0.5,1.9,0.2,2.9L23,16.2c-0.1-0.1-0.1-0.2-0.2-0.4c-0.3-0.4-0.6-0.7-1-0.9
	c-0.4-1.2-1.4-2.2-2.6-2.7l-0.2-0.1c0.2-0.4,0.5-0.7,0.8-1c-0.4-0.2-0.8-0.3-1.2-0.4c-0.9-0.1-1.7-0.6-2.3-1.2
	c-0.4,0.8-0.6,1.8-0.6,2.7c1,0,1.9,0.1,2.9,0.5l0.4,0.1l0.1,0.1c0.8,0.3,1.5,0.9,2,1.7v0.1v0.1c-0.6-0.1-1.1-0.1-1.7,0
	c-0.9-0.6-2-0.8-3-0.6c-0.3,0-0.6,0.1-0.9,0.2c-0.1-0.5-0.2-1-0.2-1.5c-1.4,0.1-2.7,0.5-4,1.2c0.5,0.4,1,0.9,1.2,1.5
	c0.2,0.4,0.6,1.1,0.6,1.1c0.5-0.5,1.1-1,1.8-1.4c0.8-0.4,1.7-0.5,2.5-0.5h0.2h0.1c0.4,0,0.7,0.1,1,0.3c-0.7,0.3-1.3,0.8-1.6,1.4
	c-1.2,0.1-2.3,0.8-3,1.8l-0.1,0.1c-0.3-0.3-0.6-0.6-0.9-0.9l-0.1,0.1c-0.3,0.4-0.6,0.9-0.8,1.4c-0.3,0.7-0.7,1.3-1.3,1.9
	c0.8,0.4,1.7,0.7,2.5,0.8h0.1c0-0.8,0.2-1.5,0.5-2.2c0.2-0.5,0.6-1,1-1.4l0.1-0.1l0.2-0.2l0.1,0c0.4-0.2,0.7-0.4,1.2-0.5
	c-0.6,1.8,0.2,3.7,2,4.5C17,22.7,13.8,23.1,9.3,20.8z M30.5,25.5c-1.3,1.2-2.8,2-4.5,2.4c0.2,1.3,0,2.6-0.6,3.8l-0.2,0.4l-0.3-0.4
	c-0.1-0.2-0.3-0.3-0.5-0.5c-0.3-0.3-0.6-0.5-1-0.6c-0.4-0.1-0.9-0.2-1.4-0.2c-0.4,0-0.9-0.1-1.3-0.3c-1.2-0.4-2.2-1.2-3-2.2
	c-0.5-0.8-0.7-1.8-0.6-2.8v-0.3c0.1,0.1,0.1,0.2,0.2,0.3c0.3,0.4,0.7,0.6,1.2,0.8c0.6,1.2,1.7,2,3,2.3h0.2c-0.2,0.4-0.4,0.8-0.7,1.2
	c0.4,0.1,0.8,0.2,1.2,0.2c0.9,0,1.8,0.3,2.4,0.9c0.3-0.9,0.4-1.9,0.2-2.8c-1,0.2-1.9,0.1-2.9-0.1L22,27.6h-0.2
	c-0.8-0.2-1.6-0.7-2.2-1.4l-0.1-0.1l-0.1-0.1c0.6,0,1.1-0.1,1.7-0.2c1,0.5,2,0.5,3.1,0.2c0.3-0.1,0.6-0.2,0.9-0.3
	c0.2,0.5,0.3,1,0.4,1.5c1.3-0.3,2.6-0.9,3.8-1.7c-0.6-0.3-1-0.7-1.3-1.3c-0.2-0.4-0.7-1-0.7-1c-0.4,0.6-1,1.1-1.6,1.6
	c-0.7,0.5-1.5,0.8-2.4,0.9H23c-0.4,0-0.7,0-1-0.1c0.6-0.4,1.1-0.9,1.4-1.6c1.2-0.3,2.1-1,2.7-2.1l0.1-0.1c0.4,0.2,0.7,0.5,1,0.8
	v-0.1c0.2-0.5,0.4-1,0.6-1.5c0.2-0.8,0.5-1.5,1-2.1c-0.9-0.3-1.7-0.4-2.6-0.5H26c0.1,0.8,0,1.5-0.2,2.3c-0.1,0.6-0.4,1.1-0.8,1.5
	l-0.1,0.1l-0.2,0.2l-0.1,0.1c-0.3,0.3-0.7,0.5-1,0.6c0.3-1.8-0.8-3.6-2.6-4.2c1.4-1.3,4.5-2.2,9.4-0.5l-0.4,0.3
	c-0.7,0.6-1.2,1.4-1.4,2.4c-0.2,0.6-0.4,1.1-0.6,1.6c0.3,0.3,0.5,0.7,0.8,1c0.3,0.7,1,1.1,1.7,1.3l0.4,0.1L30.5,25.5z"/>
</svg>
