<?xml version="1.0" encoding="utf-8"?>
<!-- Generator: Adobe Illustrator 22.1.0, SVG Export Plug-In . SVG Version: 6.00 Build 0)  -->
<svg version="1.1" id="Layer_1" xmlns="http://www.w3.org/2000/svg" xmlns:xlink="http://www.w3.org/1999/xlink" x="0px" y="0px"
	 viewBox="0 0 40 40" style="enable-background:new 0 0 40 40;" xml:space="preserve">
<style type="text/css">
	.st0{fill:#FFFFFF;}
</style>
<path class="st0" d="M40,20C40,9,31,0,20,0S0,9,0,20s9,20,20,20c0.1,0,0.2,0,0.4,0V24.4h-4.3v-5h4.3v-3.7c0-4.3,2.6-6.6,6.4-6.6
	c1.8,0,3.4,0.1,3.9,0.2v4.5H28c-2.1,0-2.5,1-2.5,2.4v3.2h5l-0.6,5h-4.3v14.8C33.9,36.8,40,29.1,40,20z"/>
</svg>
