<?xml version="1.0" encoding="utf-8"?>
<!-- Generator: Adobe Illustrator 22.1.0, SVG Export Plug-In . SVG Version: 6.00 Build 0)  -->
<svg version="1.1" id="Layer_1" xmlns="http://www.w3.org/2000/svg" xmlns:xlink="http://www.w3.org/1999/xlink" x="0px" y="0px"
	 viewBox="0 0 40 40" style="enable-background:new 0 0 40 40;" xml:space="preserve">
<style type="text/css">
	.st0{fill:#FFFFFF;}
</style>
<path class="st0" d="M20,0C9,0,0,9,0,20s9,20,20,20s20-9,20-20S31,0,20,0z M14.2,30.2H9.3V15.6h4.9V30.2z M11.8,13.6L11.8,13.6
	C10.1,13.6,9,12.5,9,11c0-1.4,1.1-2.5,2.8-2.5s2.7,1.1,2.7,2.5C14.5,12.5,13.5,13.6,11.8,13.6z M31.8,30.2h-4.9v-7.8
	c0-2-0.7-3.3-2.5-3.3c-1.3,0-2.1,0.9-2.5,1.8c-0.1,0.3-0.2,0.8-0.2,1.2v8.2h-4.9c0,0,0.1-13.3,0-14.7h4.9v2.1c0.6-1,1.8-2.4,4.4-2.4
	c3.2,0,5.6,2.1,5.6,6.6V30.2z"/>
</svg>
